if (_typeface_js && _typeface_js.loadFace) _typeface_js.loadFace({"glyphs":{"S":{"x_min":54.140625,"x_max":1095.265625,"ha":1153,"o":"m 1059 1012 q 822 984 941 994 q 586 950 704 973 q 555 863 562 909 q 547 768 548 816 q 802 722 675 743 q 1058 677 929 701 q 1091 547 1083 618 q 1092 404 1098 476 q 1066 265 1086 333 q 1018 143 1047 198 q 811 54 918 91 q 593 -7 704 18 q 371 -50 483 -33 q 152 -81 259 -68 q 129 -28 140 -72 q 113 66 119 15 q 103 165 106 118 q 101 233 100 212 q 231 245 161 236 q 368 266 301 254 q 490 294 434 279 q 575 325 545 309 q 584 378 581 345 q 584 440 587 411 q 529 461 568 452 q 440 478 490 470 q 333 493 390 486 q 223 510 276 501 q 126 531 170 519 q 55 561 81 543 q 75 879 48 720 q 165 1179 102 1037 q 373 1244 265 1218 q 593 1287 481 1270 q 815 1309 704 1304 q 1032 1311 926 1315 q 1057 1163 1052 1244 q 1059 1012 1061 1083 "},"/":{"x_min":27.78125,"x_max":1100.09375,"ha":1122,"o":"m 1100 1275 q 916 970 1008 1133 q 733 636 823 808 q 557 290 643 465 q 395 -50 472 115 q 274 -56 334 -56 q 163 -54 213 -56 q 77 -46 113 -51 q 27 -38 41 -41 q 202 347 119 170 q 367 684 284 525 q 537 996 450 844 q 726 1308 625 1148 q 848 1311 787 1315 q 961 1301 909 1308 q 1049 1286 1012 1294 q 1100 1275 1086 1279 "},"y":{"x_min":44.453125,"x_max":1170.921875,"ha":1206,"o":"m 1170 1015 q 1077 872 1126 952 q 975 708 1027 793 q 871 540 923 623 q 770 384 819 456 q 765 185 768 280 q 759 9 762 90 q 671 -1 718 1 q 578 -4 625 -4 q 486 -1 531 -4 q 398 1 440 1 q 395 199 398 101 q 390 397 393 297 q 329 477 362 429 q 260 582 295 526 q 190 701 225 638 q 125 822 155 763 q 75 930 95 880 q 44 1015 54 980 q 153 1023 93 1019 q 270 1031 213 1027 q 368 1036 326 1034 q 420 1034 411 1037 q 450 963 429 1005 q 493 879 470 920 q 536 802 516 837 q 562 752 555 768 q 569 740 563 748 q 582 722 575 732 q 598 707 590 713 q 613 701 607 701 q 648 716 634 701 q 666 738 662 730 q 741 886 705 809 q 819 1032 776 962 q 942 1036 884 1037 q 1045 1032 1000 1036 q 1124 1024 1091 1029 q 1170 1015 1157 1019 "},"≈":{"x_min":44.453125,"x_max":948.6875,"ha":986,"o":"m 948 995 q 918 945 938 979 q 871 869 897 911 q 815 784 845 827 q 753 705 784 741 q 692 648 722 669 q 637 629 662 627 q 543 660 595 634 q 439 715 490 686 q 348 764 388 744 q 293 776 308 784 q 270 758 283 770 q 243 728 256 745 q 215 691 229 711 q 188 651 201 670 q 105 711 138 679 q 56 777 72 744 q 106 885 77 827 q 167 995 134 943 q 235 1088 200 1047 q 304 1150 270 1130 q 379 1157 340 1169 q 462 1120 419 1145 q 550 1060 505 1094 q 643 1001 595 1026 q 706 1002 675 984 q 763 1050 737 1020 q 820 1129 794 1083 q 893 1072 858 1105 q 948 995 929 1038 m 936 411 q 905 360 926 394 q 859 284 884 326 q 802 199 833 243 q 741 120 772 155 q 679 63 709 84 q 625 44 650 41 q 530 75 583 50 q 427 130 477 101 q 336 179 376 159 q 280 191 295 200 q 257 173 270 186 q 230 143 244 161 q 202 106 216 126 q 176 66 188 86 q 93 127 126 94 q 44 193 59 159 q 93 300 65 243 q 154 410 122 358 q 222 504 187 462 q 291 563 258 545 q 367 572 327 584 q 450 535 406 561 q 538 475 493 509 q 630 416 583 441 q 693 418 662 400 q 751 463 725 436 q 808 544 782 497 q 881 487 845 520 q 936 411 916 454 "},"Á":{"x_min":4.171875,"x_max":1398.71875,"ha":1410,"o":"m 1398 2 q 1288 -11 1345 -5 q 1175 -19 1232 -16 q 1067 -22 1119 -22 q 973 -22 1015 -23 q 954 33 962 9 q 939 77 945 56 q 927 122 933 98 q 913 177 920 145 q 802 185 865 183 q 676 186 738 187 q 558 180 613 184 q 466 168 502 176 q 442 121 452 141 q 424 81 431 101 q 410 38 416 61 q 395 -15 404 15 q 304 -27 356 -23 q 196 -31 251 -31 q 90 -27 141 -31 q 4 -18 40 -23 q 50 179 16 62 q 127 424 83 295 q 219 682 170 552 q 311 919 268 812 q 272 925 290 920 q 241 931 256 927 q 218 937 226 934 q 231 990 225 961 q 246 1048 238 1019 q 262 1103 254 1077 q 280 1148 270 1129 q 391 1166 323 1158 q 541 1177 459 1173 q 709 1183 622 1182 q 879 1182 797 1184 q 1034 1173 962 1179 q 1154 1157 1105 1168 q 1220 876 1187 1015 q 1285 597 1254 737 q 1345 309 1316 456 q 1398 2 1375 162 m 844 476 q 832 570 840 518 q 812 675 823 623 q 788 772 801 726 q 761 848 775 818 q 722 881 744 884 q 686 848 701 877 q 671 813 682 841 q 647 747 661 784 q 620 666 634 709 q 593 584 605 623 q 575 515 581 544 q 568 476 568 486 q 632 469 591 470 q 716 468 673 468 q 794 470 758 468 q 844 476 830 473 m 1055 1498 q 927 1344 993 1420 q 795 1223 861 1268 q 693 1237 750 1226 q 593 1266 636 1248 q 638 1346 618 1302 q 675 1432 658 1390 q 704 1512 691 1475 q 725 1576 716 1550 q 901 1554 818 1575 q 1055 1498 984 1534 "},"g":{"x_min":44.046875,"x_max":1108.078125,"ha":1188,"o":"m 1105 1065 q 1107 977 1107 1045 q 1107 816 1108 908 q 1105 619 1107 725 q 1101 418 1104 513 q 1093 249 1098 323 q 1083 145 1088 175 q 1055 34 1072 88 q 1015 -65 1038 -20 q 959 -145 991 -111 q 887 -194 927 -179 q 726 -236 819 -219 q 534 -265 633 -254 q 341 -284 436 -277 q 175 -293 245 -290 q 143 -174 154 -240 q 136 -54 131 -108 q 249 -45 186 -50 q 377 -32 312 -40 q 504 -13 443 -25 q 615 13 566 -2 q 638 61 627 25 q 655 145 648 97 q 370 146 512 138 q 105 187 229 154 q 64 273 79 215 q 45 406 50 331 q 47 563 41 480 q 67 723 52 645 q 104 870 81 801 q 156 982 127 938 q 279 1028 206 1008 q 437 1061 352 1048 q 613 1080 522 1073 q 793 1087 704 1087 q 962 1082 882 1087 q 1105 1065 1043 1076 m 686 829 q 600 814 641 823 q 518 788 559 805 q 491 688 504 740 q 471 588 477 637 q 469 495 465 538 q 494 418 473 451 q 568 401 519 405 q 677 398 618 397 q 684 613 683 505 q 686 829 686 722 "},"–":{"x_min":74.609375,"x_max":685.703125,"ha":764,"o":"m 680 369 q 534 361 609 363 q 384 356 459 359 q 235 350 309 354 q 90 337 161 347 q 77 425 80 379 q 75 517 73 472 q 81 600 76 562 q 94 663 87 638 q 170 668 123 665 q 271 671 216 670 q 385 672 326 672 q 499 673 444 673 q 599 672 554 673 q 672 668 644 670 q 679 602 676 643 q 684 517 683 561 q 685 434 686 473 q 680 369 684 394 "},"ë":{"x_min":51,"x_max":1149.5,"ha":1201,"o":"m 1148 419 q 1025 404 1104 412 q 852 388 945 395 q 659 376 758 381 q 476 368 559 370 q 484 322 479 343 q 500 286 490 301 q 563 263 520 273 q 659 246 607 252 q 770 234 712 240 q 878 225 827 229 q 967 216 929 220 q 1019 206 1005 212 q 1018 139 1020 177 q 1009 66 1015 101 q 993 4 1002 31 q 972 -31 984 -23 q 763 -25 876 -31 q 537 -4 651 -18 q 313 33 423 9 q 112 87 204 56 q 71 181 86 119 q 52 323 56 244 q 54 491 48 402 q 74 661 59 579 q 111 815 88 744 q 162 929 133 886 q 270 966 198 948 q 429 998 341 984 q 613 1023 518 1012 q 793 1037 709 1033 q 941 1038 877 1041 q 1029 1026 1005 1036 q 1084 898 1061 970 q 1123 746 1108 826 q 1144 582 1137 666 q 1148 419 1151 498 m 741 611 q 741 693 744 650 q 719 769 737 736 q 674 767 695 768 q 629 763 652 766 q 581 755 607 761 q 523 736 555 750 q 500 664 511 695 q 481 579 488 633 q 625 587 558 576 q 741 611 693 598 m 1006 1135 q 955 1089 996 1108 q 867 1063 915 1071 q 780 1062 820 1055 q 731 1093 739 1069 q 724 1135 726 1108 q 724 1189 723 1161 q 727 1246 724 1218 q 731 1292 730 1275 q 751 1340 735 1319 q 788 1373 767 1360 q 830 1394 809 1386 q 866 1405 852 1403 q 925 1398 890 1411 q 983 1368 960 1385 q 1005 1254 998 1314 q 1006 1135 1012 1194 m 577 1125 q 546 1090 570 1105 q 492 1064 523 1075 q 426 1049 462 1054 q 360 1044 391 1043 q 307 1054 330 1046 q 278 1078 284 1062 q 271 1122 273 1094 q 269 1181 269 1150 q 273 1242 270 1212 q 278 1289 276 1271 q 300 1339 283 1318 q 340 1374 317 1360 q 387 1397 363 1389 q 426 1410 410 1405 q 455 1410 438 1412 q 490 1401 473 1408 q 524 1386 508 1394 q 552 1369 541 1378 q 576 1250 567 1312 q 577 1125 584 1187 "},"ƒ":{"x_min":66.453125,"x_max":1044.53125,"ha":1092,"o":"m 1044 1082 q 894 1056 961 1070 q 779 1000 827 1041 q 759 910 766 972 q 750 766 752 848 q 822 764 790 765 q 876 761 854 763 q 886 700 882 737 q 892 621 890 662 q 893 543 894 580 q 886 481 891 505 q 815 478 851 479 q 743 475 779 477 q 738 234 741 348 q 723 50 734 120 q 643 13 697 30 q 524 -17 590 -4 q 386 -40 458 -30 q 250 -52 313 -50 q 139 -52 187 -54 q 73 -37 91 -50 q 67 55 70 -4 q 73 191 63 115 q 143 195 112 194 q 204 202 175 197 q 263 218 233 206 q 330 248 294 229 q 329 345 330 291 q 326 463 329 400 q 243 459 284 462 q 162 452 202 456 q 146 534 150 490 q 145 620 143 579 q 154 699 147 662 q 169 757 161 736 q 236 761 197 761 q 322 763 275 762 q 327 900 323 833 q 338 1025 330 966 q 360 1132 347 1083 q 393 1215 373 1182 q 538 1266 461 1248 q 697 1291 616 1283 q 859 1302 779 1300 q 1009 1305 938 1304 q 1025 1272 1018 1297 q 1036 1214 1032 1247 q 1042 1147 1040 1182 q 1044 1082 1044 1112 "},"Î":{"x_min":18.0625,"x_max":588.9375,"ha":608,"o":"m 512 1123 q 503 580 512 852 q 479 29 494 308 q 441 19 468 23 q 381 11 415 15 q 309 5 347 8 q 235 2 270 2 q 171 2 200 1 q 127 4 143 2 q 114 275 119 131 q 109 563 109 418 q 109 846 108 708 q 115 1100 111 984 q 212 1113 161 1108 q 315 1120 263 1118 q 418 1123 368 1123 q 512 1123 468 1123 m 588 1209 q 535 1204 565 1208 q 477 1196 505 1200 q 429 1190 450 1193 q 402 1190 408 1187 q 383 1231 394 1208 q 361 1276 372 1254 q 339 1316 350 1298 q 323 1343 329 1333 q 317 1354 320 1345 q 306 1362 313 1362 q 289 1352 295 1362 q 280 1336 283 1341 q 241 1263 262 1302 q 206 1186 220 1225 q 144 1183 175 1183 q 87 1184 113 1183 q 43 1188 61 1184 q 18 1193 25 1191 q 45 1273 29 1229 q 81 1362 62 1316 q 122 1453 101 1408 q 166 1537 144 1498 q 224 1543 187 1541 q 299 1545 261 1544 q 372 1545 337 1545 q 425 1544 406 1544 q 463 1464 441 1508 q 506 1374 484 1419 q 549 1286 527 1329 q 588 1209 570 1244 "},"e":{"x_min":51,"x_max":1149.5,"ha":1201,"o":"m 1148 419 q 1025 404 1104 412 q 852 388 945 395 q 659 376 758 381 q 476 368 559 370 q 484 322 479 343 q 500 286 490 301 q 563 263 520 273 q 659 246 607 252 q 770 234 712 240 q 878 225 827 229 q 967 216 929 220 q 1019 206 1005 212 q 1018 139 1020 177 q 1009 66 1015 101 q 993 4 1002 31 q 972 -31 984 -23 q 763 -25 876 -31 q 537 -4 651 -18 q 313 33 423 9 q 112 87 204 56 q 71 181 86 119 q 52 323 56 244 q 54 491 48 402 q 74 661 59 579 q 111 815 88 744 q 162 929 133 886 q 270 966 198 948 q 429 998 341 984 q 613 1023 518 1012 q 793 1037 709 1033 q 941 1038 877 1041 q 1029 1026 1005 1036 q 1084 898 1061 970 q 1123 746 1108 826 q 1144 582 1137 666 q 1148 419 1151 498 m 741 611 q 741 693 744 650 q 719 769 737 736 q 674 767 695 768 q 629 763 652 766 q 581 755 607 761 q 523 736 555 750 q 500 664 511 695 q 481 579 488 633 q 625 587 558 576 q 741 611 693 598 "},"Ã":{"x_min":4.171875,"x_max":1398.71875,"ha":1410,"o":"m 1398 2 q 1288 -11 1345 -5 q 1175 -19 1232 -16 q 1067 -22 1119 -22 q 973 -22 1015 -23 q 954 33 962 9 q 939 77 945 56 q 927 122 933 98 q 913 177 920 145 q 802 185 865 183 q 676 186 738 187 q 558 180 613 184 q 466 168 502 176 q 442 121 452 141 q 424 81 431 101 q 410 38 416 61 q 395 -15 404 15 q 304 -27 356 -23 q 196 -31 251 -31 q 90 -27 141 -31 q 4 -18 40 -23 q 50 179 16 62 q 127 424 83 295 q 219 682 170 552 q 311 919 268 812 q 272 925 290 920 q 241 931 256 927 q 218 937 226 934 q 231 990 225 961 q 246 1048 238 1019 q 262 1103 254 1077 q 280 1148 270 1129 q 391 1166 323 1158 q 541 1177 459 1173 q 709 1183 622 1182 q 879 1182 797 1184 q 1034 1173 962 1179 q 1154 1157 1105 1168 q 1220 876 1187 1015 q 1285 597 1254 737 q 1345 309 1316 456 q 1398 2 1375 162 m 844 476 q 832 570 840 518 q 812 675 823 623 q 788 772 801 726 q 761 848 775 818 q 722 881 744 884 q 686 848 701 877 q 671 813 682 841 q 647 747 661 784 q 620 666 634 709 q 593 584 605 623 q 575 515 581 544 q 568 476 568 486 q 632 469 591 470 q 716 468 673 468 q 794 470 758 468 q 844 476 830 473 m 1141 1469 q 1094 1411 1127 1452 q 1020 1329 1061 1370 q 937 1257 980 1287 q 861 1227 894 1226 q 775 1248 823 1232 q 682 1284 727 1265 q 601 1316 637 1302 q 551 1325 565 1329 q 506 1293 533 1318 q 456 1241 479 1268 q 338 1326 365 1279 q 383 1397 358 1359 q 437 1468 408 1434 q 498 1531 466 1502 q 561 1570 530 1559 q 628 1577 593 1584 q 702 1552 663 1569 q 782 1512 741 1534 q 865 1473 822 1490 q 922 1474 894 1462 q 973 1504 950 1486 q 1025 1558 1000 1526 q 1091 1520 1059 1543 q 1141 1469 1122 1498 "},"J":{"x_min":63.328125,"x_max":971.6875,"ha":1064,"o":"m 955 1300 q 968 1134 963 1234 q 971 913 972 1033 q 967 668 970 794 q 958 425 963 541 q 947 212 952 308 q 936 58 941 116 q 825 11 897 33 q 666 -27 754 -11 q 485 -55 579 -44 q 309 -70 391 -66 q 163 -69 226 -73 q 73 -52 100 -65 q 64 64 69 -12 q 73 236 59 141 q 184 240 130 238 q 292 248 238 243 q 398 268 345 254 q 505 308 451 283 q 528 486 520 370 q 536 739 536 602 q 530 1018 536 876 q 513 1276 525 1159 q 602 1295 551 1286 q 713 1311 654 1305 q 834 1314 772 1316 q 955 1300 897 1312 "},"»":{"x_min":66.671875,"x_max":1209.8125,"ha":1253,"o":"m 66 97 q 146 244 106 176 q 225 375 186 312 q 300 496 263 437 q 373 616 337 555 q 306 738 343 672 q 231 874 269 805 q 155 1007 193 943 q 87 1125 118 1072 q 181 1134 129 1127 q 281 1146 233 1141 q 366 1153 330 1151 q 412 1152 402 1155 q 579 892 501 1022 q 726 626 658 762 q 561 352 638 486 q 402 72 484 218 q 292 70 347 68 q 190 77 237 72 q 111 88 144 83 q 66 97 79 94 m 550 97 q 629 244 590 176 q 707 375 669 312 q 783 496 745 437 q 857 616 820 555 q 789 738 826 672 q 714 874 752 805 q 638 1007 676 943 q 570 1125 601 1072 q 664 1134 612 1127 q 764 1146 716 1141 q 849 1153 812 1151 q 894 1152 886 1155 q 1063 892 984 1022 q 1209 626 1141 762 q 1044 352 1122 487 q 884 72 966 216 q 774 70 829 68 q 673 77 719 72 q 595 88 627 83 q 550 97 562 94 "},"∆":{"x_min":26.390625,"x_max":1232.046875,"ha":1275,"o":"m 1232 6 q 1068 -6 1161 0 q 869 -18 975 -13 q 651 -23 763 -22 q 428 -23 538 -25 q 215 -15 318 -22 q 26 0 112 -9 q 90 196 56 86 q 161 425 125 306 q 233 667 197 544 q 302 903 269 790 q 366 1115 336 1016 q 418 1284 395 1213 q 629 1290 519 1290 q 840 1276 738 1290 q 914 1091 876 1193 q 989 878 952 990 q 1061 650 1026 766 q 1127 419 1095 533 q 1185 200 1158 305 q 1232 6 1212 94 m 754 305 q 708 461 730 384 q 663 616 686 538 q 656 638 661 625 q 644 665 651 652 q 628 686 637 677 q 608 694 619 694 q 595 687 601 694 q 584 670 588 680 q 575 649 579 659 q 570 632 572 638 q 557 580 566 613 q 536 502 548 547 q 511 406 525 458 q 481 301 497 355 q 618 304 548 302 q 754 305 687 305 "},"©":{"x_min":71.421875,"x_max":1341.78125,"ha":1425,"o":"m 1336 275 q 1249 140 1290 208 q 1158 9 1208 72 q 913 -13 1043 -5 q 661 -21 783 -20 q 434 -19 538 -22 q 265 -13 330 -16 q 217 46 243 9 q 168 125 191 83 q 124 206 144 166 q 91 280 104 247 q 77 466 81 369 q 71 658 72 562 q 74 845 70 754 q 83 1012 77 936 q 181 1131 131 1066 q 284 1252 231 1195 q 422 1271 344 1263 q 582 1284 500 1279 q 747 1291 665 1288 q 898 1293 829 1293 q 1018 1293 968 1293 q 1090 1294 1069 1294 q 1150 1233 1120 1269 q 1209 1158 1180 1197 q 1263 1079 1237 1119 q 1312 1002 1290 1038 q 1325 889 1319 954 q 1334 754 1330 825 q 1339 609 1337 683 q 1341 472 1341 536 q 1340 356 1341 408 q 1336 275 1339 304 m 1027 204 q 1058 423 1051 305 q 1059 658 1065 541 q 1035 884 1052 775 q 994 1077 1018 993 q 832 1104 922 1097 q 657 1105 743 1111 q 503 1082 572 1100 q 405 1034 434 1063 q 353 870 370 976 q 334 644 336 763 q 345 409 331 525 q 388 218 359 294 q 547 179 458 194 q 725 161 636 163 q 895 169 815 159 q 1027 204 976 179 m 966 252 q 903 246 944 247 q 811 250 862 245 q 705 261 761 254 q 599 277 650 268 q 507 300 548 287 q 444 326 466 312 q 417 408 426 358 q 406 516 408 458 q 408 635 404 575 q 421 750 412 695 q 444 850 430 805 q 473 918 458 894 q 682 991 573 970 q 908 1012 790 1011 q 922 988 915 1005 q 934 946 929 970 q 941 897 938 922 q 944 851 944 872 q 897 837 932 844 q 825 822 863 830 q 748 803 786 813 q 691 777 711 793 q 674 713 679 752 q 669 629 669 675 q 674 539 669 584 q 687 459 679 494 q 749 438 716 444 q 817 431 782 433 q 890 428 852 429 q 966 425 927 427 q 971 323 973 370 q 966 252 969 276 "},"≥":{"x_min":69.359375,"x_max":730.609375,"ha":753,"o":"m 683 16 q 535 10 611 12 q 384 6 459 8 q 232 1 308 5 q 84 -11 156 -2 q 71 70 75 27 q 70 155 68 113 q 77 234 72 197 q 90 291 83 270 q 166 295 119 294 q 269 298 213 297 q 384 300 325 300 q 500 300 444 300 q 601 298 555 300 q 675 294 647 297 q 682 234 679 272 q 688 156 686 197 q 688 77 690 115 q 683 16 687 40 m 109 406 q 259 631 187 533 q 398 825 330 730 q 336 925 370 870 q 265 1035 301 980 q 193 1143 229 1090 q 129 1238 158 1197 q 217 1247 168 1241 q 311 1255 266 1252 q 391 1261 356 1258 q 434 1261 426 1263 q 593 1050 519 1155 q 730 836 666 945 q 575 611 647 720 q 425 386 502 502 q 321 384 373 381 q 226 390 269 386 q 152 400 183 394 q 109 406 120 405 "},"ò":{"x_min":55.5625,"x_max":1160.734375,"ha":1222,"o":"m 1154 208 q 1075 104 1113 158 q 993 1 1037 51 q 825 -16 926 -11 q 614 -22 725 -22 q 395 -18 504 -22 q 205 -4 287 -13 q 165 43 187 13 q 123 105 144 72 q 84 172 102 138 q 56 230 66 205 q 55 372 55 294 q 55 529 55 451 q 57 681 55 608 q 62 811 59 755 q 105 857 79 827 q 160 916 131 886 q 215 971 188 945 q 259 1008 241 997 q 413 1020 323 1012 q 599 1032 502 1027 q 789 1034 695 1036 q 955 1019 883 1033 q 1057 911 1008 977 q 1147 786 1107 844 q 1154 645 1151 729 q 1159 475 1158 561 q 1160 316 1161 388 q 1154 208 1159 243 m 741 270 q 747 502 744 375 q 733 762 750 629 q 664 760 697 761 q 602 757 632 759 q 543 747 572 754 q 483 727 513 741 q 472 678 476 713 q 467 595 469 643 q 465 493 465 547 q 465 388 465 438 q 466 300 465 338 q 468 241 468 261 q 535 224 497 227 q 612 225 573 220 q 686 241 651 229 q 741 270 720 254 m 266 1285 q 420 1342 337 1322 q 597 1362 504 1362 q 618 1299 605 1337 q 647 1218 630 1260 q 684 1132 663 1176 q 729 1052 704 1088 q 681 1036 707 1044 q 628 1024 655 1029 q 575 1015 601 1019 q 526 1010 548 1012 q 395 1132 461 1055 q 266 1285 329 1209 "},"^":{"x_min":31.953125,"x_max":969.515625,"ha":989,"o":"m 969 590 q 881 579 930 586 q 786 568 832 573 q 707 559 741 562 q 663 561 672 556 q 631 627 650 590 q 595 698 613 663 q 559 763 576 733 q 533 808 543 794 q 523 829 530 816 q 505 841 516 841 q 477 825 487 841 q 462 800 466 808 q 398 680 433 745 q 341 554 363 615 q 238 547 290 548 q 145 550 187 547 q 72 556 102 552 q 31 563 43 561 q 77 695 51 623 q 136 841 104 766 q 203 991 168 916 q 275 1132 238 1066 q 370 1141 311 1138 q 493 1145 430 1144 q 613 1143 556 1145 q 700 1140 670 1141 q 763 1008 729 1080 q 834 861 798 936 q 905 717 870 787 q 969 590 940 647 "},"«":{"x_min":66.671875,"x_max":1222.3125,"ha":1278,"o":"m 726 1122 q 645 975 684 1043 q 567 844 605 907 q 491 723 529 782 q 418 605 454 665 q 486 481 448 548 q 561 346 523 415 q 637 213 600 277 q 705 97 675 148 q 611 86 663 91 q 511 75 559 80 q 426 67 462 69 q 380 68 390 65 q 213 328 291 198 q 66 593 134 458 q 231 869 154 733 q 390 1148 308 1005 q 500 1150 445 1152 q 602 1143 555 1148 q 681 1132 648 1138 q 726 1122 713 1125 m 1222 1122 q 1142 975 1182 1043 q 1064 844 1102 907 q 988 723 1026 782 q 915 605 951 665 q 982 481 945 548 q 1057 346 1019 415 q 1133 213 1095 277 q 1201 97 1170 148 q 1107 86 1159 91 q 1007 75 1055 80 q 922 67 959 69 q 877 68 886 65 q 709 328 787 198 q 562 593 630 458 q 727 869 650 733 q 887 1148 805 1005 q 997 1150 943 1152 q 1098 1143 1052 1148 q 1177 1132 1144 1138 q 1222 1122 1209 1125 "},"D":{"x_min":52.78125,"x_max":1405.671875,"ha":1467,"o":"m 1397 1034 q 1403 945 1401 1004 q 1405 813 1405 886 q 1404 659 1405 740 q 1400 505 1402 579 q 1393 371 1397 431 q 1383 279 1389 311 q 1331 199 1358 241 q 1275 115 1304 156 q 1214 37 1245 75 q 1151 -26 1183 0 q 1032 -38 1102 -31 q 879 -50 962 -45 q 702 -56 795 -55 q 513 -54 608 -58 q 327 -41 419 -51 q 155 -12 236 -31 q 145 207 147 81 q 144 470 143 333 q 147 746 145 608 q 151 1001 150 884 l 52 1008 q 55 1098 52 1051 q 61 1185 58 1144 q 68 1258 65 1226 q 72 1304 70 1290 q 336 1332 187 1320 q 641 1344 486 1343 q 945 1336 797 1345 q 1205 1304 1093 1327 q 1263 1243 1238 1273 q 1309 1181 1288 1212 q 1351 1113 1330 1150 q 1397 1034 1372 1077 m 934 944 q 863 982 907 969 q 770 998 819 995 q 675 993 722 1001 q 595 968 629 984 q 593 895 594 950 q 592 770 593 841 q 591 619 591 698 q 591 472 591 540 q 593 356 591 404 q 598 302 595 309 q 676 288 633 293 q 761 283 719 283 q 843 288 804 283 q 909 302 882 293 q 946 464 934 376 q 959 641 958 552 q 954 809 961 729 q 934 944 947 890 "},"∙":{"x_min":110.5625,"x_max":502.9375,"ha":614,"o":"m 500 427 q 461 398 491 411 q 392 377 431 386 q 309 363 352 368 q 225 360 265 359 q 158 368 186 361 q 122 390 130 376 q 111 427 113 402 q 111 477 109 451 q 115 527 112 502 q 122 568 119 552 q 149 610 126 593 q 201 640 172 627 q 259 659 230 652 q 306 669 288 666 q 345 670 323 673 q 388 663 366 668 q 432 650 411 658 q 468 636 454 643 q 497 534 487 587 q 500 427 506 481 "},"ÿ":{"x_min":44.453125,"x_max":1170.921875,"ha":1206,"o":"m 1170 1015 q 1077 872 1126 952 q 975 708 1027 793 q 871 540 923 623 q 770 384 819 456 q 765 185 768 280 q 759 9 762 90 q 671 -1 718 1 q 578 -4 625 -4 q 486 -1 531 -4 q 398 1 440 1 q 395 199 398 101 q 390 397 393 297 q 329 477 362 429 q 260 582 295 526 q 190 701 225 638 q 125 822 155 763 q 75 930 95 880 q 44 1015 54 980 q 153 1023 93 1019 q 270 1031 213 1027 q 368 1036 326 1034 q 420 1034 411 1037 q 450 963 429 1005 q 493 879 470 920 q 536 802 516 837 q 562 752 555 768 q 569 740 563 748 q 582 722 575 732 q 598 707 590 713 q 613 701 607 701 q 648 716 634 701 q 666 738 662 730 q 741 886 705 809 q 819 1032 776 962 q 942 1036 884 1037 q 1045 1032 1000 1036 q 1124 1024 1091 1029 q 1170 1015 1157 1019 m 973 1146 q 922 1100 963 1119 q 834 1074 882 1082 q 747 1073 787 1066 q 698 1104 706 1080 q 691 1146 693 1119 q 691 1200 690 1172 q 694 1257 691 1229 q 698 1303 697 1286 q 718 1351 702 1330 q 755 1384 734 1371 q 797 1405 776 1397 q 833 1416 819 1414 q 892 1409 857 1422 q 950 1379 927 1396 q 972 1265 965 1325 q 973 1146 979 1205 m 544 1136 q 513 1101 537 1116 q 459 1075 490 1086 q 393 1060 429 1065 q 327 1055 358 1054 q 274 1065 297 1057 q 245 1089 251 1073 q 238 1133 240 1105 q 236 1192 236 1161 q 240 1253 237 1223 q 245 1300 243 1282 q 267 1350 250 1329 q 307 1385 284 1371 q 354 1408 330 1400 q 393 1421 377 1416 q 422 1421 405 1423 q 457 1412 440 1419 q 491 1397 475 1405 q 519 1380 508 1389 q 543 1261 534 1323 q 544 1136 551 1198 "},"í":{"x_min":97.6875,"x_max":573.265625,"ha":547,"o":"m 461 1015 q 452 524 461 775 q 431 26 444 273 q 372 13 416 18 q 277 4 327 8 q 181 1 227 1 q 115 2 134 1 q 102 246 106 116 q 97 509 98 376 q 98 767 97 641 q 104 994 100 893 q 191 1007 145 1002 q 284 1013 237 1011 q 375 1015 330 1015 q 461 1015 420 1015 m 573 1313 q 444 1159 510 1236 q 313 1038 378 1082 q 210 1051 267 1040 q 110 1079 153 1061 q 154 1159 134 1115 q 191 1245 174 1203 q 220 1326 207 1288 q 241 1389 232 1364 q 419 1369 335 1389 q 573 1313 502 1349 "},"ˆ":{"x_min":115.28125,"x_max":819.515625,"ha":897,"o":"m 819 770 q 753 765 790 769 q 682 757 716 761 q 622 752 647 754 q 590 752 597 751 q 566 793 580 770 q 537 838 551 816 q 511 877 523 859 q 491 904 498 894 q 484 916 488 908 q 470 925 479 925 q 450 914 458 925 q 438 900 441 904 q 391 826 416 866 q 348 747 365 786 q 271 744 309 744 q 201 745 233 744 q 146 750 169 747 q 115 754 123 752 q 149 835 129 791 q 193 925 169 879 q 244 1016 218 970 q 297 1101 270 1061 q 369 1106 325 1104 q 461 1109 413 1108 q 552 1109 509 1109 q 616 1108 594 1108 q 663 1025 637 1070 q 717 936 690 980 q 770 848 744 891 q 819 770 797 805 "},"w":{"x_min":48.609375,"x_max":1608.46875,"ha":1635,"o":"m 1608 1036 q 1593 865 1604 958 q 1567 673 1582 772 q 1536 477 1552 575 q 1502 291 1519 380 q 1470 129 1486 202 q 1444 5 1455 55 q 1316 -2 1377 0 q 1195 -7 1255 -5 q 1077 -9 1136 -9 q 952 -9 1018 -9 q 945 28 950 0 q 933 95 940 56 q 918 178 926 134 q 902 262 909 222 q 888 334 894 302 q 877 381 882 366 q 844 420 866 423 q 811 381 822 418 q 789 311 802 355 q 761 214 776 268 q 729 102 745 161 q 697 -15 712 43 q 570 -22 629 -19 q 458 -25 512 -25 q 349 -22 404 -25 q 231 -16 294 -19 q 177 238 200 111 q 134 495 154 366 q 95 750 115 623 q 48 1007 75 877 q 231 1026 138 1019 q 425 1016 325 1033 q 468 800 448 908 q 506 583 487 693 q 513 573 508 577 q 524 568 518 569 q 536 568 530 568 q 543 575 541 569 q 582 678 562 618 q 622 802 602 738 q 661 925 643 865 q 694 1027 679 984 q 870 1038 780 1036 q 1044 1027 959 1041 q 1119 813 1082 919 q 1193 598 1157 708 q 1201 586 1195 591 q 1213 581 1207 580 q 1227 591 1220 581 q 1237 626 1233 601 q 1266 829 1252 726 q 1293 1036 1280 933 q 1443 1047 1364 1050 q 1608 1036 1523 1044 "},"$":{"x_min":68.0625,"x_max":1069.25,"ha":1128,"o":"m 1051 694 q 1068 602 1066 657 q 1062 489 1070 547 q 1035 379 1054 431 q 988 298 1016 327 q 934 276 959 286 q 882 257 908 266 q 827 240 855 248 q 766 223 800 231 q 758 91 762 152 q 737 -31 754 30 q 672 -44 715 -38 q 581 -54 629 -50 q 490 -58 534 -58 q 422 -52 445 -58 q 418 72 420 19 q 413 173 416 126 q 344 163 376 168 q 282 154 312 158 q 222 146 252 150 q 156 140 191 143 q 134 186 144 155 q 118 252 125 218 q 109 317 112 286 q 106 361 105 348 q 213 375 152 366 q 334 395 275 384 q 443 416 394 405 q 513 436 491 426 q 529 446 520 440 q 547 460 538 452 q 561 475 555 468 q 565 488 566 483 q 548 514 561 505 q 519 527 536 523 q 483 533 502 531 q 445 536 463 534 q 365 540 412 540 q 265 541 318 540 q 161 545 213 541 q 68 559 109 548 q 72 675 68 613 q 88 797 76 736 q 119 918 100 859 q 168 1026 138 976 q 260 1052 211 1040 q 390 1073 309 1063 q 387 1151 388 1116 q 384 1216 386 1186 q 381 1275 383 1247 q 377 1333 380 1302 q 472 1362 422 1351 q 573 1379 522 1373 q 674 1384 625 1384 q 765 1380 723 1384 q 747 1231 751 1298 q 737 1102 744 1163 q 889 1116 829 1111 q 1001 1118 950 1122 q 1008 1081 1004 1107 q 1016 1024 1012 1055 q 1020 963 1019 993 q 1019 909 1022 933 q 909 902 970 907 q 784 890 847 897 q 661 875 720 883 q 561 858 602 868 q 538 841 548 855 q 522 809 527 826 q 520 779 518 793 q 536 763 523 766 q 646 746 576 757 q 793 726 716 736 q 941 708 870 716 q 1051 694 1011 700 "},"∫":{"x_min":66.453125,"x_max":1044.53125,"ha":1092,"o":"m 1044 1082 q 894 1056 961 1070 q 779 1000 827 1041 q 759 903 766 970 q 749 748 752 836 q 745 561 745 661 q 742 365 744 461 q 736 186 740 269 q 723 50 732 104 q 643 13 697 30 q 524 -17 590 -4 q 386 -40 458 -30 q 250 -52 313 -50 q 139 -52 187 -54 q 73 -37 91 -50 q 67 55 70 -4 q 73 191 63 115 q 143 195 112 194 q 204 202 175 197 q 263 218 233 206 q 330 248 294 229 q 329 388 331 306 q 324 562 326 470 q 322 750 322 654 q 329 935 322 847 q 350 1097 336 1023 q 393 1215 365 1170 q 538 1266 461 1248 q 697 1291 616 1283 q 859 1302 779 1300 q 1009 1305 938 1304 q 1025 1272 1018 1297 q 1036 1214 1032 1247 q 1042 1147 1040 1182 q 1044 1082 1044 1112 "},"\\":{"x_min":30.5625,"x_max":963.96875,"ha":988,"o":"m 963 -8 q 859 -21 918 -13 q 746 -35 800 -29 q 652 -45 693 -41 q 601 -45 612 -48 q 549 62 586 -11 q 466 228 512 136 q 371 422 420 320 q 280 616 322 525 q 244 697 266 647 q 197 807 222 747 q 145 932 172 866 q 96 1059 119 997 q 56 1175 73 1120 q 30 1268 38 1229 q 112 1279 65 1272 q 209 1291 159 1286 q 307 1300 259 1297 q 391 1300 355 1302 q 447 1148 412 1238 q 529 946 483 1058 q 627 710 575 834 q 737 460 680 586 q 852 214 794 334 q 963 -8 909 94 "},"Ì":{"x_min":26.390625,"x_max":512.546875,"ha":608,"o":"m 512 1123 q 503 580 512 852 q 479 29 494 308 q 441 19 468 23 q 381 11 415 15 q 309 5 347 8 q 235 2 270 2 q 171 2 200 1 q 127 4 143 2 q 114 275 119 131 q 109 563 109 418 q 109 846 108 708 q 115 1100 111 984 q 212 1113 161 1108 q 315 1120 263 1118 q 418 1123 368 1123 q 512 1123 468 1123 m 26 1465 q 356 1541 170 1537 q 377 1477 365 1515 q 406 1397 390 1440 q 443 1311 423 1354 q 488 1232 463 1268 q 388 1202 445 1212 q 286 1190 331 1193 q 220 1243 254 1211 q 154 1310 187 1275 q 90 1386 122 1345 q 26 1465 58 1426 "},"µ":{"x_min":105.953125,"x_max":1256.046875,"ha":1333,"o":"m 1243 1275 q 1255 1052 1254 1169 q 1253 819 1257 936 q 1243 593 1250 702 q 1230 394 1236 484 q 1074 328 1148 351 q 947 297 1000 305 q 716 284 834 291 q 494 277 598 277 q 491 201 493 233 q 486 141 488 169 q 483 81 484 113 q 479 5 481 50 q 441 -6 468 -1 q 381 -15 415 -11 q 309 -21 347 -19 q 235 -24 270 -23 q 171 -25 200 -25 q 127 -23 143 -25 q 106 604 108 283 q 116 1248 104 926 q 156 1260 126 1255 q 227 1267 186 1265 q 316 1270 269 1269 q 406 1272 363 1272 q 484 1270 450 1272 q 534 1268 519 1269 q 524 1110 530 1193 q 512 943 518 1027 q 504 778 506 859 q 506 622 502 697 q 556 609 516 615 q 644 602 595 602 q 741 604 693 601 q 813 613 788 607 q 827 741 822 658 q 833 918 832 823 q 833 1107 834 1013 q 827 1263 832 1200 q 925 1271 862 1268 q 1054 1276 988 1275 q 1173 1277 1119 1277 q 1243 1275 1226 1277 "},"Ç":{"x_min":48.578125,"x_max":1083.8125,"ha":1139,"o":"m 1083 415 q 1081 343 1084 384 q 1071 261 1077 301 q 1054 192 1065 222 q 1030 152 1044 162 q 923 153 977 152 q 811 155 869 154 q 797 -2 808 72 q 759 -113 786 -77 q 644 -145 709 -134 q 511 -162 579 -156 q 377 -169 443 -168 q 258 -170 311 -170 q 246 -145 251 -165 q 238 -101 241 -126 q 233 -50 234 -76 q 231 -5 231 -23 q 298 1 262 -2 q 369 10 334 5 q 433 23 404 15 q 480 45 462 31 q 496 100 491 65 q 504 176 501 134 q 303 206 401 187 q 116 256 205 226 q 71 361 87 293 q 50 516 55 429 q 52 701 45 604 q 74 890 58 798 q 115 1059 90 982 q 173 1186 141 1137 q 286 1225 213 1207 q 449 1260 359 1244 q 634 1287 538 1276 q 815 1302 730 1298 q 964 1305 900 1307 q 1055 1293 1029 1304 q 1061 1248 1058 1276 q 1065 1187 1063 1220 q 1064 1116 1066 1154 q 1055 1037 1062 1077 q 920 1028 983 1030 q 798 1020 857 1026 q 685 1004 740 1015 q 575 972 630 994 q 545 850 559 920 q 523 709 530 780 q 521 576 516 638 q 548 476 526 513 q 616 452 572 461 q 715 440 661 444 q 827 433 769 436 q 937 429 886 430 q 1027 425 988 427 q 1083 415 1066 422 "},"’":{"x_min":54.171875,"x_max":493.09375,"ha":511,"o":"m 493 1063 q 432 942 463 1002 q 369 825 401 882 q 306 722 337 769 q 243 641 275 675 q 147 664 200 647 q 54 711 94 682 q 97 834 77 768 q 133 967 116 901 q 162 1091 150 1033 q 183 1190 175 1150 q 348 1154 270 1186 q 493 1063 426 1122 "},"-":{"x_min":73.0625,"x_max":480.25,"ha":556,"o":"m 476 369 q 279 356 380 356 q 83 337 177 355 q 74 425 76 379 q 73 517 72 472 q 78 600 75 562 q 86 663 81 638 q 168 670 115 668 q 280 674 222 672 q 391 674 338 676 q 472 668 444 672 q 477 602 475 643 q 479 517 479 561 q 479 434 480 473 q 476 369 479 394 "},"Q":{"x_min":71.421875,"x_max":1341.78125,"ha":1425,"o":"m 1336 297 q 1270 200 1301 250 q 1208 101 1240 150 q 1259 52 1236 75 q 1297 13 1282 30 q 1245 -39 1277 -15 q 1174 -81 1213 -63 q 1088 -114 1134 -100 q 994 -138 1043 -129 q 936 -68 966 -105 q 877 8 907 -31 q 696 2 786 2 q 526 2 607 1 q 378 5 445 2 q 265 9 311 8 q 217 69 243 33 q 168 147 191 105 q 124 229 144 188 q 91 304 104 270 q 77 489 81 393 q 71 682 72 586 q 74 868 70 777 q 83 1036 77 959 q 181 1154 131 1088 q 284 1276 231 1219 q 422 1295 344 1287 q 582 1307 500 1302 q 747 1314 665 1312 q 898 1316 829 1316 q 1018 1317 968 1316 q 1090 1318 1069 1318 q 1150 1257 1120 1293 q 1209 1182 1180 1220 q 1263 1102 1237 1143 q 1312 1026 1290 1062 q 1325 912 1319 977 q 1334 776 1330 847 q 1339 632 1337 705 q 1341 495 1341 559 q 1340 379 1341 430 q 1336 297 1339 327 m 861 445 q 863 578 862 509 q 863 716 865 647 q 858 847 862 784 q 844 962 854 911 q 779 966 815 962 q 704 972 743 970 q 628 971 666 975 q 558 952 590 968 q 542 800 547 879 q 537 641 537 720 q 540 481 537 561 q 547 326 543 401 q 612 316 576 320 q 686 309 648 311 q 641 402 658 359 q 616 477 623 445 q 693 521 644 508 q 788 541 743 534 q 861 445 815 497 "},"M":{"x_min":55.359375,"x_max":1640.40625,"ha":1715,"o":"m 1640 4 q 1557 -21 1609 -13 q 1445 -31 1505 -29 q 1322 -29 1384 -33 q 1207 -20 1259 -26 q 1202 50 1205 2 q 1196 159 1200 98 q 1189 285 1193 220 q 1182 405 1186 350 q 1176 499 1179 461 q 1172 544 1173 537 q 1143 576 1161 580 q 1113 548 1125 572 q 1069 447 1097 511 q 1009 308 1041 383 q 943 154 977 233 q 876 4 908 75 q 798 2 837 4 q 720 6 759 0 q 651 145 683 73 q 591 285 619 216 q 541 414 563 354 q 501 520 519 475 q 475 546 494 540 q 444 529 455 552 q 432 474 437 515 q 424 378 427 433 q 418 261 420 323 q 415 142 416 198 q 413 40 413 86 q 411 -25 412 -4 q 238 -43 323 -43 q 56 -33 154 -44 q 56 170 54 54 q 62 416 58 287 q 72 674 66 544 q 86 917 79 804 q 99 1117 93 1030 q 109 1244 105 1204 q 201 1266 148 1255 q 311 1284 254 1277 q 423 1298 368 1291 q 525 1306 479 1304 q 604 1308 572 1308 q 645 1305 637 1308 q 711 1089 680 1198 q 786 879 741 980 q 813 851 794 861 q 851 855 833 841 q 875 893 859 862 q 911 970 891 925 q 952 1070 930 1016 q 993 1174 973 1125 q 1027 1263 1012 1223 q 1047 1319 1041 1302 q 1159 1334 1088 1329 q 1309 1341 1230 1340 q 1462 1337 1387 1341 q 1587 1325 1537 1333 q 1611 668 1601 994 q 1640 4 1620 341 "},"C":{"x_min":48.578125,"x_max":1083.8125,"ha":1139,"o":"m 1083 283 q 1081 200 1084 248 q 1071 109 1077 152 q 1054 30 1065 65 q 1030 -15 1044 -4 q 805 -9 923 -13 q 568 6 687 -5 q 334 41 450 18 q 116 104 219 65 q 71 222 87 144 q 50 400 55 301 q 52 609 45 498 q 74 822 58 719 q 115 1014 90 926 q 173 1158 141 1102 q 286 1203 213 1182 q 449 1242 359 1225 q 634 1273 538 1259 q 815 1291 730 1286 q 964 1293 900 1295 q 1055 1277 1029 1291 q 1061 1229 1058 1259 q 1065 1159 1063 1198 q 1064 1077 1066 1120 q 1055 987 1062 1033 q 920 978 983 982 q 798 970 857 975 q 685 953 740 965 q 575 916 630 941 q 545 777 559 857 q 523 618 530 698 q 521 466 516 537 q 548 352 526 395 q 616 326 572 336 q 715 311 661 316 q 827 304 769 306 q 937 300 886 301 q 1027 295 988 298 q 1083 283 1066 291 "},"œ":{"x_min":55.5625,"x_max":1853.71875,"ha":1931,"o":"m 1852 419 q 1729 404 1808 412 q 1555 388 1650 395 q 1362 376 1461 381 q 1179 368 1263 370 q 1187 322 1182 343 q 1202 286 1193 301 q 1266 263 1223 273 q 1362 246 1309 252 q 1473 234 1415 240 q 1581 225 1530 229 q 1670 216 1632 220 q 1722 206 1708 212 q 1720 139 1723 177 q 1711 66 1718 101 q 1696 4 1705 31 q 1675 -31 1687 -23 q 1521 -27 1602 -31 q 1355 -15 1440 -23 q 1185 4 1270 -8 q 1018 33 1100 16 l 993 2 q 825 -14 926 -8 q 614 -20 725 -20 q 395 -16 504 -20 q 205 -1 287 -12 q 165 45 187 16 q 123 108 144 75 q 84 175 102 141 q 56 233 66 208 q 55 374 55 295 q 55 531 55 452 q 57 684 55 609 q 62 812 59 758 q 105 858 79 829 q 160 918 131 887 q 215 974 188 948 q 259 1009 241 1000 q 413 1022 323 1015 q 599 1033 502 1029 q 789 1036 695 1037 q 955 1020 883 1034 q 982 999 969 1011 q 1007 975 994 987 q 1138 998 1066 987 q 1284 1018 1209 1009 q 1429 1032 1358 1026 q 1562 1039 1501 1037 q 1668 1038 1623 1041 q 1732 1026 1712 1034 q 1789 898 1765 970 q 1827 746 1812 826 q 1848 582 1841 666 q 1852 419 1855 498 m 1444 611 q 1443 693 1447 650 q 1422 769 1440 736 q 1377 767 1398 768 q 1332 763 1355 766 q 1284 755 1309 761 q 1226 736 1258 750 q 1203 664 1215 695 q 1184 579 1191 633 q 1328 587 1261 576 q 1444 611 1395 598 m 741 273 q 747 504 744 376 q 733 765 750 632 q 664 761 697 762 q 602 759 632 761 q 543 750 572 757 q 483 729 513 743 q 472 680 476 716 q 467 597 469 644 q 465 495 465 550 q 465 391 465 441 q 466 302 465 341 q 468 243 468 262 q 535 226 497 229 q 612 227 573 223 q 686 244 651 231 q 741 273 720 256 "},"!":{"x_min":75.828125,"x_max":541.703125,"ha":614,"o":"m 541 1301 q 502 1036 520 1166 q 468 794 483 905 q 441 598 452 683 q 425 469 430 513 q 364 459 405 463 q 279 450 323 454 q 195 444 234 445 q 138 447 155 443 q 127 884 125 668 q 130 1314 130 1101 q 345 1331 238 1327 q 541 1301 452 1334 m 465 8 q 426 -22 455 -8 q 357 -46 397 -37 q 274 -59 318 -55 q 190 -63 230 -63 q 123 -54 151 -62 q 87 -31 95 -47 q 77 6 79 -16 q 76 58 75 30 q 81 111 77 86 q 87 154 84 137 q 114 198 91 179 q 166 230 137 218 q 225 250 195 243 q 272 261 254 258 q 310 261 288 263 q 354 254 331 259 q 397 242 376 250 q 433 226 419 234 q 462 120 452 176 q 465 8 472 63 "},"ç":{"x_min":42.59375,"x_max":964.890625,"ha":1025,"o":"m 955 88 q 863 81 923 81 q 729 83 804 80 q 716 -27 726 23 q 684 -104 705 -79 q 580 -130 638 -120 q 461 -144 522 -140 q 340 -150 400 -148 q 233 -151 280 -151 q 222 -130 227 -145 q 214 -95 218 -115 q 210 -54 211 -75 q 209 -18 209 -33 q 270 -12 237 -15 q 334 -4 302 -9 q 391 6 365 0 q 433 23 418 13 q 445 59 441 37 q 452 106 450 80 q 344 122 397 113 q 245 140 291 130 q 163 160 200 150 q 105 181 127 170 q 61 288 76 223 q 43 429 47 354 q 47 585 40 505 q 69 736 54 665 q 106 866 84 808 q 152 955 127 925 q 493 1050 315 1025 q 862 1080 670 1076 q 884 1048 873 1072 q 904 994 895 1025 q 917 930 912 963 q 920 868 922 897 q 844 850 900 859 q 725 831 788 841 q 600 806 661 820 q 508 772 540 791 q 479 688 488 740 q 470 579 470 637 q 479 462 470 520 q 501 356 487 404 q 602 331 550 338 q 713 320 655 323 q 831 316 770 318 q 955 309 891 315 q 963 241 962 275 q 964 179 965 208 q 961 127 963 150 q 955 88 958 104 "},"È":{"x_min":48.609375,"x_max":1103.78125,"ha":1178,"o":"m 1100 937 q 889 937 994 934 q 679 929 784 940 q 660 884 668 915 q 650 819 652 854 q 652 750 648 784 q 665 694 655 716 q 694 693 669 693 q 756 693 719 693 q 836 695 793 694 q 921 695 880 695 q 998 694 962 695 q 1051 690 1033 693 q 1059 593 1057 645 q 1055 495 1062 541 q 958 491 1008 491 q 858 490 908 490 q 759 487 808 490 q 662 476 709 484 q 649 427 652 459 q 647 361 645 395 q 652 296 648 327 q 659 244 655 265 q 746 234 690 234 q 866 234 802 233 q 990 236 929 234 q 1090 233 1051 237 q 1101 113 1100 177 q 1086 -8 1102 48 q 863 -24 972 -18 q 642 -31 754 -30 q 413 -27 530 -31 q 169 -8 297 -22 q 156 212 159 95 q 152 450 152 329 q 153 693 151 570 q 158 927 155 815 q 103 928 134 927 q 48 929 72 929 q 59 1046 51 986 q 81 1158 68 1107 q 238 1180 154 1170 q 411 1194 322 1190 q 593 1198 501 1198 q 772 1197 684 1198 q 941 1193 861 1195 q 1088 1187 1022 1191 q 1100 1135 1097 1168 q 1103 1066 1102 1102 q 1102 995 1104 1029 q 1100 937 1101 961 m 319 1520 q 473 1578 390 1558 q 650 1600 556 1598 q 670 1536 658 1573 q 700 1455 683 1498 q 736 1369 716 1412 q 782 1290 757 1326 q 734 1273 759 1279 q 681 1260 708 1266 q 627 1251 654 1254 q 579 1245 601 1248 q 447 1368 513 1291 q 319 1520 381 1444 "},"ﬁ":{"x_min":73.0625,"x_max":1535.3125,"ha":1611,"o":"m 1050 1111 q 888 1087 972 1105 q 741 1027 805 1069 q 720 967 729 1005 q 707 847 712 929 q 779 838 745 840 q 844 837 812 837 q 909 838 876 837 q 976 836 941 838 q 987 772 984 800 q 989 716 990 744 q 983 661 988 688 q 969 598 977 633 q 889 589 919 591 q 833 584 859 587 q 777 577 807 581 q 697 563 747 573 q 695 412 695 494 q 695 254 695 330 q 696 113 695 177 q 698 15 697 48 q 601 0 654 5 q 495 -8 548 -5 q 392 -10 441 -11 q 305 -4 343 -9 q 300 92 302 31 q 294 227 297 152 q 290 388 291 302 q 288 565 288 475 q 179 559 231 562 q 83 550 126 556 q 74 620 76 583 q 73 695 72 658 q 78 763 75 732 q 86 813 81 794 q 170 818 113 816 q 294 820 227 820 q 302 963 297 895 q 316 1088 308 1032 q 336 1184 325 1144 q 363 1244 348 1223 q 529 1295 454 1277 q 679 1320 605 1312 q 830 1330 752 1329 q 1002 1333 908 1332 q 1024 1300 1015 1325 q 1039 1243 1033 1275 q 1048 1175 1045 1211 q 1050 1111 1051 1138 m 1517 926 q 1515 695 1517 805 q 1508 476 1512 585 q 1499 255 1504 367 q 1487 20 1494 144 q 1428 7 1472 12 q 1333 -1 1383 2 q 1237 -4 1283 -4 q 1171 -3 1190 -4 q 1153 460 1156 223 q 1160 905 1151 698 q 1247 917 1201 913 q 1340 923 1293 921 q 1431 926 1386 926 q 1517 926 1476 926 m 1532 1109 q 1494 1078 1524 1092 q 1425 1056 1464 1064 q 1342 1043 1386 1048 q 1258 1040 1297 1038 q 1191 1048 1219 1042 q 1154 1069 1162 1055 q 1144 1107 1146 1084 q 1143 1157 1142 1131 q 1148 1209 1144 1184 q 1154 1248 1151 1234 q 1181 1291 1158 1273 q 1233 1321 1204 1309 q 1292 1340 1262 1334 q 1340 1351 1322 1346 q 1377 1351 1356 1353 q 1421 1342 1399 1348 q 1465 1330 1443 1337 q 1500 1314 1486 1323 q 1529 1214 1519 1267 q 1532 1109 1539 1162 "},"{":{"x_min":63.890625,"x_max":650.046875,"ha":700,"o":"m 650 1138 q 559 1109 600 1133 q 490 1047 518 1084 q 485 998 479 1033 q 503 920 491 963 q 526 830 515 877 q 533 741 537 783 q 516 705 531 722 q 483 676 501 688 q 436 644 462 659 q 477 587 459 613 q 506 541 493 563 q 519 501 519 518 q 505 405 519 451 q 478 321 491 359 q 457 255 465 283 q 461 212 450 227 q 482 190 468 202 q 516 168 497 179 q 555 150 534 158 q 595 137 576 141 q 575 13 590 70 q 538 -72 559 -44 q 438 -50 493 -65 q 329 -15 383 -36 q 226 27 275 4 q 144 70 177 50 q 119 122 122 84 q 122 211 116 159 q 139 325 129 263 q 155 447 150 386 q 144 503 158 470 q 112 568 130 536 q 63 644 91 604 q 115 691 91 666 q 152 738 134 712 q 172 791 169 763 q 168 907 179 850 q 146 1016 156 963 q 136 1115 136 1069 q 166 1194 137 1161 q 338 1294 227 1263 q 587 1341 448 1325 q 606 1302 595 1326 q 627 1250 618 1277 q 643 1193 637 1222 q 650 1138 650 1163 "},"X":{"x_min":31.953125,"x_max":1291.765625,"ha":1300,"o":"m 1291 1275 q 1192 1092 1241 1177 q 1095 928 1143 1007 q 1002 776 1048 850 q 911 629 955 702 q 994 475 948 559 q 1087 305 1040 391 q 1181 138 1134 219 q 1265 -6 1227 58 q 1149 -19 1213 -12 q 1025 -33 1084 -26 q 920 -43 965 -40 q 863 -43 875 -47 q 821 34 845 -8 q 772 118 797 76 q 725 193 747 159 q 691 245 704 227 q 678 269 687 254 q 654 284 669 284 q 618 264 632 284 q 598 234 605 244 q 514 95 559 170 q 440 -50 469 20 q 304 -56 372 -56 q 181 -54 237 -56 q 86 -46 126 -51 q 31 -38 47 -41 q 91 113 56 31 q 168 282 126 195 q 257 456 211 369 q 351 618 304 543 q 306 695 331 645 q 253 803 281 744 q 197 929 225 862 q 145 1058 169 995 q 102 1176 120 1120 q 73 1269 83 1232 q 163 1281 111 1275 q 272 1293 216 1287 q 381 1302 327 1300 q 473 1301 434 1304 q 510 1223 491 1262 q 546 1148 529 1184 q 577 1082 563 1112 q 600 1033 591 1052 q 607 1018 601 1027 q 622 997 613 1008 q 639 977 630 986 q 655 969 648 969 q 691 988 677 969 q 711 1018 705 1008 q 743 1076 723 1041 q 785 1150 762 1111 q 832 1230 808 1190 q 876 1308 855 1270 q 1012 1311 944 1315 q 1137 1301 1080 1308 q 1235 1286 1194 1294 q 1291 1275 1276 1279 "},"ô":{"x_min":55.5625,"x_max":1160.734375,"ha":1222,"o":"m 1154 208 q 1075 104 1113 158 q 993 1 1037 51 q 825 -16 926 -11 q 614 -22 725 -22 q 395 -18 504 -22 q 205 -4 287 -13 q 165 43 187 13 q 123 105 144 72 q 84 172 102 138 q 56 230 66 205 q 55 372 55 294 q 55 529 55 451 q 57 681 55 608 q 62 811 59 755 q 105 857 79 827 q 160 916 131 886 q 215 971 188 945 q 259 1008 241 997 q 413 1020 323 1012 q 599 1032 502 1027 q 789 1034 695 1036 q 955 1019 883 1033 q 1057 911 1008 977 q 1147 786 1107 844 q 1154 645 1151 729 q 1159 475 1158 561 q 1160 316 1161 388 q 1154 208 1159 243 m 741 270 q 747 502 744 375 q 733 762 750 629 q 664 760 697 761 q 602 757 632 759 q 543 747 572 754 q 483 727 513 741 q 472 678 476 713 q 467 595 469 643 q 465 493 465 547 q 465 388 465 438 q 466 300 465 338 q 468 241 468 261 q 535 224 497 227 q 612 225 573 220 q 686 241 651 229 q 741 270 720 254 m 966 1073 q 900 1068 937 1072 q 829 1060 863 1064 q 769 1055 794 1057 q 737 1055 744 1054 q 713 1096 727 1073 q 684 1141 698 1119 q 658 1180 670 1162 q 638 1207 645 1197 q 631 1219 635 1211 q 617 1228 626 1228 q 597 1217 605 1228 q 585 1203 588 1207 q 538 1129 563 1169 q 495 1050 512 1089 q 418 1047 456 1047 q 348 1048 380 1047 q 293 1053 316 1050 q 262 1057 270 1055 q 296 1138 276 1094 q 340 1228 316 1182 q 391 1319 365 1273 q 444 1404 417 1364 q 516 1409 472 1407 q 608 1412 560 1411 q 699 1412 656 1412 q 763 1411 741 1411 q 810 1328 784 1373 q 864 1239 837 1283 q 917 1151 891 1194 q 966 1073 944 1108 "},"#":{"x_min":68.75,"x_max":942.78125,"ha":1003,"o":"m 937 250 q 887 247 919 248 q 819 241 855 245 q 816 123 818 180 q 813 15 815 66 q 691 0 751 -4 q 570 5 630 4 l 570 226 q 504 223 537 225 q 437 220 470 222 q 434 136 436 176 q 430 54 433 95 q 386 37 419 43 q 313 28 352 31 q 240 25 275 25 q 190 26 205 25 q 186 201 188 109 q 135 195 158 198 q 97 190 112 193 q 88 277 90 230 q 88 368 86 323 q 94 450 90 412 q 104 512 98 487 q 134 513 113 512 q 183 516 154 515 l 183 632 q 122 626 148 629 q 77 620 95 623 q 69 707 70 659 q 69 797 68 754 q 75 878 70 840 q 84 940 79 916 q 122 943 95 941 q 187 948 150 945 q 190 1066 188 1009 q 193 1176 191 1123 q 329 1200 255 1195 q 465 1201 402 1204 q 463 1082 463 1141 q 461 963 463 1023 q 515 966 488 965 q 568 968 541 966 q 570 1092 569 1030 q 575 1216 572 1154 q 621 1234 586 1226 q 697 1245 657 1241 q 774 1249 737 1248 q 826 1247 811 1250 q 828 1115 827 1183 q 830 975 829 1047 q 882 975 858 976 q 916 973 905 975 q 920 909 919 948 q 922 827 922 870 q 922 744 923 783 q 918 680 922 705 q 879 677 902 679 q 829 673 855 675 q 827 609 827 640 q 826 547 827 579 q 893 546 863 547 q 934 543 923 545 q 939 479 937 518 q 942 397 941 440 q 942 314 943 354 q 937 250 941 275 m 568 658 l 454 651 l 450 531 q 509 535 479 533 q 568 538 538 537 l 568 658 "},"Ê":{"x_min":48.609375,"x_max":1103.78125,"ha":1178,"o":"m 1100 937 q 889 937 994 934 q 679 929 784 940 q 660 884 668 915 q 650 819 652 854 q 652 750 648 784 q 665 694 655 716 q 694 693 669 693 q 756 693 719 693 q 836 695 793 694 q 921 695 880 695 q 998 694 962 695 q 1051 690 1033 693 q 1059 593 1057 645 q 1055 495 1062 541 q 958 491 1008 491 q 858 490 908 490 q 759 487 808 490 q 662 476 709 484 q 649 427 652 459 q 647 361 645 395 q 652 296 648 327 q 659 244 655 265 q 746 234 690 234 q 866 234 802 233 q 990 236 929 234 q 1090 233 1051 237 q 1101 113 1100 177 q 1086 -8 1102 48 q 863 -24 972 -18 q 642 -31 754 -30 q 413 -27 530 -31 q 169 -8 297 -22 q 156 212 159 95 q 152 450 152 329 q 153 693 151 570 q 158 927 155 815 q 103 928 134 927 q 48 929 72 929 q 59 1046 51 986 q 81 1158 68 1107 q 238 1180 154 1170 q 411 1194 322 1190 q 593 1198 501 1198 q 772 1197 684 1198 q 941 1193 861 1195 q 1088 1187 1022 1191 q 1100 1135 1097 1168 q 1103 1066 1102 1102 q 1102 995 1104 1029 q 1100 937 1101 961 m 975 1268 q 909 1262 945 1266 q 838 1254 872 1258 q 778 1250 804 1251 q 745 1250 752 1248 q 722 1290 736 1268 q 694 1334 708 1312 q 668 1375 680 1357 q 648 1402 655 1393 q 640 1415 645 1407 q 626 1423 634 1423 q 606 1412 613 1423 q 594 1395 598 1401 q 546 1323 572 1362 q 504 1245 520 1284 q 427 1242 465 1243 q 356 1243 388 1241 q 302 1248 325 1244 q 270 1252 279 1251 q 304 1333 284 1290 q 349 1422 325 1376 q 400 1514 373 1468 q 454 1600 427 1559 q 525 1604 480 1602 q 618 1607 570 1607 q 709 1607 666 1608 q 773 1604 751 1607 q 820 1523 794 1568 q 874 1432 847 1477 q 927 1345 901 1387 q 975 1268 952 1302 "},")":{"x_min":58.34375,"x_max":631.359375,"ha":700,"o":"m 58 161 q 143 186 108 168 q 213 227 177 204 q 234 335 225 266 q 252 486 244 404 q 263 657 259 569 q 266 825 268 745 q 258 965 265 904 q 236 1054 251 1026 q 186 1088 216 1068 q 116 1112 155 1108 q 136 1241 120 1179 q 172 1332 151 1302 q 268 1310 218 1325 q 368 1277 319 1295 q 465 1239 418 1259 q 552 1204 512 1219 q 600 1081 581 1166 q 625 886 618 995 q 630 655 633 777 q 615 418 627 533 q 579 210 602 304 q 523 62 556 116 q 356 -9 465 29 q 109 -65 248 -47 q 91 -22 101 -50 q 75 37 81 4 q 63 103 68 70 q 58 161 58 136 "},"Å":{"x_min":4.171875,"x_max":1398.71875,"ha":1410,"o":"m 1398 2 q 1288 -11 1345 -5 q 1175 -19 1232 -16 q 1067 -22 1119 -22 q 973 -22 1015 -23 q 954 33 962 9 q 939 77 945 56 q 927 122 933 98 q 913 177 920 145 q 802 185 865 183 q 676 186 738 187 q 558 180 613 184 q 466 168 502 176 q 442 121 452 141 q 424 81 431 101 q 410 38 416 61 q 395 -15 404 15 q 304 -27 356 -23 q 196 -31 251 -31 q 90 -27 141 -31 q 4 -18 40 -23 q 50 179 16 62 q 127 424 83 295 q 219 682 170 552 q 311 919 268 812 q 272 925 290 920 q 241 931 256 927 q 218 937 226 934 q 231 990 225 961 q 246 1048 238 1019 q 262 1103 254 1077 q 280 1148 270 1129 q 391 1166 323 1158 q 541 1177 459 1173 q 709 1183 622 1182 q 879 1182 797 1184 q 1034 1173 962 1179 q 1154 1157 1105 1168 q 1220 876 1187 1015 q 1285 597 1254 737 q 1345 309 1316 456 q 1398 2 1375 162 m 844 476 q 832 570 840 518 q 812 675 823 623 q 788 772 801 726 q 761 848 775 818 q 722 881 744 884 q 686 848 701 877 q 671 813 682 841 q 647 747 661 784 q 620 666 634 709 q 593 584 605 623 q 575 515 581 544 q 568 476 568 486 q 632 469 591 470 q 716 468 673 468 q 794 470 758 468 q 844 476 830 473 m 1091 1283 q 1015 1255 1066 1266 q 900 1238 963 1244 q 766 1233 836 1233 q 631 1238 695 1233 q 518 1256 568 1244 q 443 1284 468 1268 q 434 1338 437 1307 q 431 1405 431 1370 q 433 1470 431 1440 q 437 1519 434 1501 q 519 1544 466 1534 q 635 1560 572 1554 q 767 1566 698 1566 q 897 1561 836 1566 q 1008 1545 959 1557 q 1080 1518 1057 1534 q 1089 1466 1086 1501 q 1094 1394 1093 1432 q 1095 1325 1095 1357 q 1091 1283 1094 1293 m 847 1341 q 849 1400 847 1375 q 838 1457 851 1426 q 762 1459 807 1457 q 682 1454 718 1461 q 670 1396 669 1419 q 676 1337 672 1373 q 718 1335 694 1336 q 766 1334 741 1334 q 811 1335 790 1334 q 847 1341 833 1336 "},"Δ":{"x_min":26.390625,"x_max":1232.046875,"ha":1275,"o":"m 1232 6 q 1068 -6 1161 0 q 869 -18 975 -13 q 651 -23 763 -22 q 428 -23 538 -25 q 215 -15 318 -22 q 26 0 112 -9 q 90 196 56 86 q 161 425 125 306 q 233 667 197 544 q 302 903 269 790 q 366 1115 336 1016 q 418 1284 395 1213 q 629 1290 519 1290 q 840 1276 738 1290 q 914 1091 876 1193 q 989 878 952 990 q 1061 650 1026 766 q 1127 419 1095 533 q 1185 200 1158 305 q 1232 6 1212 94 m 754 305 q 708 461 730 384 q 663 616 686 538 q 656 638 661 625 q 644 665 651 652 q 628 686 637 677 q 608 694 619 694 q 595 687 601 694 q 584 670 588 680 q 575 649 579 659 q 570 632 572 638 q 557 580 566 613 q 536 502 548 547 q 511 406 525 458 q 481 301 497 355 q 618 304 548 302 q 754 305 687 305 "},"ø":{"x_min":55.5625,"x_max":1160.734375,"ha":1222,"o":"m 1154 225 q 1075 121 1113 175 q 993 18 1037 68 q 904 6 955 11 q 797 0 854 2 q 677 -3 740 -2 q 551 -4 613 -4 q 531 -52 540 -29 q 512 -98 522 -75 q 413 -105 462 -105 q 324 -102 365 -105 q 254 -95 283 -100 q 213 -87 225 -90 q 232 -39 223 -63 q 250 8 241 -15 q 227 10 238 9 q 205 12 216 11 q 165 59 187 30 q 123 122 144 88 q 84 188 102 155 q 56 247 66 222 q 55 389 55 311 q 55 546 55 468 q 57 698 55 625 q 62 827 59 772 q 105 873 79 844 q 160 932 131 902 q 215 988 188 962 q 259 1025 241 1013 q 354 1032 301 1027 q 468 1041 408 1037 q 593 1048 529 1045 q 719 1051 657 1051 q 749 1107 734 1079 q 780 1163 763 1136 q 879 1166 830 1169 q 970 1158 929 1163 q 1042 1145 1012 1152 q 1083 1133 1072 1137 q 1044 1063 1063 1100 q 1005 988 1025 1027 q 1081 896 1045 947 q 1147 802 1116 845 q 1154 661 1151 745 q 1159 491 1158 577 q 1160 332 1161 405 q 1154 225 1159 259 m 575 769 q 483 744 529 763 q 475 714 479 734 q 470 666 472 694 q 466 603 468 637 q 465 533 465 569 q 520 652 493 594 q 575 769 547 711 m 747 452 q 701 351 723 401 q 658 250 679 301 q 704 265 683 255 q 741 287 726 275 q 744 368 743 326 q 747 452 745 409 "},"â":{"x_min":43.0625,"x_max":1095.359375,"ha":1158,"o":"m 1086 30 q 965 4 1037 16 q 809 -17 893 -8 q 636 -32 726 -26 q 464 -40 547 -38 q 311 -39 381 -43 q 195 -27 241 -36 q 154 28 177 -2 q 110 93 131 59 q 70 158 88 126 q 43 215 52 190 q 68 394 45 305 q 122 544 90 483 q 217 584 155 565 q 354 620 279 602 q 511 654 429 638 q 668 682 593 669 q 659 720 663 698 q 651 750 655 741 q 562 779 619 769 q 438 791 505 788 q 301 793 370 794 q 176 793 231 793 q 177 864 175 826 q 186 938 180 902 q 202 1000 193 973 q 223 1040 211 1027 q 417 1055 318 1050 q 616 1058 516 1061 q 813 1041 716 1055 q 1001 1002 911 1027 q 1045 902 1027 969 q 1073 747 1062 834 q 1089 559 1084 659 q 1095 363 1094 459 q 1093 179 1095 266 q 1086 30 1090 91 m 697 215 q 695 334 695 277 q 691 451 694 391 q 585 434 636 440 q 483 402 534 427 q 469 360 473 384 q 466 310 465 336 q 472 259 468 284 q 484 215 477 234 q 569 204 516 201 q 697 215 622 208 m 986 1101 q 920 1096 957 1100 q 849 1088 883 1092 q 789 1083 814 1085 q 757 1083 764 1082 q 733 1124 747 1101 q 704 1169 718 1147 q 678 1208 690 1190 q 658 1235 665 1225 q 651 1247 655 1239 q 637 1256 646 1256 q 617 1245 625 1256 q 605 1231 608 1235 q 558 1157 583 1197 q 515 1078 532 1117 q 438 1075 476 1075 q 368 1076 400 1075 q 313 1081 336 1078 q 282 1085 290 1083 q 316 1166 296 1122 q 360 1256 336 1210 q 411 1347 385 1301 q 464 1432 437 1392 q 536 1437 492 1435 q 628 1440 580 1439 q 719 1440 676 1440 q 783 1439 761 1439 q 830 1356 804 1401 q 884 1267 857 1311 q 937 1179 911 1222 q 986 1101 964 1136 "},"}":{"x_min":54.171875,"x_max":640.328125,"ha":700,"o":"m 54 143 q 145 174 104 150 q 213 234 187 198 q 218 284 225 250 q 200 362 212 318 q 177 454 188 406 q 170 541 166 501 q 188 577 173 559 q 222 608 204 594 q 269 638 243 625 q 227 694 245 668 q 198 742 212 718 q 184 782 184 766 q 199 877 186 832 q 226 961 212 923 q 247 1027 240 1000 q 243 1069 254 1055 q 221 1091 236 1080 q 188 1113 206 1102 q 149 1134 169 1125 q 109 1144 129 1143 q 129 1268 113 1211 q 165 1355 144 1326 q 265 1333 211 1348 q 375 1298 320 1318 q 477 1255 429 1277 q 559 1211 526 1233 q 585 1161 581 1198 q 582 1070 588 1123 q 566 957 576 1018 q 548 834 555 897 q 560 780 545 813 q 593 715 575 747 q 640 638 613 677 q 588 591 612 616 q 552 543 569 569 q 531 491 534 518 q 536 377 526 434 q 557 266 547 319 q 567 168 568 213 q 537 88 566 122 q 463 29 506 52 q 366 -10 420 5 q 249 -37 312 -26 q 116 -58 186 -48 q 97 -18 108 -43 q 76 32 86 5 q 60 88 66 59 q 54 143 54 118 "},"‰":{"x_min":68.0625,"x_max":1774.671875,"ha":1847,"o":"m 1770 66 q 1675 -2 1741 23 q 1529 -37 1608 -29 q 1369 -35 1450 -45 q 1229 2 1288 -25 q 1088 -27 1166 -20 q 934 -25 1009 -34 q 798 9 859 -16 q 709 77 737 34 q 703 188 705 120 q 700 327 701 256 q 607 136 652 231 q 519 -50 562 41 q 397 -56 458 -56 q 287 -54 337 -56 q 201 -46 237 -51 q 151 -38 165 -41 q 309 313 234 152 q 458 620 383 475 q 343 620 401 616 q 232 636 284 623 q 139 672 180 650 q 77 727 98 694 q 70 841 73 773 q 68 981 68 909 q 69 1118 68 1052 q 73 1223 70 1184 q 152 1276 102 1254 q 263 1309 202 1298 q 389 1322 323 1320 q 513 1312 455 1323 q 619 1277 572 1301 q 688 1218 666 1254 q 694 1152 691 1194 q 700 1062 697 1111 q 772 1184 736 1123 q 848 1308 808 1244 q 972 1311 911 1315 q 1084 1301 1033 1308 q 1173 1286 1136 1294 q 1223 1275 1209 1279 q 1044 978 1134 1136 q 865 652 954 820 q 966 670 913 665 q 1069 671 1018 675 q 1168 657 1120 668 q 1251 627 1215 645 q 1391 659 1314 651 q 1541 659 1468 666 q 1673 627 1614 651 q 1759 559 1733 602 q 1768 450 1765 523 q 1773 297 1772 376 q 1774 153 1775 219 q 1770 66 1773 87 m 1536 190 q 1539 312 1537 256 q 1529 431 1541 368 q 1495 433 1514 431 q 1456 436 1476 434 q 1416 436 1436 437 q 1379 426 1395 434 q 1370 361 1373 390 q 1368 305 1368 333 q 1369 248 1368 277 q 1372 181 1370 219 q 1413 175 1390 177 q 1459 173 1436 173 q 1502 176 1482 173 q 1536 190 1523 179 m 1097 200 q 1099 322 1097 266 q 1090 441 1101 377 q 1016 445 1059 441 q 940 436 973 450 q 932 370 934 400 q 929 313 929 341 q 930 256 929 286 q 933 191 932 227 q 974 185 951 187 q 1020 183 997 183 q 1063 186 1043 183 q 1097 200 1084 190 m 465 848 q 467 971 465 916 q 458 1090 469 1026 q 424 1092 443 1090 q 385 1095 405 1094 q 345 1094 365 1095 q 308 1084 325 1093 q 300 1020 302 1048 q 297 963 297 991 q 298 907 297 936 q 301 841 300 877 q 342 835 319 837 q 388 833 365 833 q 431 836 411 833 q 465 848 452 840 "},"Ä":{"x_min":4.171875,"x_max":1398.71875,"ha":1410,"o":"m 1398 2 q 1288 -11 1345 -5 q 1175 -19 1232 -16 q 1067 -22 1119 -22 q 973 -22 1015 -23 q 954 33 962 9 q 939 77 945 56 q 927 122 933 98 q 913 177 920 145 q 802 185 865 183 q 676 186 738 187 q 558 180 613 184 q 466 168 502 176 q 442 121 452 141 q 424 81 431 101 q 410 38 416 61 q 395 -15 404 15 q 304 -27 356 -23 q 196 -31 251 -31 q 90 -27 141 -31 q 4 -18 40 -23 q 50 179 16 62 q 127 424 83 295 q 219 682 170 552 q 311 919 268 812 q 272 925 290 920 q 241 931 256 927 q 218 937 226 934 q 231 990 225 961 q 246 1048 238 1019 q 262 1103 254 1077 q 280 1148 270 1129 q 391 1166 323 1158 q 541 1177 459 1173 q 709 1183 622 1182 q 879 1182 797 1184 q 1034 1173 962 1179 q 1154 1157 1105 1168 q 1220 876 1187 1015 q 1285 597 1254 737 q 1345 309 1316 456 q 1398 2 1375 162 m 844 476 q 832 570 840 518 q 812 675 823 623 q 788 772 801 726 q 761 848 775 818 q 722 881 744 884 q 686 848 701 877 q 671 813 682 841 q 647 747 661 784 q 620 666 634 709 q 593 584 605 623 q 575 515 581 544 q 568 476 568 486 q 632 469 591 470 q 716 468 673 468 q 794 470 758 468 q 844 476 830 473 m 1147 1320 q 1119 1288 1140 1302 q 1069 1264 1098 1275 q 1008 1249 1040 1254 q 947 1246 976 1244 q 898 1255 919 1248 q 872 1277 877 1262 q 865 1319 866 1293 q 864 1375 863 1345 q 868 1432 865 1404 q 872 1477 870 1461 q 892 1525 876 1507 q 929 1557 908 1544 q 971 1579 950 1570 q 1007 1591 993 1587 q 1034 1592 1018 1594 q 1066 1584 1050 1590 q 1098 1569 1083 1577 q 1123 1552 1113 1561 q 1145 1441 1138 1500 q 1147 1320 1152 1382 m 718 1309 q 687 1275 711 1291 q 633 1250 663 1259 q 567 1234 602 1240 q 501 1230 531 1229 q 448 1240 470 1232 q 419 1265 426 1248 q 411 1309 413 1282 q 410 1367 409 1336 q 413 1427 411 1398 q 419 1475 416 1457 q 441 1525 423 1504 q 481 1560 458 1545 q 527 1583 504 1575 q 566 1594 551 1591 q 596 1595 579 1598 q 631 1586 613 1593 q 665 1570 648 1579 q 693 1554 682 1562 q 716 1436 708 1498 q 718 1309 725 1373 "},"¸":{"x_min":231.96875,"x_max":811.953125,"ha":1125,"o":"m 807 362 q 811 241 811 311 q 808 103 812 172 q 792 -25 804 34 q 759 -113 780 -84 q 644 -145 709 -134 q 511 -162 579 -156 q 377 -169 443 -168 q 258 -170 311 -170 q 246 -145 251 -165 q 238 -101 241 -126 q 233 -50 234 -76 q 231 -5 231 -23 q 298 1 262 -2 q 369 10 334 5 q 433 23 404 15 q 480 45 462 31 q 497 104 491 68 q 504 185 502 140 q 506 280 506 230 q 504 377 505 330 q 571 381 529 381 q 659 379 613 381 q 745 370 705 376 q 807 362 786 365 "},"a":{"x_min":43.0625,"x_max":1095.359375,"ha":1158,"o":"m 1086 30 q 965 4 1037 16 q 809 -17 893 -8 q 636 -32 726 -26 q 464 -40 547 -38 q 311 -39 381 -43 q 195 -27 241 -36 q 154 28 177 -2 q 110 93 131 59 q 70 158 88 126 q 43 215 52 190 q 68 394 45 305 q 122 544 90 483 q 217 584 155 565 q 354 620 279 602 q 511 654 429 638 q 668 682 593 669 q 659 720 663 698 q 651 750 655 741 q 562 779 619 769 q 438 791 505 788 q 301 793 370 794 q 176 793 231 793 q 177 864 175 826 q 186 938 180 902 q 202 1000 193 973 q 223 1040 211 1027 q 417 1055 318 1050 q 616 1058 516 1061 q 813 1041 716 1055 q 1001 1002 911 1027 q 1045 902 1027 969 q 1073 747 1062 834 q 1089 559 1084 659 q 1095 363 1094 459 q 1093 179 1095 266 q 1086 30 1090 91 m 697 215 q 695 334 695 277 q 691 451 694 391 q 585 434 636 440 q 483 402 534 427 q 469 360 473 384 q 466 310 465 336 q 472 259 468 284 q 484 215 477 234 q 569 204 516 201 q 697 215 622 208 "},"—":{"x_min":76.390625,"x_max":891.203125,"ha":967,"o":"m 883 369 q 689 361 788 363 q 489 356 590 359 q 290 350 388 354 q 97 337 191 347 q 79 425 83 379 q 77 517 75 472 q 86 600 79 562 q 102 663 93 638 q 204 668 141 665 q 340 671 266 670 q 492 672 413 672 q 643 673 570 673 q 775 672 715 673 q 873 668 836 670 q 883 602 879 643 q 889 517 887 561 q 891 434 891 473 q 883 369 890 394 "},"=":{"x_min":73.0625,"x_max":480.25,"ha":556,"o":"m 476 180 q 379 172 429 175 q 279 168 329 169 q 179 162 229 166 q 83 150 130 158 q 74 235 76 190 q 73 323 72 280 q 78 404 75 366 q 86 465 81 441 q 168 470 115 468 q 280 475 222 473 q 391 475 338 476 q 472 468 444 473 q 477 405 475 444 q 479 324 479 366 q 479 242 480 281 q 476 180 479 202 m 476 619 q 379 612 429 615 q 279 608 329 609 q 179 602 229 607 q 83 590 130 598 q 74 675 76 630 q 73 763 72 719 q 78 844 75 807 q 86 905 81 882 q 168 911 115 908 q 280 915 222 913 q 391 915 338 916 q 472 908 444 913 q 477 845 475 884 q 479 764 479 807 q 479 682 480 722 q 476 619 479 643 "},"N":{"x_min":80.5625,"x_max":1343.625,"ha":1436,"o":"m 1341 1270 q 1343 657 1344 965 q 1333 44 1341 348 q 1227 29 1288 37 q 1093 14 1165 22 q 944 1 1022 6 q 790 -5 866 -4 q 653 254 715 119 q 538 531 591 390 q 519 554 533 547 q 491 559 505 562 q 466 544 477 556 q 452 506 455 531 q 444 8 431 302 q 277 -18 361 -13 q 101 -4 193 -22 q 91 138 95 48 q 84 337 87 227 q 81 569 81 447 q 80 811 80 691 q 82 1039 80 930 q 87 1230 84 1148 q 135 1247 95 1238 q 232 1263 175 1255 q 358 1279 290 1272 q 489 1288 426 1286 q 604 1293 552 1291 q 682 1288 657 1294 q 781 1011 726 1147 q 890 740 836 875 q 906 721 895 729 q 929 715 916 713 q 952 728 941 716 q 969 765 963 740 q 972 799 970 770 q 974 870 973 827 q 977 966 975 913 q 979 1070 979 1019 q 982 1167 980 1122 q 984 1241 983 1212 q 1341 1270 1162 1287 "},"˚":{"x_min":68.0625,"x_max":731.53125,"ha":761,"o":"m 727 863 q 651 836 702 847 q 536 819 600 825 q 402 813 472 813 q 268 819 331 813 q 153 836 204 825 q 77 865 102 848 q 70 920 73 887 q 68 986 68 952 q 69 1051 68 1020 q 73 1100 70 1082 q 155 1126 102 1115 q 271 1142 208 1137 q 403 1148 334 1147 q 534 1143 472 1148 q 644 1126 595 1137 q 716 1098 693 1115 q 725 1047 722 1082 q 730 975 729 1012 q 731 905 732 937 q 727 863 730 873 m 483 923 q 485 981 483 955 q 475 1037 487 1007 q 398 1039 443 1037 q 318 1036 354 1041 q 306 977 305 1000 q 312 919 308 954 q 354 916 330 916 q 402 915 377 915 q 447 917 426 915 q 483 923 469 919 "},"ú":{"x_min":74.0625,"x_max":1141.765625,"ha":1206,"o":"m 1141 1007 q 1137 819 1140 920 q 1133 614 1134 718 q 1132 414 1132 511 q 1134 241 1132 318 q 1109 186 1126 216 q 1069 125 1091 156 q 1023 63 1047 93 q 979 9 1000 33 q 813 4 908 8 q 617 -3 719 0 q 414 -6 515 -6 q 229 0 313 -6 q 190 45 212 16 q 146 105 168 73 q 107 169 125 137 q 81 225 90 201 q 80 329 81 266 q 77 463 79 391 q 75 611 76 536 q 74 757 73 687 q 77 886 75 827 q 84 979 79 944 q 278 993 184 991 q 479 983 372 995 q 468 783 470 876 q 466 604 465 690 q 470 441 466 519 q 480 284 475 362 q 541 270 505 275 q 614 268 577 266 q 685 281 651 270 q 741 311 719 293 q 740 479 741 391 q 738 654 738 566 q 737 827 737 743 q 738 984 737 912 q 938 1004 838 1004 q 1141 1007 1037 1004 m 944 1249 q 815 1095 881 1172 q 684 974 749 1018 q 581 987 638 976 q 481 1015 524 997 q 525 1095 505 1051 q 562 1181 545 1139 q 591 1262 578 1224 q 612 1325 603 1300 q 790 1305 706 1325 q 944 1249 873 1285 "},"⁄":{"x_min":27.78125,"x_max":1100.09375,"ha":1122,"o":"m 1100 1275 q 916 970 1008 1133 q 733 636 823 808 q 557 290 643 465 q 395 -50 472 115 q 274 -56 334 -56 q 163 -54 213 -56 q 77 -46 113 -51 q 27 -38 41 -41 q 202 347 119 170 q 367 684 284 525 q 537 996 450 844 q 726 1308 625 1148 q 848 1311 787 1315 q 961 1301 909 1308 q 1049 1286 1012 1294 q 1100 1275 1086 1279 "},"2":{"x_min":49.65625,"x_max":1000.078125,"ha":1056,"o":"m 1000 732 q 899 646 957 690 q 775 559 841 602 q 635 470 708 515 q 487 383 562 426 q 479 368 481 379 q 479 343 477 356 q 486 318 481 329 q 497 304 491 308 q 545 293 511 298 q 624 285 579 287 q 722 281 669 283 q 825 279 775 279 q 920 280 876 279 q 994 281 965 281 q 995 227 995 261 q 990 154 994 193 q 979 79 986 116 q 961 18 972 43 q 745 0 863 9 q 504 -12 626 -8 q 269 -11 383 -16 q 68 15 155 -6 q 56 127 62 61 q 50 267 51 194 q 52 413 48 340 q 70 545 56 486 q 211 636 131 586 q 368 732 290 686 q 511 818 445 779 q 609 875 576 858 q 616 952 620 920 q 591 1007 611 983 q 475 1007 544 1009 q 331 999 405 1004 q 189 988 258 994 q 75 976 120 982 q 79 1045 76 1007 q 88 1121 83 1083 q 102 1194 94 1159 q 119 1252 109 1229 q 226 1276 162 1265 q 363 1295 290 1287 q 513 1310 436 1304 q 661 1317 590 1316 q 793 1315 733 1318 q 893 1304 854 1312 q 950 1174 929 1241 q 983 1034 972 1107 q 997 886 994 962 q 1000 732 1000 811 "},"ü":{"x_min":74.0625,"x_max":1141.765625,"ha":1206,"o":"m 1141 1007 q 1137 819 1140 920 q 1133 614 1134 718 q 1132 414 1132 511 q 1134 241 1132 318 q 1109 186 1126 216 q 1069 125 1091 156 q 1023 63 1047 93 q 979 9 1000 33 q 813 4 908 8 q 617 -3 719 0 q 414 -6 515 -6 q 229 0 313 -6 q 190 45 212 16 q 146 105 168 73 q 107 169 125 137 q 81 225 90 201 q 80 329 81 266 q 77 463 79 391 q 75 611 76 536 q 74 757 73 687 q 77 886 75 827 q 84 979 79 944 q 278 993 184 991 q 479 983 372 995 q 468 783 470 876 q 466 604 465 690 q 470 441 466 519 q 480 284 475 362 q 541 270 505 275 q 614 268 577 266 q 685 281 651 270 q 741 311 719 293 q 740 479 741 391 q 738 654 738 566 q 737 827 737 743 q 738 984 737 912 q 938 1004 838 1004 q 1141 1007 1037 1004 m 977 1103 q 926 1057 967 1076 q 838 1031 886 1039 q 751 1030 791 1023 q 702 1061 710 1037 q 695 1103 697 1076 q 695 1157 694 1129 q 698 1214 695 1186 q 702 1260 701 1243 q 722 1308 706 1287 q 759 1341 738 1328 q 801 1362 780 1354 q 837 1373 823 1371 q 896 1366 861 1379 q 954 1336 931 1353 q 976 1222 969 1282 q 977 1103 983 1162 m 548 1093 q 517 1058 541 1073 q 463 1032 494 1043 q 397 1017 433 1022 q 331 1012 362 1011 q 278 1022 301 1014 q 249 1046 255 1030 q 242 1090 244 1062 q 240 1149 240 1118 q 244 1210 241 1180 q 249 1257 247 1239 q 271 1307 254 1286 q 311 1342 288 1328 q 358 1365 334 1357 q 397 1378 381 1373 q 426 1378 409 1380 q 461 1369 444 1376 q 495 1354 479 1362 q 523 1337 512 1346 q 547 1218 538 1280 q 548 1093 555 1155 "},"Z":{"x_min":51.390625,"x_max":990.203125,"ha":1056,"o":"m 987 243 q 986 113 993 179 q 966 -18 980 48 q 743 -40 858 -34 q 516 -45 629 -45 q 298 -41 404 -45 q 102 -31 193 -37 q 81 40 91 1 q 63 120 70 80 q 52 195 55 159 q 52 256 50 231 q 184 461 115 351 q 320 676 254 570 q 441 876 386 782 q 526 1032 495 970 q 418 1034 473 1036 q 306 1030 362 1032 q 196 1030 251 1029 q 90 1043 141 1032 q 68 1173 72 1107 q 66 1311 63 1238 q 241 1325 134 1314 q 471 1341 348 1336 q 722 1342 594 1347 q 962 1307 851 1337 q 966 1236 963 1276 q 970 1156 969 1197 q 971 1076 972 1115 q 965 1005 970 1037 q 855 791 911 888 q 744 603 800 693 q 633 429 688 513 q 523 254 577 344 q 630 247 569 248 q 756 247 691 247 q 881 247 820 247 q 987 243 941 247 "},"u":{"x_min":74.0625,"x_max":1141.765625,"ha":1206,"o":"m 1141 1007 q 1137 819 1140 920 q 1133 614 1134 718 q 1132 414 1132 511 q 1134 241 1132 318 q 1109 186 1126 216 q 1069 125 1091 156 q 1023 63 1047 93 q 979 9 1000 33 q 813 4 908 8 q 617 -3 719 0 q 414 -6 515 -6 q 229 0 313 -6 q 190 45 212 16 q 146 105 168 73 q 107 169 125 137 q 81 225 90 201 q 80 329 81 266 q 77 463 79 391 q 75 611 76 536 q 74 757 73 687 q 77 886 75 827 q 84 979 79 944 q 278 993 184 991 q 479 983 372 995 q 468 783 470 876 q 466 604 465 690 q 470 441 466 519 q 480 284 475 362 q 541 270 505 275 q 614 268 577 266 q 685 281 651 270 q 741 311 719 293 q 740 479 741 391 q 738 654 738 566 q 737 827 737 743 q 738 984 737 912 q 938 1004 838 1004 q 1141 1007 1037 1004 "},"˜":{"x_min":52.78125,"x_max":855.625,"ha":892,"o":"m 855 1004 q 809 946 841 987 q 735 863 776 905 q 651 790 694 820 q 575 761 608 759 q 489 782 537 763 q 396 818 441 800 q 315 849 351 836 q 265 858 279 862 q 220 826 247 851 q 170 775 193 801 q 95 815 126 793 q 52 859 65 837 q 97 930 72 893 q 151 1002 122 968 q 212 1065 180 1037 q 275 1104 244 1093 q 343 1111 306 1118 q 417 1086 379 1104 q 496 1047 455 1069 q 579 1008 537 1025 q 636 1007 608 995 q 688 1037 665 1019 q 740 1091 715 1059 q 806 1055 775 1077 q 855 1004 837 1033 "},"Ó":{"x_min":65.28125,"x_max":1357.90625,"ha":1431,"o":"m 1350 213 q 1257 89 1301 152 q 1161 -31 1213 26 q 1038 -45 1109 -40 q 886 -54 968 -51 q 718 -58 805 -58 q 547 -56 632 -58 q 384 -50 462 -55 q 241 -38 305 -44 q 195 18 220 -16 q 144 93 169 52 q 98 172 119 133 q 66 241 77 211 q 65 409 65 316 q 65 593 65 501 q 68 773 66 686 q 73 926 69 861 q 123 982 93 947 q 187 1052 154 1016 q 252 1119 220 1088 q 304 1159 283 1150 q 418 1170 354 1165 q 553 1180 481 1176 q 701 1188 625 1184 q 851 1192 777 1193 q 993 1187 925 1191 q 1118 1173 1062 1183 q 1179 1116 1148 1148 q 1238 1045 1209 1083 q 1293 970 1266 1008 q 1341 897 1319 932 q 1350 731 1345 830 q 1356 529 1354 632 q 1357 341 1358 427 q 1350 213 1357 255 m 868 277 q 872 407 869 338 q 875 550 875 476 q 871 703 875 625 q 858 859 868 782 q 777 857 815 858 q 704 853 740 857 q 635 842 669 850 q 565 818 601 834 q 552 760 556 802 q 546 661 548 718 q 543 541 544 605 q 543 418 543 476 q 545 312 544 359 q 547 243 547 265 q 625 223 580 227 q 716 225 670 219 q 802 244 762 230 q 868 277 843 258 m 998 1514 q 935 1436 968 1475 q 870 1360 902 1397 q 804 1291 837 1323 q 738 1238 770 1259 q 636 1251 693 1241 q 536 1280 580 1261 q 581 1359 561 1316 q 618 1445 601 1402 q 647 1527 634 1489 q 668 1590 659 1565 q 844 1570 761 1590 q 998 1514 927 1550 "},"k":{"x_min":70,"x_max":1137.59375,"ha":1168,"o":"m 1137 970 q 1081 882 1118 941 q 1002 754 1044 822 q 917 616 959 686 q 845 493 875 545 q 909 370 873 427 q 982 258 944 312 q 1057 150 1019 204 q 1125 36 1094 95 q 1039 14 1091 25 q 933 -2 987 4 q 829 -12 879 -8 q 751 -19 780 -16 q 666 93 707 37 q 593 197 626 150 q 536 282 561 245 q 497 336 512 319 q 476 343 484 343 q 463 338 469 343 q 456 318 456 334 q 457 252 456 291 q 458 169 458 212 q 457 82 458 126 q 454 5 456 38 q 381 -9 434 -4 q 269 -18 329 -15 q 156 -22 209 -22 q 80 -16 102 -22 q 72 154 75 45 q 70 395 69 263 q 72 664 70 526 q 77 924 75 802 q 83 1138 80 1045 q 87 1268 86 1230 q 178 1276 122 1275 q 292 1277 234 1277 q 396 1274 350 1276 q 459 1270 443 1272 q 456 1201 458 1247 q 454 1097 455 1155 q 454 975 454 1038 q 454 852 454 911 q 458 745 455 794 q 465 670 461 697 q 484 651 468 652 q 523 677 500 650 q 575 748 543 704 q 641 843 607 793 q 710 942 676 893 q 768 1026 744 991 q 854 1023 808 1027 q 949 1009 901 1018 q 1045 991 997 1001 q 1137 970 1093 980 "},"ˇ":{"x_min":42.78125,"x_max":1083.421875,"ha":1131,"o":"m 1080 1020 q 1083 962 1083 995 q 1081 895 1083 929 q 1075 832 1079 862 q 1066 783 1070 802 q 992 776 1033 779 q 909 770 951 773 q 827 766 868 768 q 752 762 786 765 q 743 682 747 734 q 736 561 738 629 q 732 418 733 494 q 732 268 732 343 q 732 127 732 194 q 733 12 733 61 q 544 -14 638 0 q 355 -20 450 -29 q 339 186 344 93 q 333 366 334 279 q 333 540 331 452 q 334 729 334 627 q 187 729 263 736 q 44 716 111 723 q 46 851 40 779 q 72 990 52 923 q 139 1004 90 998 q 259 1013 188 1009 q 413 1021 329 1018 q 584 1026 497 1025 q 753 1027 670 1027 q 904 1027 836 1027 q 1019 1026 972 1027 q 1080 1020 1066 1025 "},"Ù":{"x_min":82.296875,"x_max":1268.15625,"ha":1353,"o":"m 1268 1133 q 1263 921 1266 1036 q 1259 691 1261 807 q 1258 466 1258 575 q 1261 272 1258 356 q 1232 209 1251 243 q 1188 140 1212 175 q 1138 70 1163 105 q 1088 9 1112 36 q 904 3 1009 8 q 685 -4 798 -1 q 460 -8 572 -8 q 255 0 348 -8 q 211 50 236 18 q 163 119 187 83 q 119 190 138 155 q 90 251 100 226 q 88 369 90 298 q 85 521 87 440 q 82 688 83 602 q 82 854 81 775 q 86 998 83 933 q 94 1101 88 1063 q 309 1117 205 1115 q 531 1105 413 1119 q 519 879 522 984 q 517 679 516 775 q 522 496 518 584 q 533 319 527 408 q 601 303 561 308 q 682 302 641 298 q 761 316 723 305 q 823 350 800 327 q 822 538 823 440 q 820 736 820 636 q 819 931 819 836 q 820 1108 819 1026 q 1041 1131 932 1132 q 1268 1133 1151 1130 m 354 1464 q 684 1540 498 1536 q 705 1476 693 1514 q 734 1395 718 1439 q 771 1309 751 1352 q 816 1230 791 1266 q 768 1213 794 1219 q 716 1202 743 1207 q 662 1193 688 1197 q 613 1188 636 1190 q 548 1241 581 1209 q 482 1309 515 1273 q 417 1384 450 1344 q 354 1464 384 1425 "},"Ÿ":{"x_min":50,"x_max":1301.5,"ha":1275,"o":"m 1301 1143 q 1196 982 1251 1070 q 1084 797 1141 893 q 968 608 1026 702 q 857 431 911 513 q 851 210 854 318 q 844 9 848 102 q 745 -1 797 1 q 642 -4 694 -4 q 539 -1 590 -4 q 443 1 488 1 q 439 223 443 112 q 433 447 436 334 q 365 537 402 481 q 288 656 327 593 q 211 789 250 719 q 140 924 172 859 q 84 1046 108 988 q 50 1143 59 1104 q 170 1150 102 1145 q 300 1159 237 1155 q 409 1166 362 1163 q 468 1163 455 1168 q 499 1083 476 1130 q 547 989 522 1036 q 595 903 573 943 q 625 845 618 863 q 632 833 626 843 q 647 813 638 823 q 664 796 655 804 q 682 788 673 788 q 720 804 705 787 q 741 830 736 822 q 823 996 784 911 q 911 1162 862 1082 q 1046 1166 982 1168 q 1162 1161 1111 1165 q 1250 1152 1213 1157 q 1301 1143 1286 1147 m 1005 1315 q 977 1283 998 1297 q 927 1259 957 1269 q 866 1243 898 1248 q 806 1241 834 1238 q 757 1250 777 1243 q 730 1272 736 1257 q 723 1314 725 1287 q 722 1369 722 1340 q 726 1427 723 1398 q 730 1472 729 1455 q 750 1520 734 1501 q 787 1552 766 1539 q 829 1573 808 1565 q 865 1586 851 1582 q 893 1586 877 1589 q 925 1578 908 1584 q 957 1564 941 1572 q 982 1547 972 1555 q 1004 1435 997 1494 q 1005 1315 1011 1376 m 577 1304 q 522 1256 566 1276 q 426 1228 477 1236 q 331 1227 375 1220 q 277 1259 287 1234 q 270 1303 272 1276 q 268 1361 268 1330 q 272 1422 269 1393 q 277 1469 275 1451 q 300 1519 281 1498 q 341 1554 318 1540 q 387 1577 363 1569 q 425 1589 411 1586 q 454 1590 437 1593 q 489 1580 472 1587 q 523 1565 506 1573 q 551 1548 540 1557 q 575 1430 566 1493 q 577 1304 583 1368 "},"€":{"x_min":65.28125,"x_max":1118.609375,"ha":1158,"o":"m 1118 222 q 1116 148 1119 187 q 1107 75 1113 109 q 1091 14 1101 41 q 1069 -22 1082 -12 q 861 -17 968 -20 q 648 -2 755 -13 q 437 31 541 9 q 237 94 333 54 q 198 185 213 127 q 175 318 183 243 q 136 317 155 318 q 98 313 118 316 q 72 387 80 350 q 65 459 65 425 q 72 522 65 493 q 90 568 79 551 q 124 568 105 568 q 163 569 143 569 q 164 613 163 591 q 166 658 165 634 q 129 654 147 655 q 93 654 112 654 q 73 718 76 683 q 76 786 70 752 q 93 848 81 819 q 115 894 104 877 q 151 895 131 894 q 193 895 170 895 q 223 1032 205 970 q 265 1136 241 1093 q 371 1181 302 1159 q 523 1219 440 1202 q 697 1248 607 1236 q 866 1266 787 1261 q 1006 1270 945 1272 q 1091 1254 1066 1268 q 1099 1211 1094 1236 q 1107 1154 1104 1186 q 1111 1084 1111 1122 q 1105 1001 1112 1045 q 977 991 1038 994 q 858 982 915 987 q 747 966 801 977 q 641 929 693 954 q 638 916 640 922 q 634 901 637 909 q 848 899 748 901 q 1007 894 948 897 q 1019 845 1013 877 q 1027 779 1025 813 q 1029 713 1030 744 q 1020 663 1027 683 q 811 661 916 661 q 600 661 705 661 q 595 615 597 637 q 593 569 594 593 q 723 568 659 569 q 844 567 787 568 q 948 564 901 566 q 1027 561 995 562 q 1036 512 1034 544 q 1036 447 1037 480 q 1029 383 1034 413 q 1018 334 1025 352 q 811 329 913 330 q 604 327 708 327 q 616 291 609 308 q 680 265 638 275 q 772 250 722 255 q 878 243 823 245 q 981 239 933 241 q 1066 234 1029 237 q 1118 222 1102 230 "},"¢":{"x_min":68.71875,"x_max":988.046875,"ha":1078,"o":"m 986 908 q 881 897 937 905 q 768 877 825 888 q 659 853 712 865 q 563 832 607 841 q 534 752 547 800 q 515 651 520 704 q 514 546 509 598 q 538 455 519 494 q 614 436 559 445 q 736 420 669 427 q 870 405 802 412 q 983 394 937 398 q 981 350 984 380 q 971 284 977 319 q 955 218 965 250 q 933 172 945 187 q 874 176 898 175 q 827 177 850 177 q 779 179 805 177 q 716 187 754 181 q 713 93 713 140 q 712 -27 713 45 q 643 -38 687 -34 q 550 -43 598 -43 q 458 -43 501 -44 q 393 -34 415 -41 q 372 88 376 27 q 363 220 368 150 q 293 233 330 229 q 219 245 255 237 q 148 265 183 252 q 86 302 113 279 q 68 478 69 375 q 80 686 68 581 q 115 882 93 791 q 168 1023 138 973 q 208 1036 188 1030 q 250 1048 227 1041 q 300 1059 272 1054 q 369 1070 329 1065 q 366 1148 368 1113 q 363 1213 365 1183 q 361 1272 362 1244 q 356 1330 359 1300 q 451 1359 401 1348 q 552 1376 501 1370 q 653 1382 604 1382 q 744 1377 702 1382 q 727 1228 730 1295 q 716 1100 723 1161 q 797 1109 762 1105 q 862 1114 833 1112 q 917 1118 891 1116 q 969 1116 943 1119 q 975 1079 972 1105 q 982 1023 979 1054 q 987 961 986 991 q 986 908 988 932 "},"Ω":{"x_min":60.5625,"x_max":1335.03125,"ha":1425,"o":"m 1333 304 q 1334 236 1336 279 q 1327 146 1332 193 q 1318 58 1323 100 q 1311 -8 1314 16 q 1202 -12 1263 -12 q 1075 -12 1140 -12 q 950 -14 1011 -12 q 841 -26 888 -16 q 797 119 813 45 q 786 275 782 193 q 823 456 809 365 q 844 634 837 547 q 851 797 851 720 q 844 940 851 875 q 782 953 818 948 q 707 958 745 958 q 629 952 668 958 q 558 930 590 945 q 547 779 550 859 q 551 614 545 698 q 570 444 556 530 q 605 279 583 358 q 599 127 605 204 q 577 -8 593 50 q 463 -12 530 -12 q 327 -12 397 -12 q 192 -14 258 -12 q 79 -26 126 -16 q 68 60 72 15 q 61 147 63 105 q 61 227 59 190 q 66 288 62 263 q 125 298 84 291 q 211 306 166 305 q 156 431 183 356 q 110 598 129 506 q 83 795 91 690 q 83 1013 75 901 q 181 1132 131 1066 q 284 1254 231 1197 q 422 1273 344 1265 q 582 1285 500 1280 q 747 1291 665 1290 q 898 1293 829 1293 q 1018 1294 968 1293 q 1090 1295 1069 1295 q 1150 1234 1120 1270 q 1209 1159 1180 1198 q 1263 1080 1237 1120 q 1312 1004 1290 1040 q 1306 780 1315 884 q 1280 588 1297 676 q 1241 429 1263 500 q 1194 309 1219 359 q 1279 307 1243 308 q 1333 304 1316 306 "},"ß":{"x_min":104.625,"x_max":1314.546875,"ha":1356,"o":"m 1314 468 q 1305 397 1316 437 q 1272 312 1294 356 q 1218 223 1250 268 q 1151 141 1187 179 q 1057 105 1119 120 q 922 79 995 90 q 772 61 848 68 q 638 52 697 54 q 627 99 633 75 q 619 152 622 123 q 618 217 616 181 q 626 295 619 252 q 695 305 661 300 q 758 318 730 311 q 804 368 787 341 q 827 424 820 395 q 829 477 833 452 q 815 520 826 502 q 759 535 795 529 q 680 543 722 541 q 599 544 638 545 q 536 534 559 543 q 530 479 531 518 q 529 388 529 440 q 532 274 530 336 q 537 150 534 212 q 545 28 540 87 q 555 -76 550 -30 q 444 -78 498 -76 q 337 -81 390 -80 q 231 -81 284 -83 q 122 -68 177 -79 q 111 130 115 15 q 105 375 106 245 q 104 637 104 504 q 107 891 105 770 q 113 1111 109 1012 q 122 1266 118 1209 q 303 1288 206 1279 q 497 1303 400 1298 q 686 1309 594 1308 q 858 1306 779 1309 q 996 1297 937 1302 q 1084 1283 1055 1291 q 1136 1238 1112 1266 q 1181 1173 1161 1209 q 1216 1094 1201 1136 q 1237 1008 1230 1052 q 1200 920 1225 965 q 1146 838 1176 876 q 1082 770 1116 800 q 1015 723 1048 740 q 1081 690 1038 711 q 1168 638 1123 669 q 1254 563 1213 607 q 1314 468 1294 520 m 761 1026 q 721 1052 748 1044 q 662 1061 694 1059 q 600 1058 630 1062 q 554 1048 570 1054 q 534 1002 541 1037 q 524 925 527 966 q 522 849 520 883 q 527 808 523 815 q 570 793 540 793 q 636 798 601 793 q 705 812 672 804 q 755 826 738 820 q 768 872 763 845 q 775 925 773 898 q 772 978 776 952 q 761 1026 769 1004 "},"Ş":{"x_min":54.140625,"x_max":1095.265625,"ha":1153,"o":"m 900 20 q 893 -157 897 -75 q 880 -294 888 -240 q 800 -331 854 -313 q 681 -361 747 -348 q 543 -384 615 -375 q 407 -396 470 -394 q 296 -396 344 -398 q 230 -381 248 -394 q 224 -288 227 -348 q 230 -152 220 -229 q 300 -148 269 -150 q 361 -142 331 -147 q 420 -126 390 -137 q 487 -95 451 -115 q 487 -30 488 -66 q 372 -50 430 -41 q 152 -81 261 -66 q 129 -28 140 -72 q 113 66 119 15 q 103 165 106 118 q 101 233 100 212 q 231 245 161 236 q 368 266 301 254 q 490 294 434 279 q 575 325 545 309 q 584 378 581 345 q 584 440 587 411 q 529 461 568 452 q 440 478 490 470 q 333 493 390 486 q 223 510 276 501 q 126 531 170 519 q 55 561 81 543 q 75 879 48 720 q 165 1179 102 1037 q 373 1244 265 1218 q 593 1287 481 1270 q 815 1309 704 1304 q 1032 1311 926 1315 q 1057 1163 1052 1244 q 1059 1012 1061 1083 q 822 984 941 994 q 586 950 704 973 q 555 863 562 909 q 547 768 548 816 q 802 722 675 743 q 1058 677 929 701 q 1091 547 1083 618 q 1092 404 1098 476 q 1066 265 1086 333 q 1018 143 1047 198 q 900 88 959 113 q 900 20 900 54 "},"é":{"x_min":51,"x_max":1149.5,"ha":1201,"o":"m 1148 419 q 1025 404 1104 412 q 852 388 945 395 q 659 376 758 381 q 476 368 559 370 q 484 322 479 343 q 500 286 490 301 q 563 263 520 273 q 659 246 607 252 q 770 234 712 240 q 878 225 827 229 q 967 216 929 220 q 1019 206 1005 212 q 1018 139 1020 177 q 1009 66 1015 101 q 993 4 1002 31 q 972 -31 984 -23 q 763 -25 876 -31 q 537 -4 651 -18 q 313 33 423 9 q 112 87 204 56 q 71 181 86 119 q 52 323 56 244 q 54 491 48 402 q 74 661 59 579 q 111 815 88 744 q 162 929 133 886 q 270 966 198 948 q 429 998 341 984 q 613 1023 518 1012 q 793 1037 709 1033 q 941 1038 877 1041 q 1029 1026 1005 1036 q 1084 898 1061 970 q 1123 746 1108 826 q 1144 582 1137 666 q 1148 419 1151 498 m 741 611 q 741 693 744 650 q 719 769 737 736 q 674 767 695 768 q 629 763 652 766 q 581 755 607 761 q 523 736 555 750 q 500 664 511 695 q 481 579 488 633 q 625 587 558 576 q 741 611 693 598 m 969 1288 q 840 1134 906 1211 q 709 1013 774 1057 q 606 1026 663 1015 q 506 1054 549 1036 q 550 1134 530 1090 q 587 1220 570 1178 q 616 1301 603 1263 q 637 1364 628 1339 q 815 1344 731 1364 q 969 1288 898 1324 "},"s":{"x_min":48.453125,"x_max":985.875,"ha":1038,"o":"m 954 811 q 741 786 847 795 q 527 759 634 777 q 500 690 505 727 q 493 615 494 652 q 722 577 608 594 q 952 541 836 559 q 982 438 975 494 q 983 324 988 381 q 960 211 977 266 q 916 112 943 156 q 730 41 827 70 q 534 -6 633 12 q 334 -40 434 -26 q 137 -65 234 -55 q 115 -23 125 -58 q 101 52 106 11 q 93 131 95 93 q 91 186 90 170 q 207 196 144 190 q 330 213 270 202 q 441 236 390 223 q 518 259 491 248 q 526 302 523 276 q 526 351 529 329 q 476 369 511 362 q 396 383 441 376 q 300 395 351 390 q 200 408 248 401 q 113 425 152 415 q 50 450 73 434 q 67 704 43 576 q 148 944 91 832 q 336 996 238 975 q 534 1030 434 1018 q 734 1048 634 1043 q 929 1050 833 1052 q 951 931 947 995 q 954 811 955 866 "},"B":{"x_min":61.109375,"x_max":1386.21875,"ha":1428,"o":"m 1386 469 q 1367 341 1380 411 q 1335 206 1354 270 q 1293 89 1316 141 q 1241 15 1269 37 q 1144 -2 1204 8 q 1013 -21 1084 -12 q 868 -38 943 -30 q 727 -50 793 -47 q 431 -56 573 -58 q 172 -29 290 -54 q 162 150 163 34 q 163 404 161 265 q 170 697 165 544 q 177 986 175 850 q 153 986 168 987 q 122 986 138 986 q 88 988 105 986 q 61 995 72 990 q 71 1145 63 1076 q 86 1277 79 1215 q 237 1294 152 1286 q 418 1309 322 1302 q 617 1317 513 1315 q 822 1318 720 1319 q 1020 1310 923 1316 q 1200 1293 1116 1304 q 1233 1234 1215 1273 q 1268 1149 1251 1195 q 1297 1053 1284 1102 q 1314 966 1309 1004 q 1277 887 1301 926 q 1221 813 1252 848 q 1156 752 1190 779 q 1090 709 1122 726 q 1257 624 1179 682 q 1386 469 1336 566 m 845 820 q 850 888 851 852 q 843 959 850 925 q 822 1019 836 993 q 787 1061 808 1045 q 701 1063 748 1069 q 613 1041 654 1057 q 609 975 612 1009 q 605 905 607 940 q 604 843 604 870 q 605 795 604 815 q 656 791 622 791 q 729 793 691 790 q 800 803 766 795 q 845 820 833 811 m 886 490 q 836 511 870 502 q 762 522 802 519 q 682 521 722 525 q 613 508 641 518 q 604 332 600 411 q 616 201 608 254 q 671 197 641 195 q 731 201 701 198 q 789 210 761 204 q 838 223 818 216 q 879 338 870 269 q 886 490 888 406 "},"…":{"x_min":106.390625,"x_max":1396.328125,"ha":1583,"o":"m 416 30 q 386 0 409 13 q 331 -25 362 -15 q 264 -39 300 -34 q 197 -43 229 -44 q 144 -34 166 -41 q 115 -11 122 -26 q 107 29 109 4 q 106 84 105 55 q 111 140 108 113 q 115 184 113 168 q 137 231 119 212 q 178 263 155 250 q 225 284 201 276 q 263 297 248 293 q 293 297 276 300 q 328 289 311 295 q 362 275 345 283 q 391 259 379 268 q 415 148 406 206 q 416 30 423 90 m 898 56 q 868 24 891 38 q 813 0 844 9 q 746 -13 782 -8 q 679 -16 711 -18 q 626 -7 648 -15 q 597 15 604 0 q 589 56 591 30 q 588 111 587 81 q 593 168 590 140 q 597 212 595 195 q 619 257 601 238 q 660 290 637 276 q 707 312 683 304 q 745 323 730 320 q 775 323 758 326 q 810 314 793 320 q 844 300 827 308 q 873 284 861 293 q 897 173 888 231 q 898 56 905 115 m 1393 37 q 1362 6 1386 20 q 1307 -18 1339 -8 q 1241 -32 1276 -27 q 1174 -36 1205 -37 q 1120 -27 1143 -34 q 1091 -4 1098 -19 q 1084 36 1086 9 q 1083 91 1082 62 q 1087 147 1084 120 q 1091 191 1090 175 q 1113 237 1095 218 q 1154 270 1132 256 q 1201 291 1177 283 q 1240 304 1225 300 q 1270 304 1252 306 q 1304 295 1287 301 q 1338 282 1322 290 q 1368 266 1355 275 q 1391 155 1383 213 q 1393 37 1400 97 "},"?":{"x_min":44.453125,"x_max":911.359375,"ha":983,"o":"m 902 822 q 843 770 877 798 q 773 713 809 741 q 702 663 737 686 q 641 625 668 640 q 614 522 619 572 q 597 413 609 472 q 518 399 570 405 q 409 388 466 393 q 297 382 351 384 q 216 380 244 380 q 208 445 211 408 q 205 520 205 481 q 208 595 205 558 q 213 659 211 633 q 258 700 231 677 q 317 744 284 722 q 386 788 350 766 q 461 830 423 811 q 466 898 468 863 q 455 961 463 933 q 402 977 437 973 q 327 978 368 980 q 241 971 286 976 q 157 959 197 966 q 88 946 118 952 q 44 934 58 940 q 60 1017 52 977 q 77 1095 68 1057 q 98 1173 87 1133 q 126 1258 109 1213 q 234 1295 170 1282 q 371 1314 298 1309 q 520 1317 444 1319 q 663 1307 595 1315 q 786 1285 732 1298 q 869 1255 840 1272 q 887 1166 877 1223 q 903 1047 897 1109 q 911 924 909 984 q 902 822 912 863 m 622 36 q 541 -8 597 9 q 420 -34 484 -26 q 299 -40 356 -43 q 213 -19 241 -38 q 201 12 205 -15 q 196 73 197 40 q 198 136 195 106 q 208 173 201 165 q 290 231 240 211 q 395 255 340 251 q 502 251 450 259 q 594 225 555 243 q 603 200 597 218 q 616 158 609 183 q 625 101 622 133 q 622 36 627 69 "},"H":{"x_min":79.6875,"x_max":1237.03125,"ha":1322,"o":"m 1225 1334 q 1234 1129 1232 1248 q 1236 874 1237 1009 q 1233 600 1236 738 q 1227 337 1230 461 q 1222 117 1225 213 q 1218 -30 1219 20 q 1131 -38 1188 -36 q 1011 -40 1073 -40 q 897 -38 950 -40 q 827 -36 845 -37 q 826 74 825 12 q 829 202 827 136 q 830 331 832 268 q 819 447 829 395 q 754 452 800 448 q 659 454 708 455 q 568 445 609 454 q 516 415 527 437 q 506 188 509 301 q 506 -37 502 76 q 410 -53 461 -47 q 306 -61 359 -59 q 202 -62 254 -63 q 101 -55 150 -61 q 88 107 93 2 q 81 341 83 212 q 79 611 79 470 q 82 883 80 752 q 87 1122 84 1013 q 91 1293 90 1230 q 156 1307 116 1301 q 241 1316 195 1312 q 335 1320 287 1319 q 422 1320 383 1322 q 490 1316 462 1319 q 523 1304 518 1312 q 508 1080 508 1198 q 508 857 508 962 q 588 847 540 847 q 685 854 636 848 q 775 868 734 859 q 830 882 815 876 q 837 966 837 913 q 835 1078 837 1019 q 832 1197 833 1137 q 833 1304 830 1257 q 910 1323 855 1315 q 1027 1336 965 1332 q 1145 1340 1088 1340 q 1225 1334 1201 1340 "},"î":{"x_min":-8.328125,"x_max":580.609375,"ha":547,"o":"m 580 1136 q 525 1131 555 1134 q 466 1124 494 1127 q 416 1119 437 1120 q 388 1119 394 1118 q 368 1158 380 1137 q 345 1200 356 1179 q 322 1238 333 1220 q 306 1266 312 1257 q 300 1277 304 1269 q 288 1284 295 1284 q 271 1275 277 1284 q 262 1261 265 1265 q 221 1189 243 1227 q 186 1115 200 1151 q 120 1111 152 1111 q 62 1113 88 1111 q 17 1117 36 1115 q -8 1120 -1 1119 q 19 1199 2 1157 q 56 1285 36 1241 q 99 1373 76 1329 q 144 1454 122 1416 q 204 1459 166 1458 q 281 1461 241 1461 q 356 1461 320 1462 q 411 1459 393 1461 q 450 1382 429 1425 q 495 1295 472 1340 q 540 1210 518 1251 q 580 1136 562 1169 m 461 1015 q 452 524 461 775 q 431 26 444 273 q 372 13 416 18 q 277 4 327 8 q 181 1 227 1 q 115 2 134 1 q 102 246 106 116 q 97 509 98 376 q 98 767 97 641 q 104 994 100 893 q 191 1007 145 1002 q 284 1013 237 1011 q 375 1015 330 1015 q 461 1015 420 1015 "},"c":{"x_min":44.046875,"x_max":975.546875,"ha":1025,"o":"m 975 227 q 973 160 976 198 q 964 87 970 122 q 949 25 958 52 q 927 -11 940 -2 q 724 -7 830 -11 q 511 4 618 -4 q 300 33 404 13 q 105 83 197 52 q 64 177 79 115 q 45 319 50 240 q 47 486 41 398 q 67 657 52 575 q 104 811 81 740 q 156 925 127 882 q 259 962 193 944 q 404 994 325 980 q 570 1018 484 1008 q 733 1033 657 1029 q 868 1034 809 1037 q 950 1022 926 1032 q 959 927 954 991 q 950 790 963 863 q 828 783 886 786 q 718 775 770 780 q 617 761 666 770 q 518 732 568 752 q 491 620 504 683 q 471 493 477 556 q 469 373 465 430 q 494 281 473 316 q 556 261 516 269 q 644 250 595 254 q 745 243 693 245 q 843 240 797 241 q 925 236 890 238 q 975 227 961 233 "},"¶":{"x_min":32.546875,"x_max":1351.5,"ha":1425,"o":"m 1343 1258 q 1348 958 1345 1116 q 1351 635 1351 800 q 1346 304 1351 470 q 1330 -20 1341 137 q 1218 -27 1273 -27 q 1113 -23 1162 -27 q 1025 -11 1065 -19 q 961 4 986 -4 q 957 77 959 37 q 951 158 954 116 q 947 240 948 200 q 945 312 945 280 q 863 322 918 316 q 859 -12 859 162 q 700 -18 780 -13 q 540 -2 620 -22 q 535 175 537 83 q 530 363 533 266 q 371 391 443 377 q 263 419 300 405 q 203 479 234 444 q 141 552 172 513 q 83 631 111 591 q 34 704 55 670 q 43 880 27 794 q 86 1041 58 966 q 152 1177 115 1116 q 226 1273 190 1237 q 368 1284 276 1280 q 573 1291 461 1288 q 807 1293 686 1294 q 1035 1288 927 1291 q 1225 1278 1143 1286 q 1343 1258 1308 1270 m 957 972 q 927 982 948 979 q 873 987 905 986 q 874 821 875 902 q 872 661 873 740 q 954 655 929 655 q 960 719 958 680 q 962 802 962 758 q 961 891 962 847 q 957 972 959 936 m 530 969 q 472 947 481 958 q 466 914 470 938 q 455 859 461 890 q 447 794 450 827 q 447 733 444 761 q 479 720 458 727 q 527 708 500 713 q 528 838 527 773 q 530 969 529 904 "},"≠":{"x_min":73.15625,"x_max":632,"ha":664,"o":"m 632 1157 q 591 1050 612 1105 q 550 936 570 994 q 567 934 559 934 q 581 933 575 934 q 588 870 586 909 q 593 790 591 832 q 593 709 594 748 q 588 647 593 669 q 519 641 554 643 q 448 638 484 640 q 427 570 437 605 q 405 501 416 536 q 507 500 461 501 q 581 494 554 498 q 588 432 586 472 q 593 351 591 393 q 593 270 594 309 q 588 208 593 231 q 452 200 522 201 q 312 197 383 198 q 288 112 301 152 q 265 31 276 72 q 202 25 233 26 q 145 27 170 25 q 100 34 119 30 q 73 41 80 38 q 93 113 84 77 q 112 181 102 148 q 99 180 105 180 q 86 177 93 180 q 75 263 77 218 q 73 351 72 308 q 79 431 75 394 q 90 491 84 468 q 138 495 109 494 q 202 498 166 497 q 222 565 212 531 q 243 632 231 598 q 86 616 161 626 q 75 702 77 657 q 73 790 72 747 q 79 870 75 833 q 90 930 84 907 q 199 936 129 933 q 345 940 269 938 q 437 1184 390 1059 q 501 1188 469 1190 q 560 1180 533 1186 q 606 1167 587 1175 q 632 1157 625 1159 "},"•":{"x_min":98.15625,"x_max":524.578125,"ha":614,"o":"m 520 408 q 479 367 511 384 q 404 337 447 350 q 313 319 362 325 q 222 315 265 313 q 150 327 180 316 q 111 355 119 337 q 100 406 102 373 q 98 474 97 438 q 104 543 100 509 q 111 598 108 576 q 140 657 116 632 q 196 698 165 682 q 259 724 227 715 q 312 738 291 733 q 352 739 329 741 q 400 729 376 737 q 447 711 425 722 q 486 691 469 701 q 518 554 508 626 q 520 408 529 481 "},"¥":{"x_min":43.0625,"x_max":1229.265625,"ha":1275,"o":"m 1229 1311 q 1141 1130 1190 1236 q 1041 908 1093 1025 q 1097 906 1072 908 q 1138 901 1122 904 q 1143 838 1141 877 q 1146 758 1145 800 q 1146 677 1147 716 q 1143 615 1145 637 q 1026 604 1086 607 q 905 600 966 602 q 843 465 872 525 q 924 467 880 466 q 1008 468 968 468 q 1083 466 1048 468 q 1138 461 1118 465 q 1143 398 1141 437 q 1146 318 1145 359 q 1146 237 1147 276 q 1143 175 1145 198 q 985 163 1066 165 q 825 154 904 162 l 816 -15 q 776 -27 805 -22 q 709 -37 747 -33 q 627 -44 670 -41 q 545 -47 584 -47 q 474 -48 505 -48 q 429 -47 443 -48 q 424 57 426 4 q 419 166 422 111 q 267 160 344 162 q 118 144 190 158 q 109 229 111 184 q 108 318 106 275 q 113 398 109 361 q 120 459 116 436 q 176 463 141 461 q 250 467 211 466 q 332 468 290 468 q 412 468 375 469 l 412 498 q 348 602 381 544 q 231 597 290 601 q 118 584 173 594 q 109 670 111 625 q 108 758 106 715 q 113 838 109 801 q 120 900 116 876 q 201 904 148 901 q 111 1121 152 1016 q 43 1307 70 1226 q 97 1317 58 1311 q 190 1328 136 1323 q 310 1334 244 1333 q 443 1329 376 1334 q 518 1131 476 1225 q 601 943 561 1037 q 620 912 607 932 q 657 893 634 893 q 681 909 672 893 q 693 934 690 925 q 720 1002 700 954 q 766 1110 741 1051 q 816 1229 791 1169 q 857 1332 840 1290 q 909 1334 868 1334 q 1004 1329 950 1333 q 1118 1320 1058 1325 q 1229 1311 1179 1315 "},"(":{"x_min":65.921875,"x_max":638.9375,"ha":700,"o":"m 638 1111 q 554 1086 588 1105 q 483 1044 519 1068 q 462 937 472 1007 q 445 785 452 868 q 434 614 438 702 q 431 447 430 526 q 438 307 431 368 q 461 218 445 247 q 511 185 480 205 q 581 159 541 165 q 561 31 576 93 q 525 -58 545 -30 q 429 -37 479 -51 q 329 -4 379 -23 q 231 33 279 13 q 144 68 184 52 q 97 191 115 106 q 71 385 79 276 q 66 617 63 494 q 81 854 69 740 q 118 1062 94 968 q 173 1209 141 1157 q 341 1282 233 1244 q 587 1339 448 1319 q 605 1295 595 1323 q 622 1235 615 1268 q 634 1169 629 1202 q 638 1111 638 1136 "},"U":{"x_min":82.296875,"x_max":1268.15625,"ha":1353,"o":"m 1268 1258 q 1263 1024 1266 1151 q 1259 768 1261 897 q 1258 518 1258 638 q 1261 301 1258 397 q 1232 233 1251 270 q 1188 156 1212 195 q 1138 79 1163 116 q 1088 12 1112 41 q 904 4 1009 9 q 685 -5 798 -1 q 460 -9 572 -9 q 255 0 348 -9 q 211 56 236 20 q 163 131 187 91 q 119 211 138 172 q 90 280 100 251 q 88 410 90 331 q 85 579 87 488 q 82 766 83 670 q 82 948 81 862 q 86 1107 83 1034 q 94 1223 88 1180 q 309 1240 205 1237 q 531 1229 413 1243 q 519 979 522 1095 q 517 756 516 862 q 522 552 518 650 q 533 356 527 455 q 601 337 561 343 q 682 335 641 331 q 761 352 723 338 q 823 390 800 365 q 822 599 823 490 q 820 818 820 708 q 819 1034 819 929 q 820 1232 819 1140 q 1042 1257 932 1257 q 1268 1258 1152 1257 "},"◊":{"x_min":66.671875,"x_max":1073.703125,"ha":1117,"o":"m 1073 636 q 909 360 987 495 q 750 80 832 225 q 563 52 657 55 q 380 70 470 50 q 213 331 291 201 q 66 595 134 461 q 231 872 154 736 q 390 1151 308 1008 q 475 1161 426 1158 q 577 1166 525 1163 q 677 1166 629 1168 q 759 1161 725 1163 q 927 900 850 1030 q 1073 636 1005 770 m 722 625 q 657 743 693 677 q 584 875 620 808 q 500 737 541 802 q 418 608 458 672 q 484 489 448 554 q 556 358 519 425 q 641 493 600 427 q 722 625 682 559 "},"Ñ":{"x_min":80.5625,"x_max":1343.625,"ha":1436,"o":"m 1341 1143 q 1343 592 1344 869 q 1333 40 1341 315 q 1227 25 1288 33 q 1093 11 1165 18 q 944 0 1022 5 q 790 -5 866 -5 q 653 228 715 105 q 538 477 591 351 q 519 500 533 493 q 491 504 505 506 q 466 491 477 501 q 452 456 455 480 q 444 8 431 272 q 277 -16 361 -13 q 101 -5 193 -19 q 91 122 95 43 q 84 302 87 202 q 81 512 81 401 q 80 731 80 623 q 82 936 80 838 q 87 1108 84 1034 q 135 1123 95 1115 q 232 1138 175 1132 q 358 1150 290 1144 q 489 1160 426 1157 q 604 1163 552 1163 q 682 1159 657 1163 q 781 911 726 1033 q 890 666 836 788 q 906 649 895 655 q 929 643 916 643 q 952 655 941 644 q 969 688 963 666 q 972 718 970 693 q 974 784 973 744 q 977 870 975 823 q 979 963 979 916 q 982 1050 980 1009 q 984 1118 983 1091 q 1341 1143 1161 1158 m 1151 1441 q 1104 1384 1137 1425 q 1030 1300 1070 1343 q 947 1227 990 1258 q 870 1198 904 1197 q 785 1218 833 1201 q 692 1255 737 1236 q 611 1287 647 1275 q 561 1294 575 1300 q 516 1263 543 1288 q 466 1213 488 1238 q 391 1253 422 1232 q 348 1297 361 1275 q 393 1368 368 1330 q 447 1440 418 1405 q 508 1502 476 1475 q 570 1543 540 1530 q 638 1549 602 1557 q 711 1524 673 1541 q 791 1484 750 1507 q 875 1444 832 1461 q 932 1445 904 1433 q 983 1476 959 1458 q 1034 1530 1009 1498 q 1100 1492 1069 1515 q 1151 1441 1132 1469 "},"F":{"x_min":54.171875,"x_max":1046.84375,"ha":1103,"o":"m 1045 1307 q 1043 1163 1048 1236 q 1018 1026 1037 1090 q 911 1013 966 1015 q 799 1013 855 1012 q 687 1017 743 1015 q 577 1015 632 1019 q 560 974 565 1005 q 554 904 555 943 q 554 829 552 865 q 555 776 555 794 q 641 763 587 765 q 756 760 695 761 q 874 760 816 759 q 970 757 932 761 q 982 693 979 722 q 984 638 986 665 q 978 583 983 611 q 963 520 973 555 q 862 511 912 513 q 762 506 812 509 q 661 500 712 504 q 561 481 611 495 q 559 425 559 477 q 558 301 558 373 q 559 147 558 229 q 563 1 561 65 q 485 -18 537 -9 q 372 -32 433 -27 q 250 -37 312 -37 q 138 -30 187 -37 q 123 243 126 101 q 122 525 120 386 q 130 792 125 663 q 141 1023 136 920 q 97 1031 126 1023 q 54 1043 69 1038 q 59 1182 58 1118 q 62 1276 61 1247 q 226 1307 137 1295 q 409 1322 315 1318 q 597 1325 504 1326 q 775 1320 691 1323 q 929 1314 859 1318 q 1045 1307 1000 1311 "},"­":{"x_min":73.0625,"x_max":480.25,"ha":556,"o":"m 476 369 q 279 356 380 356 q 83 337 177 355 q 74 425 76 379 q 73 517 72 472 q 78 600 75 562 q 86 663 81 638 q 168 670 115 668 q 280 674 222 672 q 391 674 338 676 q 472 668 444 672 q 477 602 475 643 q 479 517 479 561 q 479 434 480 473 q 476 369 479 394 "},":":{"x_min":103.609375,"x_max":495.984375,"ha":614,"o":"m 493 31 q 454 2 484 15 q 385 -18 425 -9 q 302 -31 345 -27 q 218 -35 258 -36 q 150 -27 179 -34 q 115 -5 122 -19 q 104 31 106 6 q 104 81 102 55 q 109 131 105 106 q 115 172 112 156 q 142 214 119 197 q 194 244 165 231 q 252 263 223 256 q 300 273 281 270 q 338 275 316 277 q 381 267 359 272 q 425 254 404 262 q 461 240 447 247 q 490 138 480 191 q 493 31 500 86 m 476 590 q 440 559 468 573 q 375 536 412 545 q 295 522 337 527 q 215 518 252 516 q 152 528 179 520 q 118 550 125 536 q 107 590 109 565 q 106 643 105 615 q 111 697 108 672 q 118 740 115 723 q 143 786 122 766 q 193 818 165 805 q 248 839 220 832 q 293 850 276 847 q 328 851 308 854 q 370 843 348 848 q 411 829 391 837 q 445 813 431 822 q 474 705 465 762 q 476 590 483 648 "},"Û":{"x_min":82.296875,"x_max":1268.15625,"ha":1353,"o":"m 1268 1133 q 1263 921 1266 1036 q 1259 691 1261 807 q 1258 466 1258 575 q 1261 272 1258 356 q 1232 209 1251 243 q 1188 140 1212 175 q 1138 70 1163 105 q 1088 9 1112 36 q 904 3 1009 8 q 685 -4 798 -1 q 460 -8 572 -8 q 255 0 348 -8 q 211 50 236 18 q 163 119 187 83 q 119 190 138 155 q 90 251 100 226 q 88 369 90 298 q 85 521 87 440 q 82 688 83 602 q 82 854 81 775 q 86 998 83 933 q 94 1101 88 1063 q 309 1117 205 1115 q 531 1105 413 1119 q 519 879 522 984 q 517 679 516 775 q 522 496 518 584 q 533 319 527 408 q 601 303 561 308 q 682 302 641 298 q 761 316 723 305 q 823 350 800 327 q 822 538 823 440 q 820 736 820 636 q 819 931 819 836 q 820 1108 819 1026 q 1041 1131 932 1132 q 1268 1133 1151 1130 m 1029 1218 q 963 1212 1000 1216 q 891 1204 926 1208 q 832 1200 857 1201 q 800 1200 807 1198 q 775 1241 790 1218 q 747 1285 761 1263 q 720 1324 733 1307 q 701 1351 708 1341 q 693 1364 698 1355 q 680 1372 688 1373 q 659 1361 666 1372 q 648 1347 651 1351 q 600 1273 626 1314 q 558 1194 573 1233 q 481 1191 519 1191 q 411 1193 443 1191 q 356 1197 379 1194 q 325 1201 333 1200 q 359 1282 338 1238 q 402 1372 379 1326 q 453 1464 426 1418 q 506 1550 480 1509 q 578 1554 533 1552 q 671 1557 623 1557 q 761 1556 719 1557 q 826 1555 804 1555 q 873 1473 847 1518 q 927 1383 900 1427 q 980 1295 954 1339 q 1029 1218 1007 1252 "},"*":{"x_min":27.78125,"x_max":800.0625,"ha":842,"o":"m 800 648 q 766 620 786 637 q 722 588 745 604 q 674 561 700 573 q 622 544 648 548 q 579 584 607 561 q 522 630 551 607 q 520 563 520 597 q 516 495 519 529 q 480 487 506 490 q 423 482 454 484 q 365 479 393 480 q 325 480 337 479 q 321 550 322 513 q 319 627 320 587 q 268 581 294 604 q 230 540 243 559 q 177 547 205 538 q 122 570 148 556 q 75 602 97 584 q 37 634 52 619 q 80 687 56 657 q 127 747 104 718 q 173 802 151 776 q 213 844 195 827 q 157 893 183 873 q 109 930 131 913 q 67 964 87 947 q 27 1005 47 982 q 58 1034 38 1018 q 102 1068 77 1051 q 156 1102 127 1086 q 211 1129 184 1118 q 252 1091 222 1112 q 313 1048 281 1070 q 315 1119 315 1086 q 316 1182 315 1152 q 425 1194 366 1193 q 533 1195 484 1195 l 533 1065 q 572 1102 554 1084 q 602 1132 591 1119 q 633 1127 609 1134 q 686 1108 657 1120 q 746 1079 715 1095 q 800 1043 777 1062 q 695 946 751 990 q 593 845 640 902 q 645 797 622 818 q 692 757 669 777 q 741 712 715 737 q 800 648 766 687 "},"†":{"x_min":73.15625,"x_max":594.03125,"ha":647,"o":"m 588 437 q 534 432 566 433 q 477 430 501 431 q 471 234 475 330 q 463 37 468 137 q 413 20 450 26 q 336 10 377 13 q 256 6 294 6 q 200 8 219 6 q 191 205 194 104 q 186 415 188 306 q 135 411 163 413 q 86 405 106 408 q 75 492 77 445 q 73 584 72 538 q 79 667 75 629 q 90 730 84 705 q 132 732 105 732 q 183 734 159 733 q 184 991 183 868 q 188 1222 186 1115 q 352 1244 268 1240 q 513 1247 437 1248 q 501 993 513 1120 q 486 738 488 866 q 538 736 509 737 q 581 733 568 734 q 588 668 586 708 q 593 585 591 629 q 593 502 594 541 q 588 437 593 462 "},"∕":{"x_min":27.78125,"x_max":1100.09375,"ha":1122,"o":"m 1100 1275 q 916 970 1008 1133 q 733 636 823 808 q 557 290 643 465 q 395 -50 472 115 q 274 -56 334 -56 q 163 -54 213 -56 q 77 -46 113 -51 q 27 -38 41 -41 q 202 347 119 170 q 367 684 284 525 q 537 996 450 844 q 726 1308 625 1148 q 848 1311 787 1315 q 961 1301 909 1308 q 1049 1286 1012 1294 q 1100 1275 1086 1279 "},"°":{"x_min":68.0625,"x_max":703.75,"ha":761,"o":"m 700 612 q 627 554 676 577 q 516 518 577 530 q 388 506 455 506 q 259 518 320 505 q 150 554 198 530 q 77 615 101 579 q 70 729 73 661 q 68 868 68 797 q 69 1006 68 940 q 73 1111 70 1072 q 152 1163 102 1141 q 263 1197 202 1186 q 389 1209 323 1208 q 513 1200 455 1211 q 619 1165 572 1188 q 688 1105 666 1141 q 697 995 694 1069 q 702 843 701 922 q 703 699 704 765 q 700 612 702 633 m 465 736 q 467 859 465 804 q 458 977 469 913 q 424 979 443 977 q 385 982 405 982 q 345 982 365 983 q 308 972 325 980 q 300 907 302 936 q 297 851 297 879 q 298 794 297 823 q 301 729 300 765 q 342 722 319 725 q 388 720 365 720 q 431 724 411 720 q 465 736 452 727 "},"V":{"x_min":47.21875,"x_max":1238.984375,"ha":1275,"o":"m 1238 1240 q 1135 950 1190 1104 q 1024 637 1080 797 q 911 316 968 477 q 804 4 855 155 q 695 -7 754 -2 q 578 -15 637 -12 q 461 -18 519 -18 q 352 -16 402 -19 q 293 168 325 65 q 231 386 262 272 q 172 618 201 500 q 120 850 144 737 q 77 1063 95 962 q 47 1240 58 1163 q 162 1256 98 1247 q 286 1272 226 1265 q 390 1282 345 1279 q 445 1279 434 1286 q 461 1185 451 1238 q 484 1073 472 1132 q 508 956 495 1015 q 532 844 520 897 q 554 752 544 791 q 568 690 563 712 q 575 666 569 683 q 589 630 581 648 q 606 597 597 612 q 622 583 615 583 q 642 593 633 583 q 658 615 651 602 q 670 641 665 627 q 677 662 675 654 q 770 970 719 811 q 868 1277 822 1130 q 997 1283 936 1286 q 1107 1273 1058 1280 q 1190 1257 1155 1266 q 1238 1240 1225 1248 "},"å":{"x_min":43.0625,"x_max":1095.359375,"ha":1158,"o":"m 1086 30 q 965 4 1037 16 q 809 -17 893 -8 q 636 -32 726 -26 q 464 -40 547 -38 q 311 -39 381 -43 q 195 -27 241 -36 q 154 28 177 -2 q 110 93 131 59 q 70 158 88 126 q 43 215 52 190 q 68 394 45 305 q 122 544 90 483 q 217 584 155 565 q 354 620 279 602 q 511 654 429 638 q 668 682 593 669 q 659 720 663 698 q 651 750 655 741 q 562 779 619 769 q 438 791 505 788 q 301 793 370 794 q 176 793 231 793 q 177 864 175 826 q 186 938 180 902 q 202 1000 193 973 q 223 1040 211 1027 q 417 1055 318 1050 q 616 1058 516 1061 q 813 1041 716 1055 q 1001 1002 911 1027 q 1045 902 1027 969 q 1073 747 1062 834 q 1089 559 1084 659 q 1095 363 1094 459 q 1093 179 1095 266 q 1086 30 1090 91 m 697 215 q 695 334 695 277 q 691 451 694 391 q 585 434 636 440 q 483 402 534 427 q 469 360 473 384 q 466 310 465 336 q 472 259 468 284 q 484 215 477 234 q 569 204 516 201 q 697 215 622 208 m 956 1141 q 880 1114 931 1125 q 765 1097 829 1103 q 631 1091 701 1091 q 497 1097 560 1091 q 382 1114 433 1103 q 306 1143 331 1126 q 299 1198 302 1165 q 297 1264 297 1230 q 298 1329 297 1298 q 302 1378 299 1360 q 384 1404 331 1393 q 500 1420 437 1415 q 632 1426 563 1425 q 763 1421 701 1426 q 873 1404 824 1415 q 945 1376 922 1393 q 954 1325 951 1360 q 959 1253 958 1290 q 960 1183 961 1215 q 956 1141 959 1151 m 712 1201 q 714 1259 712 1233 q 704 1315 716 1285 q 627 1317 672 1315 q 547 1314 583 1319 q 535 1255 534 1278 q 541 1197 537 1232 q 583 1194 559 1194 q 631 1193 606 1193 q 676 1195 655 1193 q 712 1201 698 1197 "}," ":{"x_min":0,"x_max":0,"ha":556},"0":{"x_min":62.5,"x_max":1290.375,"ha":1358,"o":"m 1283 225 q 1195 95 1236 162 q 1104 -33 1154 29 q 986 -47 1054 -41 q 843 -57 919 -54 q 683 -61 766 -61 q 519 -58 600 -61 q 364 -51 438 -55 q 229 -38 290 -47 q 184 19 208 -18 q 136 98 159 56 q 94 181 113 140 q 63 255 75 223 q 62 432 62 336 q 62 627 62 529 q 64 816 62 725 q 69 979 66 908 q 118 1035 88 998 q 178 1110 147 1072 q 238 1181 209 1148 q 288 1225 268 1213 q 459 1241 359 1232 q 666 1255 559 1250 q 877 1258 773 1261 q 1062 1238 982 1255 q 1120 1177 1091 1213 q 1175 1102 1148 1141 q 1227 1023 1202 1063 q 1275 947 1252 983 q 1280 836 1277 900 q 1285 702 1283 772 q 1288 559 1287 632 q 1290 422 1290 487 q 1288 306 1290 358 q 1283 225 1287 255 m 823 294 q 830 581 826 423 q 815 907 834 740 q 738 904 775 905 q 669 900 702 904 q 603 888 636 897 q 536 863 570 880 q 525 803 529 848 q 518 698 520 758 q 516 571 516 638 q 517 441 516 504 q 519 329 518 379 q 520 255 520 279 q 595 234 552 238 q 680 236 637 230 q 762 256 723 241 q 823 294 801 272 "},"”":{"x_min":75,"x_max":798.671875,"ha":803,"o":"m 419 1140 q 379 1011 400 1077 q 338 885 359 945 q 295 772 318 825 q 250 680 273 719 q 163 685 212 679 q 75 715 115 691 q 98 844 88 775 q 114 981 108 913 q 125 1109 120 1048 q 131 1211 129 1169 q 419 1140 287 1232 m 798 1004 q 738 888 769 947 q 675 777 707 830 q 611 677 643 723 q 550 597 580 630 q 459 613 509 600 q 372 654 409 627 q 416 770 395 707 q 454 895 437 833 q 486 1014 472 958 q 509 1108 500 1070 q 798 1004 675 1108 "},"@":{"x_min":50.53125,"x_max":1175.84375,"ha":1228,"o":"m 1163 265 q 1111 252 1152 259 q 1020 238 1069 244 q 928 229 972 231 q 869 229 884 227 q 868 263 869 243 q 866 297 868 284 q 782 297 830 297 q 680 300 733 297 q 573 311 627 304 q 473 331 519 318 q 446 447 454 368 q 441 620 438 527 q 458 799 444 712 q 494 934 472 886 q 661 986 577 970 q 845 998 745 1001 q 843 1027 845 1013 q 838 1051 840 1038 q 830 1072 836 1063 q 744 1073 800 1073 q 627 1066 688 1073 q 506 1041 565 1059 q 412 988 448 1023 q 376 841 390 930 q 358 650 362 751 q 359 447 354 548 q 381 265 365 347 q 500 213 437 231 q 632 181 563 194 q 771 161 700 169 q 915 143 843 152 q 909 36 922 76 q 877 -36 897 -2 q 784 -45 845 -44 q 648 -40 723 -45 q 491 -22 573 -34 q 334 8 409 -9 q 199 48 259 26 q 106 95 138 70 q 67 244 80 154 q 51 440 54 334 q 54 656 48 545 q 74 866 61 768 q 106 1045 87 965 q 150 1168 126 1126 q 272 1223 198 1198 q 431 1263 345 1247 q 611 1286 518 1279 q 795 1295 705 1294 q 963 1292 884 1297 q 1101 1276 1043 1287 q 1154 1027 1138 1161 q 1174 759 1170 894 q 1173 496 1177 623 q 1163 265 1168 369 m 861 468 q 857 652 858 568 q 858 830 857 736 q 825 827 838 829 q 798 822 811 826 q 771 811 786 818 q 736 793 757 804 q 722 709 729 757 q 712 616 715 662 q 711 527 709 569 q 723 461 713 486 q 788 460 748 452 q 861 468 827 468 "},"ö":{"x_min":55.5625,"x_max":1160.734375,"ha":1222,"o":"m 1154 208 q 1075 104 1113 158 q 993 1 1037 51 q 825 -16 926 -11 q 614 -22 725 -22 q 395 -18 504 -22 q 205 -4 287 -13 q 165 43 187 13 q 123 105 144 72 q 84 172 102 138 q 56 230 66 205 q 55 372 55 294 q 55 529 55 451 q 57 681 55 608 q 62 811 59 755 q 105 857 79 827 q 160 916 131 886 q 215 971 188 945 q 259 1008 241 997 q 413 1020 323 1012 q 599 1032 502 1027 q 789 1034 695 1036 q 955 1019 883 1033 q 1057 911 1008 977 q 1147 786 1107 844 q 1154 645 1151 729 q 1159 475 1158 561 q 1160 316 1161 388 q 1154 208 1159 243 m 741 270 q 747 502 744 375 q 733 762 750 629 q 664 760 697 761 q 602 757 632 759 q 543 747 572 754 q 483 727 513 741 q 472 678 476 713 q 467 595 469 643 q 465 493 465 547 q 465 388 465 438 q 466 300 465 338 q 468 241 468 261 q 535 224 497 227 q 612 225 573 220 q 686 241 651 229 q 741 270 720 254 m 990 1135 q 939 1089 980 1108 q 851 1063 899 1071 q 764 1062 804 1055 q 715 1093 723 1069 q 708 1135 710 1108 q 708 1189 707 1161 q 711 1246 708 1218 q 715 1292 714 1275 q 735 1340 719 1319 q 772 1373 751 1360 q 814 1394 793 1386 q 850 1405 836 1403 q 909 1398 874 1411 q 967 1368 944 1385 q 989 1254 982 1314 q 990 1135 996 1194 m 561 1125 q 530 1090 554 1105 q 476 1064 507 1075 q 410 1049 446 1054 q 344 1044 375 1043 q 291 1054 314 1046 q 262 1078 268 1062 q 255 1122 257 1094 q 253 1181 253 1150 q 257 1242 254 1212 q 262 1289 260 1271 q 284 1339 267 1318 q 324 1374 301 1360 q 371 1397 347 1389 q 410 1410 394 1405 q 439 1410 422 1412 q 474 1401 457 1408 q 508 1386 492 1394 q 536 1369 525 1378 q 560 1250 551 1312 q 561 1125 568 1187 "},"i":{"x_min":86.953125,"x_max":479.3125,"ha":547,"o":"m 461 932 q 459 701 461 811 q 452 482 456 591 q 443 261 448 373 q 431 26 438 150 q 372 13 416 18 q 277 4 327 8 q 181 1 227 1 q 115 2 134 1 q 97 466 100 229 q 104 911 95 704 q 191 923 145 919 q 284 929 237 927 q 375 932 330 932 q 461 932 420 932 m 476 1115 q 438 1084 468 1098 q 369 1062 408 1070 q 286 1049 330 1054 q 202 1046 241 1044 q 135 1054 163 1048 q 98 1075 106 1061 q 88 1113 90 1090 q 87 1163 86 1137 q 92 1215 88 1190 q 98 1254 95 1240 q 125 1297 102 1279 q 177 1327 148 1315 q 236 1346 206 1340 q 284 1357 266 1352 q 321 1357 300 1359 q 365 1348 343 1354 q 409 1336 387 1343 q 444 1320 430 1329 q 473 1220 463 1273 q 476 1115 483 1168 "},"≤":{"x_min":66.671875,"x_max":689.5,"ha":753,"o":"m 683 16 q 535 10 611 12 q 384 6 459 8 q 232 1 308 5 q 84 -11 156 -2 q 71 70 75 27 q 70 155 68 113 q 77 234 72 197 q 90 291 83 270 q 166 295 119 294 q 269 298 213 297 q 384 300 325 300 q 500 300 444 300 q 601 298 555 300 q 675 294 647 297 q 682 234 679 272 q 688 156 686 197 q 688 77 690 115 q 683 16 687 40 m 683 1245 q 535 1019 607 1116 q 395 825 463 922 q 458 725 423 780 q 529 616 493 670 q 600 508 565 561 q 663 412 634 455 q 576 403 625 408 q 482 395 527 398 q 402 390 437 391 q 359 390 368 388 q 203 601 276 495 q 66 816 130 707 q 220 1039 148 930 q 369 1265 291 1148 q 472 1268 420 1270 q 566 1262 523 1266 q 641 1253 609 1258 q 683 1245 672 1248 "},"Õ":{"x_min":65.28125,"x_max":1357.90625,"ha":1431,"o":"m 1350 213 q 1257 89 1301 152 q 1161 -31 1213 26 q 1038 -45 1109 -40 q 886 -54 968 -51 q 718 -58 805 -58 q 547 -56 632 -58 q 384 -50 462 -55 q 241 -38 305 -44 q 195 18 220 -16 q 144 93 169 52 q 98 172 119 133 q 66 241 77 211 q 65 409 65 316 q 65 593 65 501 q 68 773 66 686 q 73 926 69 861 q 123 982 93 947 q 187 1052 154 1016 q 252 1119 220 1088 q 304 1159 283 1150 q 418 1170 354 1165 q 553 1180 481 1176 q 701 1188 625 1184 q 851 1192 777 1193 q 993 1187 925 1191 q 1118 1173 1062 1183 q 1179 1116 1148 1148 q 1238 1045 1209 1083 q 1293 970 1266 1008 q 1341 897 1319 932 q 1350 731 1345 830 q 1356 529 1354 632 q 1357 341 1358 427 q 1350 213 1357 255 m 868 277 q 872 407 869 338 q 875 550 875 476 q 871 703 875 625 q 858 859 868 782 q 777 857 815 858 q 704 853 740 857 q 635 842 669 850 q 565 818 601 834 q 552 760 556 802 q 546 661 548 718 q 543 541 544 605 q 543 418 543 476 q 545 312 544 359 q 547 243 547 265 q 625 223 580 227 q 716 225 670 219 q 802 244 762 230 q 868 277 843 258 m 1141 1475 q 1094 1417 1127 1458 q 1020 1334 1061 1376 q 937 1262 980 1293 q 861 1233 894 1232 q 775 1252 823 1236 q 682 1288 727 1269 q 601 1321 637 1308 q 551 1330 565 1334 q 506 1298 533 1323 q 456 1247 479 1273 q 338 1332 365 1284 q 383 1402 358 1365 q 437 1474 408 1440 q 498 1536 466 1508 q 561 1576 530 1565 q 628 1582 593 1590 q 702 1557 663 1575 q 782 1517 741 1540 q 865 1477 822 1494 q 922 1479 894 1468 q 973 1509 950 1491 q 1025 1564 1000 1532 q 1091 1525 1059 1548 q 1141 1475 1122 1502 "},"]":{"x_min":107.5625,"x_max":669.5,"ha":731,"o":"m 112 1066 q 107 1177 106 1115 q 115 1288 108 1240 q 384 1298 244 1302 q 654 1282 523 1294 q 666 973 662 1141 q 669 635 669 805 q 666 303 669 465 q 659 13 663 141 q 532 -9 602 1 q 391 -26 462 -19 q 251 -33 319 -33 q 129 -23 183 -33 q 122 32 126 0 q 116 98 119 65 q 113 164 113 131 q 115 219 112 197 q 193 227 150 223 q 272 233 236 231 q 285 420 280 315 q 293 634 290 525 q 295 850 295 744 q 290 1034 294 955 q 185 1056 233 1051 q 112 1066 137 1061 "},"m":{"x_min":50.6875,"x_max":1476.5,"ha":1543,"o":"m 1476 1 q 1401 -17 1448 -11 q 1300 -25 1354 -23 q 1189 -22 1245 -26 q 1086 -16 1133 -19 q 1082 40 1084 1 q 1077 128 1080 80 q 1070 228 1073 176 q 1064 324 1068 280 q 1059 399 1061 368 q 1055 434 1057 430 q 1028 460 1045 463 q 1002 438 1011 456 q 962 357 987 408 q 908 247 937 306 q 848 123 879 187 q 788 1 818 59 q 718 0 752 1 q 648 5 683 0 q 586 115 615 58 q 531 227 556 173 q 486 331 506 281 q 451 416 466 380 q 427 436 444 431 q 400 423 411 441 q 389 380 394 413 q 381 303 384 347 q 377 209 379 259 q 373 113 375 158 q 371 31 372 68 q 370 -19 370 -4 q 215 -34 291 -33 q 51 -26 138 -34 q 51 136 50 41 q 56 332 52 230 q 66 538 61 434 q 77 733 72 643 q 88 893 83 823 q 98 993 94 962 q 181 1012 134 1004 q 279 1027 229 1020 q 381 1037 330 1033 q 473 1044 431 1041 q 544 1047 515 1047 q 580 1045 573 1047 q 639 870 612 958 q 707 704 666 783 q 732 679 713 687 q 766 683 750 672 q 787 714 773 688 q 819 777 801 740 q 857 857 837 815 q 893 939 876 900 q 924 1009 911 979 q 943 1054 937 1040 q 1044 1068 980 1063 q 1178 1073 1108 1072 q 1316 1070 1248 1073 q 1427 1059 1383 1066 q 1450 534 1441 795 q 1476 1 1459 273 "},"8":{"x_min":52.78125,"x_max":1232.609375,"ha":1270,"o":"m 1232 454 q 1223 371 1234 425 q 1191 259 1212 318 q 1139 142 1169 200 q 1075 45 1109 84 q 955 0 1030 16 q 791 -24 880 -16 q 606 -29 702 -31 q 422 -19 511 -27 q 259 3 333 -11 q 140 33 184 18 q 108 119 123 70 q 80 222 93 168 q 60 338 68 277 q 52 462 52 400 q 97 512 72 487 q 150 561 123 537 q 205 606 177 584 q 255 650 233 629 q 203 705 231 677 q 148 759 175 733 q 100 809 122 786 q 70 850 79 833 q 110 1069 81 966 q 188 1269 138 1172 q 438 1299 311 1288 q 679 1310 566 1309 q 880 1303 793 1311 q 1011 1283 968 1295 q 1103 1170 1063 1247 q 1158 1002 1143 1094 q 1123 915 1145 959 q 1070 832 1100 870 q 1009 761 1041 793 q 944 713 976 730 q 1007 681 966 702 q 1092 627 1048 659 q 1175 552 1136 595 q 1232 454 1213 509 m 700 1022 q 664 1048 688 1041 q 612 1057 640 1055 q 558 1055 584 1059 q 515 1044 531 1051 q 496 1002 504 1034 q 485 935 488 970 q 482 869 481 900 q 487 833 483 838 q 526 811 498 818 q 586 805 554 805 q 648 809 618 805 q 694 819 679 813 q 707 865 702 838 q 713 918 712 891 q 711 973 715 945 q 700 1022 708 1001 m 745 476 q 693 488 727 484 q 618 489 658 491 q 539 483 579 487 q 469 472 500 479 q 462 411 463 445 q 463 345 461 377 q 471 286 465 312 q 487 250 477 259 q 538 238 508 241 q 600 234 568 234 q 663 235 632 234 q 716 236 694 236 q 744 285 733 252 q 759 354 755 318 q 759 425 762 391 q 745 476 757 458 "},"R":{"x_min":47.21875,"x_max":1302.875,"ha":1364,"o":"m 1302 63 q 1232 34 1279 48 q 1129 6 1186 19 q 1014 -15 1073 -5 q 909 -26 955 -25 q 852 47 877 12 q 802 117 826 81 q 753 188 777 152 q 700 265 729 223 q 676 297 688 280 q 650 328 663 315 q 622 347 637 341 q 591 347 607 354 q 568 313 572 338 q 563 265 563 288 q 564 135 565 200 q 561 4 563 70 q 491 -11 534 -4 q 395 -23 448 -19 q 282 -27 343 -27 q 161 -20 222 -27 q 146 226 151 98 q 139 481 141 354 q 138 735 137 608 q 141 980 140 862 q 97 982 125 982 q 47 987 70 982 q 49 1057 47 1020 q 55 1132 51 1094 q 65 1204 59 1169 q 77 1266 70 1238 q 188 1286 115 1279 q 355 1298 262 1294 q 553 1302 448 1302 q 757 1300 658 1302 q 941 1291 855 1297 q 1080 1275 1026 1286 q 1161 1179 1120 1238 q 1235 1043 1202 1119 q 1286 880 1268 966 q 1295 704 1304 794 q 1211 602 1265 665 q 1098 480 1158 538 q 1129 425 1111 461 q 1168 347 1147 388 q 1210 260 1188 305 q 1250 176 1232 215 q 1283 107 1269 137 q 1302 63 1297 77 m 847 733 q 846 794 850 761 q 838 859 843 827 q 827 914 833 890 q 820 947 822 938 q 771 972 807 962 q 696 987 736 983 q 620 988 657 991 q 565 972 583 986 q 561 891 562 936 q 559 802 559 847 q 561 719 559 758 q 569 655 563 680 q 636 659 597 655 q 714 670 675 662 q 789 693 754 679 q 847 733 825 708 "},"á":{"x_min":43.0625,"x_max":1095.359375,"ha":1158,"o":"m 1086 30 q 965 4 1037 16 q 809 -17 893 -8 q 636 -32 726 -26 q 464 -40 547 -38 q 311 -39 381 -43 q 195 -27 241 -36 q 154 28 177 -2 q 110 93 131 59 q 70 158 88 126 q 43 215 52 190 q 68 394 45 305 q 122 544 90 483 q 217 584 155 565 q 354 620 279 602 q 511 654 429 638 q 668 682 593 669 q 659 720 663 698 q 651 750 655 741 q 562 779 619 769 q 438 791 505 788 q 301 793 370 794 q 176 793 231 793 q 177 864 175 826 q 186 938 180 902 q 202 1000 193 973 q 223 1040 211 1027 q 417 1055 318 1050 q 616 1058 516 1061 q 813 1041 716 1055 q 1001 1002 911 1027 q 1045 902 1027 969 q 1073 747 1062 834 q 1089 559 1084 659 q 1095 363 1094 459 q 1093 179 1095 266 q 1086 30 1090 91 m 697 215 q 695 334 695 277 q 691 451 694 391 q 585 434 636 440 q 483 402 534 427 q 469 360 473 384 q 466 310 465 336 q 472 259 468 284 q 484 215 477 234 q 569 204 516 201 q 697 215 622 208 m 947 1317 q 818 1163 884 1240 q 687 1042 752 1086 q 584 1055 641 1044 q 484 1083 527 1065 q 528 1163 508 1119 q 565 1249 548 1207 q 594 1330 581 1292 q 615 1393 606 1368 q 793 1373 709 1393 q 947 1317 876 1353 "},"o":{"x_min":55.5625,"x_max":1160.734375,"ha":1222,"o":"m 1154 208 q 1075 104 1113 158 q 993 1 1037 51 q 825 -16 926 -11 q 614 -22 725 -22 q 395 -18 504 -22 q 205 -4 287 -13 q 165 43 187 13 q 123 105 144 72 q 84 172 102 138 q 56 230 66 205 q 55 372 55 294 q 55 529 55 451 q 57 681 55 608 q 62 811 59 755 q 105 857 79 827 q 160 916 131 886 q 215 971 188 945 q 259 1008 241 997 q 413 1020 323 1012 q 599 1032 502 1027 q 789 1034 695 1036 q 955 1019 883 1033 q 1057 911 1008 977 q 1147 786 1107 844 q 1154 645 1151 729 q 1159 475 1158 561 q 1160 316 1161 388 q 1154 208 1159 243 m 741 270 q 747 502 744 375 q 733 762 750 629 q 664 760 697 761 q 602 757 632 759 q 543 747 572 754 q 483 727 513 741 q 472 678 476 713 q 467 595 469 643 q 465 493 465 547 q 465 388 465 438 q 466 300 465 338 q 468 241 468 261 q 535 224 497 227 q 612 225 573 220 q 686 241 651 229 q 741 270 720 254 "},"5":{"x_min":54.453125,"x_max":1038.3125,"ha":1095,"o":"m 1004 1005 q 885 998 950 1001 q 753 993 820 995 q 620 987 686 991 q 500 976 554 983 q 477 886 480 937 q 473 787 475 836 q 600 761 533 776 q 737 732 668 745 q 875 703 807 718 q 1002 677 943 688 q 1034 547 1026 618 q 1035 406 1041 477 q 1011 265 1029 334 q 965 143 993 197 q 770 55 872 91 q 563 -6 668 19 q 354 -49 459 -31 q 148 -80 250 -66 q 126 -29 136 -70 q 110 62 116 12 q 101 159 104 112 q 100 226 98 205 q 223 240 155 229 q 356 264 291 251 q 477 294 422 277 q 559 326 531 311 q 569 379 566 345 q 569 441 572 412 q 516 463 552 454 q 429 479 479 472 q 325 494 380 487 q 218 510 270 501 q 123 531 166 519 q 55 562 80 544 q 56 734 52 643 q 68 916 61 826 q 87 1088 76 1005 q 108 1233 98 1170 q 311 1275 201 1262 q 536 1293 420 1288 q 764 1294 651 1297 q 977 1286 877 1291 q 1001 1148 997 1220 q 1004 1005 1005 1076 "},"İ":{"x_min":86.953125,"x_max":512.546875,"ha":608,"o":"m 512 1123 q 503 580 512 852 q 479 29 494 308 q 441 19 468 23 q 381 11 415 15 q 309 5 347 8 q 235 2 270 2 q 171 2 200 1 q 127 4 143 2 q 114 275 119 131 q 109 563 109 418 q 109 846 108 708 q 115 1100 111 984 q 212 1113 161 1108 q 315 1120 263 1118 q 418 1123 368 1123 q 512 1123 468 1123 m 476 1295 q 438 1265 468 1279 q 369 1243 408 1251 q 286 1229 330 1234 q 202 1227 241 1225 q 135 1235 163 1229 q 98 1255 106 1241 q 88 1294 90 1270 q 87 1344 86 1318 q 92 1395 88 1370 q 98 1434 95 1420 q 125 1477 102 1459 q 177 1508 148 1495 q 236 1527 206 1520 q 284 1537 266 1533 q 321 1537 300 1540 q 365 1529 343 1534 q 409 1516 387 1523 q 444 1501 430 1509 q 473 1401 463 1454 q 476 1295 483 1348 "},"õ":{"x_min":55.5625,"x_max":1160.734375,"ha":1222,"o":"m 1154 208 q 1075 104 1113 158 q 993 1 1037 51 q 825 -16 926 -11 q 614 -22 725 -22 q 395 -18 504 -22 q 205 -4 287 -13 q 165 43 187 13 q 123 105 144 72 q 84 172 102 138 q 56 230 66 205 q 55 372 55 294 q 55 529 55 451 q 57 681 55 608 q 62 811 59 755 q 105 857 79 827 q 160 916 131 886 q 215 971 188 945 q 259 1008 241 997 q 413 1020 323 1012 q 599 1032 502 1027 q 789 1034 695 1036 q 955 1019 883 1033 q 1057 911 1008 977 q 1147 786 1107 844 q 1154 645 1151 729 q 1159 475 1158 561 q 1160 316 1161 388 q 1154 208 1159 243 m 741 270 q 747 502 744 375 q 733 762 750 629 q 664 760 697 761 q 602 757 632 759 q 543 747 572 754 q 483 727 513 741 q 472 678 476 713 q 467 595 469 643 q 465 493 465 547 q 465 388 465 438 q 466 300 465 338 q 468 241 468 261 q 535 224 497 227 q 612 225 573 220 q 686 241 651 229 q 741 270 720 254 m 1009 1278 q 963 1220 995 1261 q 889 1137 930 1179 q 805 1064 848 1094 q 729 1035 762 1033 q 643 1056 691 1037 q 550 1092 595 1074 q 469 1123 505 1110 q 419 1132 433 1136 q 374 1100 401 1125 q 324 1049 347 1075 q 249 1089 280 1067 q 206 1133 219 1111 q 251 1204 226 1167 q 305 1276 276 1242 q 366 1339 334 1311 q 429 1378 398 1367 q 497 1385 460 1392 q 571 1360 533 1378 q 650 1321 609 1343 q 733 1282 691 1299 q 790 1281 762 1269 q 842 1311 819 1293 q 894 1365 869 1333 q 960 1329 929 1351 q 1009 1278 991 1307 "},"7":{"x_min":68.8125,"x_max":1004.25,"ha":1056,"o":"m 1002 1015 q 907 828 965 944 q 779 572 848 712 q 633 281 709 433 q 483 -16 556 129 q 388 -18 441 -20 q 281 -9 336 -16 q 178 11 227 -1 q 94 40 129 23 q 213 323 152 188 q 332 581 275 458 q 441 813 390 704 q 530 1019 491 923 q 424 1021 484 1023 q 300 1016 363 1019 q 177 1009 237 1012 q 72 1011 118 1005 q 70 1141 66 1072 q 87 1273 73 1211 q 310 1295 195 1288 q 537 1302 425 1302 q 756 1298 650 1302 q 951 1288 862 1294 q 974 1219 963 1257 q 992 1144 984 1182 q 1002 1073 1000 1107 q 1002 1015 1005 1038 "},"K":{"x_min":76.9375,"x_max":1263.984375,"ha":1297,"o":"m 1263 1213 q 1202 1102 1243 1175 q 1113 943 1161 1029 q 1019 770 1066 857 q 938 616 972 683 q 1010 463 970 536 q 1091 322 1050 390 q 1174 186 1133 254 q 1250 44 1215 119 q 1154 16 1212 29 q 1036 -4 1097 4 q 921 -16 976 -12 q 834 -22 866 -20 q 740 116 784 47 q 659 246 695 186 q 595 352 622 306 q 551 420 568 398 q 529 429 538 429 q 513 422 520 429 q 506 397 506 416 q 508 314 506 363 q 509 211 509 265 q 508 103 509 156 q 504 6 506 50 q 458 -6 490 0 q 385 -16 426 -12 q 299 -23 344 -20 q 212 -27 254 -26 q 138 -26 170 -27 q 88 -20 105 -25 q 79 168 81 56 q 77 404 76 280 q 80 658 77 529 q 86 900 83 787 q 93 1104 90 1013 q 97 1240 95 1194 q 198 1250 136 1248 q 324 1252 261 1252 q 440 1250 387 1252 q 511 1245 493 1247 q 506 1151 509 1202 q 504 1047 504 1100 q 506 941 504 994 q 516 838 509 887 q 538 813 519 815 q 580 847 556 811 q 638 936 602 880 q 712 1053 673 991 q 788 1176 751 1115 q 852 1282 826 1237 q 950 1279 898 1286 q 1054 1261 1001 1272 q 1161 1237 1108 1250 q 1263 1213 1215 1225 "},",":{"x_min":34.71875,"x_max":491.703125,"ha":536,"o":"m 491 284 q 429 169 461 227 q 364 56 397 111 q 299 -43 331 2 q 234 -122 266 -90 q 134 -102 190 -116 q 34 -58 77 -87 q 78 57 58 -5 q 115 183 98 120 q 144 302 131 245 q 165 395 156 358 q 338 366 256 394 q 491 284 420 337 "},"d":{"x_min":57.640625,"x_max":1185.859375,"ha":1288,"o":"m 1184 1269 q 1185 959 1184 1127 q 1185 618 1186 791 q 1181 282 1184 445 q 1166 -12 1177 119 q 1011 -40 1094 -30 q 844 -53 929 -50 q 675 -54 759 -56 q 516 -46 591 -52 q 377 -34 440 -40 q 270 -22 313 -27 q 159 106 212 27 q 62 254 106 184 q 62 392 52 309 q 96 560 72 475 q 157 721 120 645 q 240 841 194 797 q 368 868 302 854 q 500 894 433 883 q 636 911 566 905 q 776 912 705 916 q 777 1000 776 951 q 780 1100 779 1050 q 784 1196 782 1150 q 787 1277 786 1243 q 881 1300 827 1294 q 990 1303 934 1305 q 1097 1292 1045 1301 q 1184 1269 1148 1283 m 770 612 q 644 625 713 627 q 518 594 575 622 q 484 402 494 494 q 488 237 473 311 q 548 225 513 229 q 622 220 583 220 q 699 225 661 220 q 769 237 737 229 q 775 297 773 247 q 775 409 776 347 q 773 529 775 470 q 770 612 772 587 "},"¨":{"x_min":86.640625,"x_max":826.140625,"ha":908,"o":"m 823 843 q 772 797 813 816 q 684 771 732 779 q 597 770 637 763 q 548 801 556 777 q 541 843 543 816 q 541 897 540 869 q 544 954 541 926 q 548 1000 547 983 q 568 1048 552 1027 q 605 1081 584 1068 q 647 1102 626 1094 q 683 1113 669 1111 q 742 1106 707 1119 q 800 1076 777 1093 q 822 962 815 1022 q 823 843 829 902 m 394 833 q 363 798 387 813 q 309 772 340 783 q 243 757 279 762 q 177 752 208 751 q 124 762 147 754 q 95 786 101 770 q 88 830 90 802 q 86 889 86 858 q 90 950 87 920 q 95 997 93 979 q 117 1047 100 1026 q 157 1082 134 1068 q 204 1105 180 1097 q 243 1118 227 1113 q 272 1118 255 1120 q 307 1109 290 1116 q 341 1094 325 1102 q 369 1077 358 1086 q 393 958 384 1020 q 394 833 401 895 "},"Ô":{"x_min":65.28125,"x_max":1357.90625,"ha":1431,"o":"m 1350 213 q 1257 89 1301 152 q 1161 -31 1213 26 q 1038 -45 1109 -40 q 886 -54 968 -51 q 718 -58 805 -58 q 547 -56 632 -58 q 384 -50 462 -55 q 241 -38 305 -44 q 195 18 220 -16 q 144 93 169 52 q 98 172 119 133 q 66 241 77 211 q 65 409 65 316 q 65 593 65 501 q 68 773 66 686 q 73 926 69 861 q 123 982 93 947 q 187 1052 154 1016 q 252 1119 220 1088 q 304 1159 283 1150 q 418 1170 354 1165 q 553 1180 481 1176 q 701 1188 625 1184 q 851 1192 777 1193 q 993 1187 925 1191 q 1118 1173 1062 1183 q 1179 1116 1148 1148 q 1238 1045 1209 1083 q 1293 970 1266 1008 q 1341 897 1319 932 q 1350 731 1345 830 q 1356 529 1354 632 q 1357 341 1358 427 q 1350 213 1357 255 m 868 277 q 872 407 869 338 q 875 550 875 476 q 871 703 875 625 q 858 859 868 782 q 777 857 815 858 q 704 853 740 857 q 635 842 669 850 q 565 818 601 834 q 552 760 556 802 q 546 661 548 718 q 543 541 544 605 q 543 418 543 476 q 545 312 544 359 q 547 243 547 265 q 625 223 580 227 q 716 225 670 219 q 802 244 762 230 q 868 277 843 258 m 1057 1275 q 991 1268 1027 1272 q 920 1260 954 1263 q 860 1254 886 1257 q 827 1255 834 1252 q 804 1295 818 1273 q 776 1339 790 1318 q 750 1379 762 1361 q 730 1408 737 1398 q 722 1419 727 1411 q 708 1427 716 1427 q 687 1418 695 1427 q 676 1402 679 1408 q 628 1329 654 1369 q 586 1251 602 1290 q 509 1248 547 1248 q 438 1248 470 1247 q 384 1253 406 1250 q 352 1258 361 1257 q 386 1338 366 1294 q 431 1427 406 1382 q 482 1519 455 1473 q 536 1605 509 1565 q 607 1609 562 1608 q 700 1612 652 1611 q 791 1612 748 1614 q 854 1609 833 1611 q 901 1529 875 1573 q 954 1439 927 1484 q 1008 1352 982 1394 q 1057 1275 1034 1309 "},"E":{"x_min":48.609375,"x_max":1103.78125,"ha":1178,"o":"m 1100 1044 q 889 1041 994 1038 q 679 1033 784 1044 q 660 983 668 1016 q 650 911 652 950 q 652 834 648 872 q 665 772 655 797 q 694 770 669 770 q 756 771 719 770 q 836 772 793 772 q 921 772 880 772 q 998 771 962 772 q 1051 766 1033 770 q 1059 658 1057 716 q 1055 552 1062 600 q 958 546 1008 547 q 858 545 908 545 q 759 541 808 544 q 662 529 709 538 q 649 474 652 508 q 647 402 645 440 q 652 329 648 365 q 659 272 655 294 q 746 260 690 262 q 866 260 802 258 q 990 263 929 262 q 1090 261 1051 265 q 1101 125 1100 197 q 1086 -9 1102 54 q 863 -27 972 -20 q 642 -35 754 -34 q 413 -30 530 -36 q 169 -9 297 -25 q 156 235 159 105 q 152 499 152 365 q 153 768 151 633 q 158 1030 155 904 q 103 1031 134 1030 q 48 1032 72 1032 q 59 1162 51 1095 q 81 1287 68 1229 q 238 1311 154 1302 q 411 1325 322 1320 q 593 1331 501 1330 q 772 1330 684 1332 q 941 1326 861 1329 q 1088 1320 1022 1323 q 1100 1261 1097 1298 q 1103 1185 1102 1225 q 1102 1107 1104 1145 q 1100 1044 1101 1069 "},"Y":{"x_min":50,"x_max":1301.5,"ha":1339,"o":"m 1301 1269 q 1196 1090 1251 1188 q 1084 886 1141 991 q 968 675 1026 780 q 857 480 911 570 q 851 232 854 351 q 844 11 848 113 q 745 -2 797 1 q 642 -4 694 -5 q 539 -1 590 -4 q 443 1 488 1 q 439 249 443 126 q 433 497 436 372 q 365 597 402 536 q 288 729 327 658 q 211 877 250 800 q 140 1027 172 954 q 84 1163 108 1100 q 50 1269 59 1226 q 170 1278 102 1272 q 300 1288 237 1284 q 409 1294 362 1293 q 468 1293 455 1295 q 499 1203 476 1255 q 547 1099 522 1151 q 595 1003 573 1047 q 625 941 618 959 q 632 926 626 936 q 647 904 638 916 q 664 884 655 893 q 682 876 673 876 q 720 894 705 876 q 741 922 736 912 q 823 1107 784 1012 q 911 1291 862 1202 q 1046 1295 982 1295 q 1162 1290 1111 1294 q 1250 1280 1213 1286 q 1301 1269 1286 1275 "},"\"":{"x_min":73.609375,"x_max":754.234375,"ha":803,"o":"m 362 1152 q 362 1014 362 1084 q 359 879 362 944 q 351 755 356 815 q 334 651 345 695 q 251 620 298 633 q 161 611 204 607 q 145 742 156 673 q 121 877 134 811 q 95 1001 108 943 q 73 1100 81 1059 q 215 1156 143 1143 q 362 1152 288 1169 m 754 1118 q 728 985 741 1052 q 701 854 715 918 q 671 734 687 790 q 636 634 655 677 q 545 612 595 620 q 452 615 494 604 q 461 743 459 675 q 461 876 462 811 q 456 999 459 941 q 451 1095 454 1057 q 605 1136 529 1132 q 754 1118 682 1141 "},"‹":{"x_min":66.671875,"x_max":726.453125,"ha":767,"o":"m 726 1122 q 645 975 684 1043 q 567 844 605 907 q 491 723 529 782 q 418 605 454 665 q 486 481 448 548 q 561 346 523 415 q 637 213 600 277 q 705 97 675 148 q 611 86 663 91 q 511 75 559 80 q 426 67 462 69 q 380 68 390 65 q 213 328 291 198 q 66 593 134 458 q 231 869 154 733 q 390 1148 308 1005 q 500 1150 445 1152 q 602 1143 555 1148 q 681 1132 648 1138 q 726 1122 713 1125 "},"ê":{"x_min":51,"x_max":1149.5,"ha":1201,"o":"m 1148 419 q 1025 404 1104 412 q 852 388 945 395 q 659 376 758 381 q 476 368 559 370 q 484 322 479 343 q 500 286 490 301 q 563 263 520 273 q 659 246 607 252 q 770 234 712 240 q 878 225 827 229 q 967 216 929 220 q 1019 206 1005 212 q 1018 139 1020 177 q 1009 66 1015 101 q 993 4 1002 31 q 972 -31 984 -23 q 763 -25 876 -31 q 537 -4 651 -18 q 313 33 423 9 q 112 87 204 56 q 71 181 86 119 q 52 323 56 244 q 54 491 48 402 q 74 661 59 579 q 111 815 88 744 q 162 929 133 886 q 270 966 198 948 q 429 998 341 984 q 613 1023 518 1012 q 793 1037 709 1033 q 941 1038 877 1041 q 1029 1026 1005 1036 q 1084 898 1061 970 q 1123 746 1108 826 q 1144 582 1137 666 q 1148 419 1151 498 m 741 611 q 741 693 744 650 q 719 769 737 736 q 674 767 695 768 q 629 763 652 766 q 581 755 607 761 q 523 736 555 750 q 500 664 511 695 q 481 579 488 633 q 625 587 558 576 q 741 611 693 598 m 966 1051 q 900 1046 937 1050 q 829 1038 863 1042 q 769 1033 794 1035 q 737 1033 744 1032 q 713 1074 727 1051 q 684 1119 698 1097 q 658 1158 670 1140 q 638 1185 645 1175 q 631 1197 635 1189 q 617 1206 626 1206 q 597 1195 605 1206 q 585 1181 588 1185 q 538 1107 563 1147 q 495 1028 512 1067 q 418 1025 456 1025 q 348 1026 380 1025 q 293 1031 316 1028 q 262 1035 270 1033 q 296 1116 276 1072 q 340 1206 316 1160 q 391 1297 365 1251 q 444 1382 417 1342 q 516 1387 472 1385 q 608 1390 560 1389 q 699 1390 656 1390 q 763 1389 741 1389 q 810 1306 784 1351 q 864 1217 837 1261 q 917 1129 891 1172 q 966 1051 944 1086 "},"Ï":{"x_min":11.5625,"x_max":611,"ha":608,"o":"m 512 1123 q 503 580 512 852 q 479 29 494 308 q 441 19 468 23 q 381 11 415 15 q 309 5 347 8 q 235 2 270 2 q 171 2 200 1 q 127 4 143 2 q 114 275 119 131 q 109 563 109 418 q 109 846 108 708 q 115 1100 111 984 q 212 1113 161 1108 q 315 1120 263 1118 q 418 1123 368 1123 q 512 1123 468 1123 m 608 1275 q 567 1229 600 1248 q 496 1202 534 1209 q 425 1201 458 1194 q 386 1232 393 1208 q 380 1273 381 1245 q 379 1329 379 1300 q 382 1386 380 1358 q 386 1432 384 1415 q 402 1479 388 1459 q 433 1511 416 1498 q 467 1533 450 1525 q 495 1544 484 1541 q 543 1537 515 1551 q 590 1507 572 1523 q 607 1393 601 1452 q 608 1275 613 1334 m 261 1262 q 216 1214 252 1234 q 138 1186 180 1194 q 61 1186 97 1179 q 19 1218 26 1193 q 12 1262 13 1234 q 11 1320 11 1290 q 15 1380 12 1351 q 19 1427 18 1409 q 36 1479 22 1458 q 70 1514 51 1500 q 107 1536 88 1527 q 137 1548 126 1544 q 161 1548 148 1551 q 189 1539 175 1545 q 217 1525 204 1533 q 240 1508 230 1516 q 260 1389 254 1451 q 261 1262 266 1326 "},"„":{"x_min":79.171875,"x_max":811.171875,"ha":831,"o":"m 423 473 q 384 343 404 409 q 342 218 363 277 q 299 104 320 158 q 254 12 277 51 q 166 17 215 9 q 79 48 118 25 q 102 176 93 108 q 118 311 112 244 q 129 439 125 379 q 136 541 133 500 q 286 536 213 554 q 423 473 358 518 m 811 390 q 749 275 780 333 q 686 163 718 218 q 622 63 654 109 q 562 -15 591 18 q 471 1 522 -12 q 383 41 420 15 q 427 157 406 94 q 466 283 448 220 q 497 401 484 345 q 520 494 511 456 q 676 468 604 495 q 811 390 748 441 "},"Â":{"x_min":4.171875,"x_max":1398.71875,"ha":1410,"o":"m 1398 2 q 1288 -11 1345 -5 q 1175 -19 1232 -16 q 1067 -22 1119 -22 q 973 -22 1015 -23 q 954 33 962 9 q 939 77 945 56 q 927 122 933 98 q 913 177 920 145 q 802 185 865 183 q 676 186 738 187 q 558 180 613 184 q 466 168 502 176 q 442 121 452 141 q 424 81 431 101 q 410 38 416 61 q 395 -15 404 15 q 304 -27 356 -23 q 196 -31 251 -31 q 90 -27 141 -31 q 4 -18 40 -23 q 50 179 16 62 q 127 424 83 295 q 219 682 170 552 q 311 919 268 812 q 272 925 290 920 q 241 931 256 927 q 218 937 226 934 q 231 990 225 961 q 246 1048 238 1019 q 262 1103 254 1077 q 280 1148 270 1129 q 391 1166 323 1158 q 541 1177 459 1173 q 709 1183 622 1182 q 879 1182 797 1184 q 1034 1173 962 1179 q 1154 1157 1105 1168 q 1220 876 1187 1015 q 1285 597 1254 737 q 1345 309 1316 456 q 1398 2 1375 162 m 844 476 q 832 570 840 518 q 812 675 823 623 q 788 772 801 726 q 761 848 775 818 q 722 881 744 884 q 686 848 701 877 q 671 813 682 841 q 647 747 661 784 q 620 666 634 709 q 593 584 605 623 q 575 515 581 544 q 568 476 568 486 q 632 469 591 470 q 716 468 673 468 q 794 470 758 468 q 844 476 830 473 m 1077 1252 q 1011 1247 1048 1251 q 941 1239 975 1243 q 881 1234 907 1236 q 848 1234 855 1233 q 825 1275 838 1252 q 797 1320 811 1298 q 770 1359 783 1341 q 751 1387 758 1377 q 743 1400 748 1391 q 729 1408 737 1408 q 709 1398 716 1408 q 697 1382 701 1387 q 649 1309 675 1348 q 607 1232 623 1269 q 529 1227 568 1227 q 459 1227 491 1226 q 404 1232 427 1229 q 373 1237 381 1236 q 407 1318 387 1275 q 452 1407 427 1361 q 503 1498 476 1452 q 556 1584 530 1544 q 628 1589 583 1587 q 721 1592 673 1591 q 811 1592 769 1593 q 876 1590 854 1591 q 923 1509 897 1552 q 977 1420 950 1465 q 1029 1331 1004 1375 q 1077 1252 1055 1287 "},"Í":{"x_min":108.796875,"x_max":627.828125,"ha":608,"o":"m 512 1123 q 503 580 512 852 q 479 29 494 308 q 441 19 468 23 q 381 11 415 15 q 309 5 347 8 q 235 2 270 2 q 171 2 200 1 q 127 4 143 2 q 114 275 119 131 q 109 563 109 418 q 109 846 108 708 q 115 1100 111 984 q 212 1113 161 1108 q 315 1120 263 1118 q 418 1123 368 1123 q 512 1123 468 1123 m 627 1466 q 564 1389 597 1427 q 499 1313 531 1350 q 433 1244 466 1276 q 368 1191 400 1212 q 319 1196 345 1193 q 265 1204 293 1200 q 213 1216 238 1209 q 166 1233 187 1223 q 210 1313 190 1269 q 247 1399 230 1357 q 276 1479 263 1441 q 297 1543 288 1518 q 473 1523 390 1543 q 627 1466 556 1502 "},"´":{"x_min":34.71875,"x_max":497.265625,"ha":536,"o":"m 497 1032 q 368 878 434 955 q 237 757 302 801 q 134 770 191 759 q 34 798 77 780 q 78 878 58 834 q 115 964 98 922 q 144 1045 131 1007 q 165 1108 156 1083 q 343 1088 259 1108 q 497 1032 426 1068 "},"ì":{"x_min":-2.28125,"x_max":461.140625,"ha":547,"o":"m 461 1015 q 452 524 461 775 q 431 26 444 273 q 372 13 416 18 q 277 4 327 8 q 181 1 227 1 q 115 2 134 1 q 102 246 106 116 q 97 509 98 376 q 98 767 97 641 q 104 994 100 893 q 191 1007 145 1002 q 284 1013 237 1011 q 375 1015 330 1015 q 461 1015 420 1015 m -2 1327 q 151 1384 68 1364 q 328 1404 235 1404 q 349 1341 336 1379 q 378 1260 361 1302 q 415 1174 394 1218 q 460 1094 435 1130 q 412 1078 438 1086 q 359 1066 386 1071 q 306 1057 332 1061 q 257 1052 279 1054 q 126 1174 192 1097 q -2 1327 60 1251 "},"±":{"x_min":67.5,"x_max":694.03125,"ha":753,"o":"m 690 648 q 624 645 662 645 q 541 641 586 644 q 538 586 540 616 q 534 524 536 556 q 530 459 531 491 q 526 398 529 427 q 470 387 512 391 q 382 381 429 383 q 293 379 336 379 q 230 380 250 379 q 226 440 229 406 q 221 507 223 473 q 218 574 219 541 q 215 633 216 607 q 138 627 173 630 q 77 622 102 625 q 68 697 70 657 q 68 775 66 737 q 72 847 69 813 q 81 900 76 880 q 131 904 97 904 q 211 907 166 905 q 211 970 211 936 q 213 1039 212 1004 q 216 1109 215 1075 q 219 1170 218 1144 q 388 1186 297 1183 q 555 1187 479 1188 q 555 1118 555 1155 q 555 1044 555 1082 q 555 972 555 1007 q 554 908 555 937 q 634 907 600 908 q 684 904 669 907 q 689 847 687 882 q 693 776 691 813 q 693 704 694 738 q 690 648 693 670 m 683 16 q 535 10 611 12 q 384 6 459 8 q 232 1 308 5 q 84 -11 156 -2 q 71 70 75 27 q 70 155 68 113 q 77 234 72 197 q 90 291 83 270 q 166 295 119 294 q 269 298 213 297 q 384 300 325 300 q 500 300 444 300 q 601 298 555 300 q 675 294 647 297 q 682 234 679 272 q 688 156 686 197 q 688 77 690 115 q 683 16 687 40 "},"Ú":{"x_min":82.296875,"x_max":1268.15625,"ha":1353,"o":"m 1268 1133 q 1263 921 1266 1036 q 1259 691 1261 807 q 1258 466 1258 575 q 1261 272 1258 356 q 1232 209 1251 243 q 1188 140 1212 175 q 1138 70 1163 105 q 1088 9 1112 36 q 904 3 1009 8 q 685 -4 798 -1 q 460 -8 572 -8 q 255 0 348 -8 q 211 50 236 18 q 163 119 187 83 q 119 190 138 155 q 90 251 100 226 q 88 369 90 298 q 85 521 87 440 q 82 688 83 602 q 82 854 81 775 q 86 998 83 933 q 94 1101 88 1063 q 309 1117 205 1115 q 531 1105 413 1119 q 519 879 522 984 q 517 679 516 775 q 522 496 518 584 q 533 319 527 408 q 601 303 561 308 q 682 302 641 298 q 761 316 723 305 q 823 350 800 327 q 822 538 823 440 q 820 736 820 636 q 819 931 819 836 q 820 1108 819 1026 q 1041 1131 932 1132 q 1268 1133 1151 1130 m 1012 1452 q 884 1298 950 1375 q 752 1176 818 1222 q 704 1181 730 1177 q 650 1191 677 1184 q 597 1203 623 1197 q 550 1219 572 1209 q 595 1300 575 1257 q 631 1385 615 1343 q 661 1465 648 1427 q 682 1530 673 1502 q 858 1508 775 1527 q 1012 1452 941 1489 "},"|":{"x_min":49.90625,"x_max":745.0625,"ha":797,"o":"m 738 976 q 675 972 711 973 q 608 969 638 970 q 600 626 605 798 q 587 279 594 454 q 653 278 619 279 q 707 275 687 277 q 713 215 711 252 q 718 138 716 177 q 719 63 720 100 q 713 4 718 26 q 562 -2 643 0 q 399 -6 481 -5 q 236 -11 316 -8 q 84 -23 155 -15 q 71 55 75 12 q 70 138 68 98 q 77 214 72 179 q 88 270 81 250 q 113 272 98 270 q 146 274 129 273 q 181 275 163 275 q 213 276 200 276 q 206 618 208 444 q 208 954 205 793 q 175 953 194 954 q 137 951 156 952 q 99 947 118 950 q 66 944 80 945 q 52 1031 55 984 q 50 1123 48 1077 q 58 1206 52 1168 q 72 1268 63 1244 q 156 1272 104 1269 q 272 1275 209 1275 q 404 1277 336 1276 q 534 1277 472 1277 q 649 1276 597 1277 q 730 1270 701 1275 q 738 1206 734 1245 q 743 1124 741 1166 q 744 1041 745 1082 q 738 976 743 1001 "},"§":{"x_min":65.28125,"x_max":1083.96875,"ha":1128,"o":"m 1050 900 q 1082 695 1076 801 q 1077 486 1087 588 q 1043 289 1066 383 q 987 122 1019 195 q 797 61 898 87 q 591 15 697 34 q 379 -16 486 -4 q 173 -38 273 -29 q 152 9 161 -23 q 136 76 143 41 q 127 143 130 111 q 125 187 123 175 q 198 197 155 191 q 290 209 241 202 q 388 222 338 216 q 482 237 438 229 q 559 253 526 245 q 605 268 591 261 q 623 284 615 272 q 634 309 632 295 q 628 334 636 322 q 597 347 620 345 q 531 356 572 351 q 455 366 491 362 q 376 374 423 369 q 277 386 329 379 q 173 402 225 393 q 80 422 122 411 q 66 559 69 483 q 66 718 63 636 q 79 884 69 801 q 104 1042 88 968 q 139 1175 119 1116 q 184 1266 159 1233 q 288 1289 225 1277 q 427 1311 351 1301 q 584 1332 502 1322 q 744 1348 666 1343 q 888 1357 822 1354 q 1000 1359 955 1361 q 1007 1319 1002 1345 q 1014 1261 1011 1293 q 1019 1200 1018 1230 q 1018 1145 1020 1169 q 906 1135 970 1143 q 773 1118 841 1127 q 641 1100 705 1109 q 530 1084 577 1091 q 504 1036 511 1066 q 508 977 497 1005 q 573 966 531 972 q 666 952 615 959 q 774 936 718 944 q 883 921 830 929 q 979 908 936 913 q 1050 900 1023 902 m 708 693 q 657 697 688 693 q 591 707 626 701 q 519 720 555 713 q 451 733 483 727 q 431 670 433 695 q 438 611 429 645 q 505 592 466 600 q 582 580 544 584 q 654 574 620 576 q 704 572 687 572 q 717 636 715 609 q 708 693 719 662 "},"Ý":{"x_min":50,"x_max":1301.5,"ha":1275,"o":"m 1301 1143 q 1196 982 1251 1070 q 1084 797 1141 893 q 968 608 1026 702 q 857 431 911 513 q 851 210 854 318 q 844 9 848 102 q 745 -1 797 1 q 642 -4 694 -4 q 539 -1 590 -4 q 443 1 488 1 q 439 223 443 112 q 433 447 436 334 q 365 537 402 481 q 288 656 327 593 q 211 789 250 719 q 140 924 172 859 q 84 1046 108 988 q 50 1143 59 1104 q 170 1150 102 1145 q 300 1159 237 1155 q 409 1166 362 1163 q 468 1163 455 1168 q 499 1083 476 1130 q 547 989 522 1036 q 595 903 573 943 q 625 845 618 863 q 632 833 626 843 q 647 813 638 823 q 664 796 655 804 q 682 788 673 788 q 720 804 705 787 q 741 830 736 822 q 823 996 784 911 q 911 1162 862 1082 q 1046 1166 982 1168 q 1162 1161 1111 1165 q 1250 1152 1213 1157 q 1301 1143 1286 1147 m 977 1464 q 914 1386 947 1426 q 849 1309 882 1345 q 783 1242 816 1273 q 718 1188 750 1211 q 616 1202 672 1193 q 515 1230 559 1212 q 560 1311 540 1268 q 597 1396 580 1354 q 626 1477 613 1439 q 647 1540 638 1515 q 823 1520 740 1540 q 977 1464 907 1501 "},"b":{"x_min":97.75,"x_max":1200.09375,"ha":1253,"o":"m 1200 587 q 1182 445 1194 529 q 1154 282 1170 362 q 1116 137 1137 202 q 1069 50 1094 72 q 982 32 1036 43 q 864 13 927 22 q 734 -4 801 4 q 607 -15 666 -12 q 340 -21 468 -23 q 108 5 212 -19 q 100 131 102 47 q 97 325 98 216 q 99 560 97 434 q 103 811 101 686 q 108 1054 105 937 q 112 1262 111 1170 q 211 1288 156 1276 q 318 1307 265 1300 q 421 1317 372 1314 q 505 1318 470 1320 q 501 1226 504 1286 q 497 1102 498 1166 q 495 986 495 1038 q 497 913 495 933 q 568 922 520 919 q 672 929 616 926 q 786 934 729 933 q 884 936 843 936 q 970 883 925 920 q 1059 795 1015 845 q 1140 691 1102 745 q 1200 587 1177 636 m 750 608 q 705 629 736 620 q 638 640 675 637 q 566 639 601 643 q 505 626 530 636 q 497 520 500 577 q 496 409 495 463 q 500 308 497 354 q 506 236 502 262 q 556 231 530 230 q 610 236 583 233 q 662 245 637 238 q 707 258 687 251 q 731 322 722 280 q 745 413 740 363 q 750 515 750 463 q 750 608 751 566 "},"q":{"x_min":63.890625,"x_max":1165.375,"ha":1253,"o":"m 63 433 q 79 574 68 491 q 109 736 91 657 q 147 882 126 816 q 193 972 169 948 q 280 987 226 977 q 398 1006 334 997 q 529 1023 462 1015 q 655 1034 595 1032 q 922 1041 794 1043 q 1155 1013 1050 1040 q 1163 887 1161 972 q 1165 694 1165 802 q 1163 460 1165 586 q 1160 209 1162 334 q 1155 -33 1158 83 q 1151 -241 1152 -150 q 1052 -268 1105 -255 q 944 -287 998 -280 q 841 -297 890 -294 q 758 -298 793 -301 q 763 -206 761 -266 q 766 -82 765 -147 q 767 35 766 -18 q 765 106 768 88 q 694 97 741 101 q 591 89 647 93 q 477 84 534 86 q 377 83 419 83 q 293 136 338 98 q 203 225 247 175 q 122 329 159 275 q 63 433 86 384 m 513 411 q 558 391 527 398 q 625 380 588 383 q 697 381 661 377 q 758 394 733 384 q 766 500 765 443 q 766 611 768 556 q 762 711 765 665 q 755 783 759 757 q 706 788 733 788 q 652 784 679 788 q 600 774 625 780 q 555 761 575 768 q 532 697 541 738 q 518 605 523 655 q 513 504 513 555 q 513 411 512 452 "},"Ω":{"x_min":60.5625,"x_max":1335.03125,"ha":1425,"o":"m 1333 304 q 1334 236 1336 279 q 1327 146 1332 193 q 1318 58 1323 100 q 1311 -8 1314 16 q 1202 -12 1263 -12 q 1075 -12 1140 -12 q 950 -14 1011 -12 q 841 -26 888 -16 q 797 119 813 45 q 786 275 782 193 q 823 456 809 365 q 844 634 837 547 q 851 797 851 720 q 844 940 851 875 q 782 953 818 948 q 707 958 745 958 q 629 952 668 958 q 558 930 590 945 q 547 779 550 859 q 551 614 545 698 q 570 444 556 530 q 605 279 583 358 q 599 127 605 204 q 577 -8 593 50 q 463 -12 530 -12 q 327 -12 397 -12 q 192 -14 258 -12 q 79 -26 126 -16 q 68 60 72 15 q 61 147 63 105 q 61 227 59 190 q 66 288 62 263 q 125 298 84 291 q 211 306 166 305 q 156 431 183 356 q 110 598 129 506 q 83 795 91 690 q 83 1013 75 901 q 181 1132 131 1066 q 284 1254 231 1197 q 422 1273 344 1265 q 582 1285 500 1280 q 747 1291 665 1290 q 898 1293 829 1293 q 1018 1294 968 1293 q 1090 1295 1069 1295 q 1150 1234 1120 1270 q 1209 1159 1180 1198 q 1263 1080 1237 1120 q 1312 1004 1290 1040 q 1306 780 1315 884 q 1280 588 1297 676 q 1241 429 1263 500 q 1194 309 1219 359 q 1279 307 1243 308 q 1333 304 1316 306 "},"Ö":{"x_min":65.28125,"x_max":1357.90625,"ha":1431,"o":"m 1350 213 q 1257 89 1301 152 q 1161 -31 1213 26 q 1038 -45 1109 -40 q 886 -54 968 -51 q 718 -58 805 -58 q 547 -56 632 -58 q 384 -50 462 -55 q 241 -38 305 -44 q 195 18 220 -16 q 144 93 169 52 q 98 172 119 133 q 66 241 77 211 q 65 409 65 316 q 65 593 65 501 q 68 773 66 686 q 73 926 69 861 q 123 982 93 947 q 187 1052 154 1016 q 252 1119 220 1088 q 304 1159 283 1150 q 418 1170 354 1165 q 553 1180 481 1176 q 701 1188 625 1184 q 851 1192 777 1193 q 993 1187 925 1191 q 1118 1173 1062 1183 q 1179 1116 1148 1148 q 1238 1045 1209 1083 q 1293 970 1266 1008 q 1341 897 1319 932 q 1350 731 1345 830 q 1356 529 1354 632 q 1357 341 1358 427 q 1350 213 1357 255 m 868 277 q 872 407 869 338 q 875 550 875 476 q 871 703 875 625 q 858 859 868 782 q 777 857 815 858 q 704 853 740 857 q 635 842 669 850 q 565 818 601 834 q 552 760 556 802 q 546 661 548 718 q 543 541 544 605 q 543 418 543 476 q 545 312 544 359 q 547 243 547 265 q 625 223 580 227 q 716 225 670 219 q 802 244 762 230 q 868 277 843 258 m 1073 1326 q 1045 1294 1066 1308 q 995 1270 1023 1280 q 934 1254 966 1259 q 873 1251 901 1250 q 825 1260 845 1252 q 798 1283 804 1268 q 791 1325 793 1298 q 790 1380 788 1351 q 793 1438 791 1409 q 798 1483 795 1466 q 818 1530 802 1511 q 855 1563 834 1550 q 897 1584 876 1576 q 933 1597 919 1593 q 992 1589 957 1602 q 1050 1558 1027 1575 q 1072 1445 1065 1505 q 1073 1326 1079 1386 m 644 1315 q 613 1281 637 1297 q 559 1254 590 1265 q 493 1239 527 1244 q 427 1235 458 1234 q 373 1244 395 1236 q 345 1269 351 1252 q 338 1314 340 1286 q 336 1372 336 1341 q 340 1432 337 1402 q 345 1480 343 1461 q 367 1530 350 1509 q 407 1566 384 1551 q 454 1589 430 1580 q 491 1600 477 1597 q 521 1600 504 1602 q 556 1591 538 1598 q 591 1576 575 1584 q 619 1559 607 1568 q 643 1440 634 1502 q 644 1315 651 1377 "},"ﬂ":{"x_min":73.0625,"x_max":1610.09375,"ha":1708,"o":"m 1050 1111 q 888 1087 972 1105 q 741 1027 805 1069 q 720 967 729 1005 q 707 847 712 929 q 779 838 745 840 q 844 837 812 837 q 909 838 876 837 q 976 836 941 838 q 987 772 984 800 q 989 716 990 744 q 983 661 988 688 q 969 598 977 633 q 889 589 919 591 q 833 584 859 587 q 777 577 807 581 q 697 563 747 573 q 695 412 695 494 q 695 254 695 330 q 696 113 695 177 q 698 15 697 48 q 601 0 654 5 q 495 -8 548 -5 q 392 -10 441 -11 q 305 -4 343 -9 q 300 92 302 31 q 294 227 297 152 q 290 388 291 302 q 288 565 288 475 q 179 559 231 562 q 83 550 126 556 q 74 620 76 583 q 73 695 72 658 q 78 763 75 732 q 86 813 81 794 q 170 818 113 816 q 294 820 227 820 q 302 963 297 895 q 316 1088 308 1032 q 336 1184 325 1144 q 363 1244 348 1223 q 529 1295 454 1277 q 679 1320 605 1312 q 830 1330 752 1329 q 1002 1333 908 1332 q 1024 1300 1015 1325 q 1039 1243 1033 1275 q 1048 1175 1045 1211 q 1050 1111 1051 1138 m 1610 1270 q 1607 1093 1608 1205 q 1605 850 1605 980 q 1604 580 1604 719 q 1604 322 1604 441 q 1604 117 1604 204 q 1604 2 1604 30 q 1526 -6 1557 -2 q 1457 -10 1494 -9 q 1366 -8 1419 -11 q 1219 -1 1312 -5 q 1215 149 1218 52 q 1210 363 1212 245 q 1203 611 1207 481 q 1198 862 1200 741 q 1198 1086 1197 983 q 1203 1252 1198 1188 q 1243 1261 1214 1257 q 1312 1269 1272 1266 q 1396 1273 1351 1272 q 1483 1274 1442 1273 q 1559 1273 1525 1275 q 1610 1270 1593 1272 "},"z":{"x_min":45.828125,"x_max":891.578125,"ha":950,"o":"m 888 194 q 888 90 894 141 q 869 -13 882 38 q 669 -31 772 -27 q 465 -36 566 -36 q 268 -32 363 -36 q 93 -26 173 -29 q 72 32 81 0 q 56 97 62 65 q 47 157 50 129 q 47 205 44 186 q 166 368 104 280 q 288 540 229 455 q 396 700 347 625 q 473 825 445 775 q 276 824 377 829 q 81 833 175 819 q 61 938 65 886 q 59 1048 56 990 q 217 1061 120 1052 q 424 1074 313 1069 q 650 1074 534 1079 q 866 1045 766 1069 q 870 988 868 1020 q 873 924 872 957 q 873 860 875 891 q 868 804 872 829 q 770 632 819 711 q 670 482 720 554 q 570 342 620 411 q 472 202 520 273 q 568 197 513 197 q 681 197 623 197 q 793 197 738 197 q 888 194 848 197 "},"™":{"x_min":51.390625,"x_max":1270.9375,"ha":1320,"o":"m 1270 522 q 1184 509 1227 513 q 1093 515 1140 505 q 1080 647 1086 581 q 1069 782 1075 713 q 1062 790 1069 788 q 1052 787 1055 791 q 1034 724 1044 761 q 1016 647 1025 687 q 998 572 1007 608 q 982 508 988 536 q 895 502 941 505 q 809 508 850 500 q 773 639 791 575 q 738 772 755 704 q 727 783 736 780 q 718 755 719 786 q 711 629 715 691 q 705 504 708 566 q 638 497 672 495 q 563 504 604 498 q 567 667 562 577 q 579 846 572 757 q 593 1013 586 936 q 605 1136 601 1090 q 734 1143 669 1141 q 859 1145 798 1145 q 866 1102 861 1136 q 876 1029 870 1069 q 887 954 882 990 q 895 905 893 919 q 911 880 901 879 q 927 905 922 882 q 950 1008 934 938 q 980 1148 965 1077 q 1109 1154 1045 1155 q 1230 1150 1172 1154 q 1247 836 1238 991 q 1270 522 1255 680 m 533 975 q 499 972 518 972 q 461 975 480 973 q 424 979 441 977 q 395 977 406 980 q 385 759 390 870 q 381 537 380 647 q 345 522 368 527 q 297 516 322 516 q 249 517 273 515 q 205 522 225 519 q 198 601 201 541 q 195 732 195 661 q 193 869 194 802 q 193 970 193 936 q 121 977 162 980 q 56 966 80 973 q 52 1057 48 1015 q 61 1148 56 1098 q 173 1159 113 1155 q 295 1163 233 1163 q 419 1161 358 1163 q 533 1152 480 1158 q 541 1062 538 1104 q 533 975 543 1020 "},"ã":{"x_min":43.0625,"x_max":1095.359375,"ha":1158,"o":"m 1086 30 q 965 4 1037 16 q 809 -17 893 -8 q 636 -32 726 -26 q 464 -40 547 -38 q 311 -39 381 -43 q 195 -27 241 -36 q 154 28 177 -2 q 110 93 131 59 q 70 158 88 126 q 43 215 52 190 q 68 394 45 305 q 122 544 90 483 q 217 584 155 565 q 354 620 279 602 q 511 654 429 638 q 668 682 593 669 q 659 720 663 698 q 651 750 655 741 q 562 779 619 769 q 438 791 505 788 q 301 793 370 794 q 176 793 231 793 q 177 864 175 826 q 186 938 180 902 q 202 1000 193 973 q 223 1040 211 1027 q 417 1055 318 1050 q 616 1058 516 1061 q 813 1041 716 1055 q 1001 1002 911 1027 q 1045 902 1027 969 q 1073 747 1062 834 q 1089 559 1084 659 q 1095 363 1094 459 q 1093 179 1095 266 q 1086 30 1090 91 m 697 215 q 695 334 695 277 q 691 451 694 391 q 585 434 636 440 q 483 402 534 427 q 469 360 473 384 q 466 310 465 336 q 472 259 468 284 q 484 215 477 234 q 569 204 516 201 q 697 215 622 208 m 1006 1307 q 960 1249 992 1290 q 886 1166 927 1208 q 802 1093 845 1123 q 726 1064 759 1062 q 640 1085 688 1066 q 547 1121 592 1103 q 466 1152 502 1139 q 416 1161 430 1165 q 371 1129 398 1154 q 321 1078 344 1104 q 246 1118 277 1096 q 203 1162 216 1140 q 248 1233 223 1196 q 302 1305 273 1271 q 363 1368 331 1340 q 426 1407 395 1396 q 494 1414 457 1421 q 568 1389 530 1407 q 647 1350 606 1372 q 730 1311 688 1328 q 787 1310 759 1298 q 839 1340 816 1322 q 891 1394 866 1362 q 957 1358 926 1380 q 1006 1307 988 1336 "},"æ":{"x_min":43.0625,"x_max":1805.109375,"ha":1856,"o":"m 1804 422 q 1680 406 1759 415 q 1507 391 1601 398 q 1314 378 1414 383 q 1132 369 1215 373 q 1140 323 1134 344 q 1155 288 1145 302 q 1219 265 1176 275 q 1315 248 1262 255 q 1425 236 1368 241 q 1534 227 1483 231 q 1623 219 1584 223 q 1675 208 1661 215 q 1673 141 1676 180 q 1664 68 1670 102 q 1649 5 1658 33 q 1627 -30 1640 -22 q 1492 -27 1564 -30 q 1345 -17 1420 -23 q 1195 -2 1270 -11 q 1045 19 1119 6 q 919 -2 991 8 q 766 -22 847 -13 q 603 -35 686 -30 q 444 -41 520 -40 q 303 -39 368 -43 q 195 -27 238 -36 q 154 28 177 -2 q 110 93 131 59 q 70 158 88 126 q 43 215 52 190 q 68 394 45 305 q 122 544 90 483 q 217 584 155 565 q 354 620 279 602 q 511 654 429 638 q 668 682 593 669 q 659 720 663 698 q 651 750 655 741 q 562 779 619 769 q 438 791 505 788 q 301 793 370 794 q 176 793 231 793 q 177 864 175 826 q 186 938 180 902 q 202 1000 193 973 q 223 1040 211 1027 q 417 1055 318 1050 q 616 1058 516 1061 q 813 1041 716 1055 q 1001 1002 911 1027 q 1012 986 1009 993 q 1141 1008 1073 998 q 1278 1025 1209 1018 q 1412 1036 1347 1032 q 1532 1041 1477 1040 q 1627 1038 1587 1041 q 1684 1027 1666 1036 q 1740 900 1716 973 q 1778 747 1764 827 q 1800 584 1793 668 q 1804 422 1807 500 m 1397 613 q 1396 695 1400 651 q 1375 772 1393 738 q 1329 768 1351 769 q 1285 766 1308 768 q 1236 757 1262 763 q 1179 738 1211 751 q 1155 666 1166 698 q 1137 581 1144 634 q 1281 588 1213 577 q 1397 613 1348 600 m 697 215 q 695 334 695 277 q 691 451 694 391 q 585 434 636 440 q 483 402 534 427 q 469 360 473 384 q 466 310 465 336 q 472 259 468 284 q 484 215 477 234 q 569 204 516 201 q 697 215 622 208 "},"®":{"x_min":71.421875,"x_max":1341.78125,"ha":1425,"o":"m 1336 275 q 1249 140 1290 208 q 1158 9 1208 72 q 913 -13 1043 -5 q 661 -21 783 -20 q 434 -19 538 -22 q 265 -13 330 -16 q 217 46 243 9 q 168 125 191 83 q 124 206 144 166 q 91 280 104 247 q 77 466 81 369 q 71 658 72 562 q 74 845 70 754 q 83 1012 77 936 q 181 1131 131 1066 q 284 1252 231 1195 q 422 1271 344 1263 q 582 1284 500 1279 q 747 1291 665 1288 q 898 1293 829 1293 q 1018 1293 968 1293 q 1090 1294 1069 1294 q 1150 1233 1120 1269 q 1209 1158 1180 1197 q 1263 1079 1237 1119 q 1312 1002 1290 1038 q 1325 889 1319 954 q 1334 754 1330 825 q 1339 609 1337 683 q 1341 472 1341 536 q 1340 356 1341 408 q 1336 275 1339 304 m 1027 204 q 1058 423 1051 305 q 1059 658 1065 541 q 1035 884 1052 775 q 994 1077 1018 993 q 832 1104 922 1097 q 657 1105 743 1111 q 503 1082 572 1100 q 405 1034 434 1063 q 353 870 370 976 q 334 644 336 763 q 345 409 331 525 q 388 218 359 294 q 547 179 458 194 q 725 161 636 163 q 895 169 815 159 q 1027 204 976 179 m 1008 279 q 921 245 973 252 q 819 244 869 237 q 782 295 798 272 q 753 343 766 319 q 727 389 740 366 q 697 438 713 412 q 673 468 687 458 q 644 470 659 479 q 636 460 640 469 q 631 440 633 451 q 628 418 629 429 q 627 402 627 408 q 627 334 626 359 q 626 263 629 308 q 584 262 608 262 q 534 263 559 262 q 482 266 508 263 q 436 270 456 269 q 431 342 433 291 q 430 460 430 393 q 431 604 430 527 q 434 751 431 680 q 438 879 436 822 q 443 963 440 936 q 493 974 459 969 q 566 983 526 979 q 652 990 607 987 q 740 993 698 993 q 817 994 782 994 q 872 991 852 994 q 952 853 925 927 q 998 688 980 779 q 982 651 997 675 q 949 602 966 627 q 916 556 932 577 q 897 525 900 534 q 928 461 911 500 q 962 386 945 422 q 991 319 979 350 q 1008 279 1004 288 m 775 676 q 767 745 779 716 q 752 795 755 775 q 732 808 745 804 q 702 813 718 812 q 672 812 687 813 q 645 808 657 811 q 641 772 644 794 q 636 727 638 751 q 634 677 634 702 q 637 630 634 652 q 667 631 648 629 q 705 640 686 634 q 743 654 725 645 q 775 676 762 663 "},"É":{"x_min":48.609375,"x_max":1103.78125,"ha":1178,"o":"m 1100 937 q 889 937 994 934 q 679 929 784 940 q 660 884 668 915 q 650 819 652 854 q 652 750 648 784 q 665 694 655 716 q 694 693 669 693 q 756 693 719 693 q 836 695 793 694 q 921 695 880 695 q 998 694 962 695 q 1051 690 1033 693 q 1059 593 1057 645 q 1055 495 1062 541 q 958 491 1008 491 q 858 490 908 490 q 759 487 808 490 q 662 476 709 484 q 649 427 652 459 q 647 361 645 395 q 652 296 648 327 q 659 244 655 265 q 746 234 690 234 q 866 234 802 233 q 990 236 929 234 q 1090 233 1051 237 q 1101 113 1100 177 q 1086 -8 1102 48 q 863 -24 972 -18 q 642 -31 754 -30 q 413 -27 530 -31 q 169 -8 297 -22 q 156 212 159 95 q 152 450 152 329 q 153 693 151 570 q 158 927 155 815 q 103 928 134 927 q 48 929 72 929 q 59 1046 51 986 q 81 1158 68 1107 q 238 1180 154 1170 q 411 1194 322 1190 q 593 1198 501 1198 q 772 1197 684 1198 q 941 1193 861 1195 q 1088 1187 1022 1191 q 1100 1135 1097 1168 q 1103 1066 1102 1102 q 1102 995 1104 1029 q 1100 937 1101 961 m 937 1509 q 809 1356 875 1433 q 677 1234 743 1279 q 629 1239 655 1236 q 575 1248 602 1243 q 522 1261 548 1254 q 475 1277 497 1268 q 520 1358 500 1315 q 556 1443 540 1401 q 586 1523 573 1486 q 607 1587 598 1561 q 783 1566 700 1586 q 937 1509 866 1545 "},"~":{"x_min":52.78125,"x_max":944.515625,"ha":986,"o":"m 944 977 q 913 927 934 961 q 867 851 893 893 q 811 766 841 809 q 749 686 780 722 q 688 630 718 651 q 633 611 658 609 q 538 642 591 616 q 434 697 484 668 q 344 746 384 726 q 288 758 304 766 q 265 740 279 752 q 238 710 252 727 q 211 672 225 693 q 184 633 197 652 q 100 693 133 661 q 52 759 68 726 q 102 867 73 809 q 163 977 130 925 q 231 1070 195 1029 q 300 1130 266 1112 q 375 1139 336 1151 q 457 1101 415 1127 q 545 1041 500 1075 q 637 983 590 1008 q 701 984 669 966 q 758 1030 733 1002 q 815 1111 787 1063 q 889 1054 854 1087 q 944 977 925 1020 "},"¡":{"x_min":76.390625,"x_max":542.265625,"ha":614,"o":"m 76 -4 q 115 260 97 130 q 150 502 134 390 q 176 697 165 613 q 193 827 187 782 q 252 836 212 830 q 338 845 293 841 q 422 852 383 850 q 479 848 462 854 q 491 412 494 629 q 487 -19 487 195 q 272 -35 377 -33 q 76 -4 166 -37 m 152 1288 q 190 1319 161 1305 q 259 1343 220 1333 q 343 1357 298 1352 q 426 1359 387 1361 q 493 1351 465 1358 q 530 1329 522 1344 q 541 1289 538 1314 q 541 1238 543 1265 q 536 1184 540 1211 q 530 1141 533 1158 q 502 1097 525 1115 q 451 1066 480 1079 q 393 1046 422 1054 q 344 1036 363 1038 q 307 1034 329 1032 q 263 1042 286 1037 q 220 1055 241 1047 q 184 1070 200 1063 q 155 1176 165 1120 q 152 1288 145 1232 "},"[":{"x_min":112.515625,"x_max":674.4375,"ha":731,"o":"m 669 208 q 674 96 675 159 q 666 -15 673 33 q 397 -24 537 -29 q 127 -6 258 -19 q 115 300 119 133 q 112 638 112 468 q 115 971 112 809 q 122 1262 118 1133 q 249 1284 179 1273 q 391 1301 319 1295 q 530 1307 462 1307 q 652 1297 598 1307 q 659 1241 655 1273 q 665 1175 662 1209 q 668 1110 668 1141 q 666 1055 669 1079 q 588 1047 632 1051 q 509 1041 545 1043 q 496 854 501 959 q 488 640 491 750 q 486 425 486 530 q 491 238 487 320 q 596 218 548 223 q 669 208 644 213 "},"L":{"x_min":78.234375,"x_max":1000.796875,"ha":1050,"o":"m 991 365 q 1000 200 1000 280 q 986 34 1001 119 q 891 24 951 30 q 755 12 830 18 q 595 2 680 6 q 422 -5 509 -2 q 254 -8 336 -8 q 102 -2 172 -8 q 97 162 101 65 q 90 372 94 259 q 84 608 87 486 q 79 847 80 730 q 78 1069 77 963 q 83 1252 79 1175 q 128 1264 95 1259 q 204 1273 161 1269 q 298 1278 248 1276 q 395 1280 348 1280 q 479 1279 441 1280 q 536 1275 516 1277 q 531 1013 533 1151 q 530 747 530 875 q 530 515 530 619 q 530 358 530 411 q 643 341 584 344 q 762 341 702 338 q 880 351 822 344 q 991 365 938 358 "},";":{"x_min":9.71875,"x_max":466.703125,"ha":544,"o":"m 466 234 q 404 119 436 177 q 340 7 372 61 q 275 -92 308 -45 q 211 -170 243 -138 q 109 -151 165 -165 q 9 -109 52 -137 q 53 9 33 -54 q 90 134 73 72 q 119 253 106 197 q 140 347 131 309 q 313 316 231 345 q 466 234 395 287 m 462 626 q 426 595 454 609 q 361 571 398 580 q 281 558 323 562 q 202 554 238 554 q 138 563 165 555 q 104 586 111 570 q 93 626 95 601 q 93 679 91 651 q 97 733 94 707 q 104 776 101 759 q 129 821 108 802 q 179 854 151 840 q 234 875 206 868 q 279 886 262 882 q 314 886 294 888 q 356 878 334 884 q 397 864 377 872 q 431 848 418 857 q 460 741 451 797 q 462 626 469 684 "}," ":{"x_min":0,"x_max":0,"ha":561},"∑":{"x_min":61.109375,"x_max":1005.359375,"ha":1064,"o":"m 993 1009 q 887 1008 947 1005 q 764 1014 827 1011 q 641 1020 701 1018 q 534 1018 580 1023 q 629 847 580 930 q 736 673 679 763 q 674 566 701 619 q 621 462 647 513 q 570 365 595 411 q 513 281 544 319 q 628 281 566 280 q 754 282 690 281 q 879 281 818 283 q 991 272 940 280 q 1002 140 1011 209 q 975 16 994 72 q 865 8 929 15 q 726 -4 801 1 q 568 -13 651 -9 q 401 -16 486 -18 q 234 -6 316 -15 q 77 19 151 1 q 73 86 76 50 q 69 162 70 123 q 68 238 68 201 q 75 306 69 276 q 134 404 109 356 q 179 498 158 452 q 220 588 200 544 q 266 673 240 632 q 152 857 205 768 q 62 1015 98 947 q 62 1073 59 1038 q 72 1144 65 1107 q 90 1219 80 1182 q 113 1288 101 1257 q 309 1297 204 1293 q 527 1301 415 1301 q 754 1295 640 1301 q 977 1273 869 1288 q 995 1141 991 1209 q 993 1009 998 1072 "},"%":{"x_min":68.0625,"x_max":1334.828125,"ha":1406,"o":"m 1332 75 q 1259 16 1308 40 q 1148 -18 1209 -6 q 1020 -31 1087 -30 q 891 -19 952 -31 q 782 17 830 -6 q 709 77 733 41 q 703 188 705 120 q 700 327 701 256 q 607 136 652 231 q 519 -50 562 41 q 397 -56 458 -56 q 287 -54 337 -56 q 201 -46 237 -51 q 151 -38 165 -41 q 309 313 234 152 q 458 620 383 475 q 343 620 401 616 q 232 636 284 623 q 139 672 180 650 q 77 727 98 694 q 70 841 73 773 q 68 981 68 909 q 69 1118 68 1052 q 73 1223 70 1184 q 152 1276 102 1254 q 263 1309 202 1298 q 389 1322 323 1320 q 513 1312 455 1323 q 619 1277 572 1301 q 688 1218 666 1254 q 694 1152 691 1194 q 700 1062 697 1111 q 772 1184 736 1123 q 848 1308 808 1244 q 972 1311 911 1315 q 1084 1301 1033 1308 q 1173 1286 1136 1294 q 1223 1275 1209 1279 q 1044 978 1134 1136 q 865 652 954 820 q 998 671 927 668 q 1131 664 1068 675 q 1245 630 1194 654 q 1320 568 1295 607 q 1327 502 1325 544 q 1331 410 1329 459 q 1334 307 1333 361 q 1334 207 1334 254 q 1334 125 1334 161 q 1332 75 1333 90 m 1097 200 q 1099 322 1097 266 q 1090 441 1101 377 q 1016 445 1059 441 q 940 436 973 450 q 932 370 934 400 q 929 313 929 341 q 930 256 929 286 q 933 191 932 227 q 974 185 951 187 q 1020 183 997 183 q 1063 186 1043 183 q 1097 200 1084 190 m 465 848 q 467 971 465 916 q 458 1090 469 1026 q 424 1092 443 1090 q 385 1095 405 1094 q 345 1094 365 1095 q 308 1084 325 1093 q 300 1020 302 1048 q 297 963 297 991 q 298 907 297 936 q 301 841 300 877 q 342 835 319 837 q 388 833 365 833 q 431 836 411 833 q 465 848 452 840 "},"P":{"x_min":55.5625,"x_max":1340.390625,"ha":1395,"o":"m 1340 777 q 1313 702 1337 750 q 1253 602 1288 655 q 1177 500 1218 550 q 1100 419 1136 450 q 959 381 1033 398 q 811 352 884 365 q 669 331 737 340 q 547 320 601 323 q 552 151 545 238 q 552 -18 558 63 q 463 -26 513 -22 q 358 -33 412 -30 q 250 -36 304 -36 q 151 -33 197 -36 q 143 54 147 -5 q 139 198 140 115 q 138 382 138 281 q 140 589 138 483 q 144 800 141 695 q 150 997 147 905 q 106 1001 134 997 q 55 1013 79 1005 q 63 1097 56 1055 q 76 1175 69 1138 q 89 1242 83 1212 q 97 1290 95 1272 q 209 1307 133 1300 q 381 1318 284 1315 q 585 1323 477 1322 q 791 1323 693 1325 q 970 1319 890 1322 q 1093 1312 1050 1316 q 1188 1192 1150 1252 q 1255 1068 1227 1132 q 1302 932 1283 1004 q 1340 777 1322 861 m 868 752 q 850 885 865 823 q 820 975 834 947 q 777 998 807 990 q 715 1009 748 1007 q 650 1007 682 1011 q 595 998 618 1004 q 586 934 591 973 q 576 849 580 894 q 571 756 572 804 q 577 666 570 708 q 640 668 601 665 q 721 683 679 672 q 803 711 763 694 q 868 752 843 729 "},"∏":{"x_min":50.921875,"x_max":1200.75,"ha":1247,"o":"m 1182 909 q 1131 904 1163 905 q 1057 905 1098 904 q 1027 34 1048 470 q 967 17 1011 23 q 874 7 923 11 q 779 4 825 4 q 711 5 733 4 q 700 222 705 109 q 693 453 695 336 q 691 688 691 570 q 691 919 690 807 q 627 919 661 919 q 581 915 594 919 q 569 479 570 702 q 569 38 568 256 q 493 11 534 20 q 406 -2 451 1 q 316 -2 362 -5 q 226 6 269 1 q 214 97 219 34 q 206 245 209 161 q 203 424 204 329 q 202 610 202 519 q 202 777 202 701 q 202 901 202 854 q 139 899 169 905 q 62 895 109 893 q 51 986 52 943 q 52 1073 50 1029 q 61 1161 55 1118 q 73 1255 68 1205 q 338 1275 197 1269 q 626 1284 480 1282 q 914 1279 772 1286 q 1182 1262 1057 1273 q 1200 1083 1195 1165 q 1182 909 1204 1001 "},"À":{"x_min":4.171875,"x_max":1398.71875,"ha":1410,"o":"m 1398 2 q 1288 -11 1345 -5 q 1175 -19 1232 -16 q 1067 -22 1119 -22 q 973 -22 1015 -23 q 954 33 962 9 q 939 77 945 56 q 927 122 933 98 q 913 177 920 145 q 802 185 865 183 q 676 186 738 187 q 558 180 613 184 q 466 168 502 176 q 442 121 452 141 q 424 81 431 101 q 410 38 416 61 q 395 -15 404 15 q 304 -27 356 -23 q 196 -31 251 -31 q 90 -27 141 -31 q 4 -18 40 -23 q 50 179 16 62 q 127 424 83 295 q 219 682 170 552 q 311 919 268 812 q 272 925 290 920 q 241 931 256 927 q 218 937 226 934 q 231 990 225 961 q 246 1048 238 1019 q 262 1103 254 1077 q 280 1148 270 1129 q 391 1166 323 1158 q 541 1177 459 1173 q 709 1183 622 1182 q 879 1182 797 1184 q 1034 1173 962 1179 q 1154 1157 1105 1168 q 1220 876 1187 1015 q 1285 597 1254 737 q 1345 309 1316 456 q 1398 2 1375 162 m 844 476 q 832 570 840 518 q 812 675 823 623 q 788 772 801 726 q 761 848 775 818 q 722 881 744 884 q 686 848 701 877 q 671 813 682 841 q 647 747 661 784 q 620 666 634 709 q 593 584 605 623 q 575 515 581 544 q 568 476 568 486 q 632 469 591 470 q 716 468 673 468 q 794 470 758 468 q 844 476 830 473 m 434 1504 q 765 1582 577 1577 q 786 1516 773 1554 q 815 1436 798 1479 q 852 1351 832 1394 q 897 1270 872 1308 q 849 1254 875 1261 q 796 1243 823 1248 q 743 1234 769 1237 q 694 1229 716 1232 q 629 1283 662 1251 q 563 1350 595 1315 q 497 1426 530 1386 q 434 1504 465 1466 "},"_":{"x_min":69.453125,"x_max":809.25,"ha":883,"o":"m 802 6 q 626 -1 716 1 q 445 -5 536 -4 q 263 -11 354 -6 q 88 -23 173 -15 q 72 62 76 16 q 70 152 68 108 q 79 233 72 195 q 94 294 86 270 q 186 297 130 295 q 309 301 243 300 q 446 303 375 302 q 583 303 518 304 q 704 301 648 302 q 793 295 759 300 q 801 234 797 273 q 807 152 805 194 q 809 69 809 109 q 802 6 808 29 "},"ñ":{"x_min":72.234375,"x_max":1208.890625,"ha":1292,"o":"m 1207 1016 q 1208 525 1209 772 q 1200 36 1207 279 q 1104 24 1159 30 q 984 11 1048 18 q 850 0 919 4 q 711 -5 780 -4 q 588 203 643 94 q 484 425 533 312 q 467 443 479 437 q 443 447 455 450 q 420 436 430 445 q 406 405 409 426 q 395 224 397 322 q 400 8 393 126 q 249 -13 325 -11 q 91 -4 173 -16 q 81 109 86 37 q 75 269 77 180 q 72 455 73 358 q 72 648 72 552 q 73 832 72 744 q 77 984 75 919 q 120 998 84 991 q 209 1011 156 1004 q 322 1023 261 1018 q 440 1031 383 1027 q 544 1034 497 1034 q 613 1030 591 1034 q 703 809 654 918 q 801 593 752 701 q 815 577 805 583 q 836 572 825 570 q 857 584 847 575 q 872 611 866 593 q 875 664 873 618 q 879 772 877 711 q 882 896 880 834 q 886 993 884 958 q 1045 1016 965 1011 q 1207 1016 1126 1022 m 1043 1257 q 997 1199 1029 1240 q 923 1116 964 1158 q 839 1043 882 1073 q 763 1014 796 1012 q 677 1035 725 1016 q 584 1071 629 1053 q 503 1102 539 1089 q 453 1111 467 1115 q 408 1079 435 1104 q 358 1028 381 1054 q 283 1068 314 1046 q 240 1112 253 1090 q 285 1183 260 1146 q 339 1255 310 1221 q 400 1318 368 1290 q 463 1357 432 1346 q 531 1364 494 1371 q 605 1339 567 1357 q 684 1300 643 1322 q 767 1261 725 1278 q 824 1260 796 1248 q 876 1290 853 1272 q 928 1344 903 1312 q 994 1308 963 1330 q 1043 1257 1025 1286 "},"+":{"x_min":67.5,"x_max":694.03125,"ha":753,"o":"m 690 423 q 624 420 662 420 q 541 418 586 419 q 538 362 540 393 q 534 300 536 331 q 530 235 531 268 q 526 173 529 202 q 470 163 512 168 q 382 156 429 159 q 293 154 336 154 q 230 155 250 154 q 226 215 229 181 q 221 283 223 248 q 218 350 219 318 q 215 409 216 381 q 138 403 173 405 q 77 397 102 401 q 68 472 70 431 q 68 550 66 512 q 72 622 69 588 q 81 676 76 655 q 131 679 97 679 q 211 682 166 680 q 211 745 211 711 q 213 815 212 779 q 216 885 215 851 q 219 945 218 919 q 388 961 297 959 q 555 962 479 963 q 555 893 555 930 q 555 819 555 857 q 555 747 555 782 q 554 684 555 712 q 634 683 600 684 q 684 679 669 682 q 689 622 687 657 q 693 551 691 588 q 693 479 694 513 q 690 423 693 445 "},"‚":{"x_min":54.171875,"x_max":493.09375,"ha":511,"o":"m 493 369 q 432 247 463 308 q 369 131 401 187 q 306 27 337 75 q 243 -52 275 -19 q 147 -29 200 -47 q 54 16 94 -12 q 97 140 77 73 q 133 272 116 206 q 162 397 150 338 q 183 495 175 455 q 348 459 270 491 q 493 369 426 427 "},"Æ":{"x_min":5.5625,"x_max":1858.015625,"ha":1917,"o":"m 1854 1043 q 1745 1041 1801 1041 q 1631 1041 1689 1041 q 1518 1040 1573 1041 q 1409 1033 1462 1038 q 1393 983 1398 1016 q 1388 911 1387 950 q 1394 834 1389 872 q 1412 772 1400 797 q 1442 770 1416 770 q 1505 771 1468 770 q 1587 772 1543 772 q 1674 772 1632 772 q 1752 771 1716 772 q 1805 766 1787 770 q 1814 658 1811 716 q 1811 551 1816 600 q 1715 546 1764 547 q 1617 544 1666 545 q 1519 541 1568 543 q 1425 529 1470 538 q 1415 474 1416 508 q 1417 402 1414 440 q 1427 329 1420 365 q 1439 272 1433 293 q 1523 260 1470 262 q 1633 260 1575 258 q 1748 263 1691 262 q 1844 259 1805 265 q 1855 125 1854 197 q 1841 -9 1857 54 q 1621 -26 1729 -20 q 1407 -32 1514 -31 q 1193 -30 1301 -33 q 973 -25 1086 -27 q 952 81 962 29 q 937 190 941 134 q 827 211 890 206 q 702 214 765 216 q 582 204 638 212 q 490 187 526 195 q 459 134 472 156 q 436 89 447 112 q 417 41 426 66 q 397 -16 408 16 q 304 -30 358 -26 q 196 -34 251 -34 q 90 -31 141 -34 q 5 -20 40 -27 q 75 200 27 70 q 181 472 122 329 q 306 758 241 615 q 426 1022 370 901 q 387 1026 405 1023 q 356 1034 372 1030 q 333 1041 340 1037 q 341 1099 336 1066 q 355 1164 347 1132 q 373 1225 363 1197 q 394 1273 383 1254 q 503 1291 436 1283 q 651 1303 570 1298 q 817 1311 732 1308 q 982 1315 902 1315 q 1200 1325 1083 1322 q 1434 1329 1318 1329 q 1657 1326 1550 1329 q 1843 1320 1764 1323 q 1854 1261 1851 1298 q 1857 1185 1857 1225 q 1857 1107 1858 1145 q 1854 1043 1855 1068 m 905 530 q 904 634 907 576 q 897 749 902 691 q 884 857 891 807 q 866 941 876 908 q 832 979 854 983 q 791 941 811 975 q 772 902 786 933 q 741 830 758 872 q 704 740 723 788 q 668 648 684 691 q 641 572 651 605 q 629 529 630 540 q 688 516 648 518 q 772 515 729 513 q 853 521 815 516 q 905 530 891 526 "},"ğ":{"x_min":44.046875,"x_max":1108.078125,"ha":1188,"o":"m 1105 955 q 1107 874 1107 937 q 1107 727 1108 811 q 1105 545 1107 643 q 1101 361 1104 448 q 1093 205 1098 273 q 1083 111 1088 137 q 1055 7 1072 58 q 1015 -84 1038 -43 q 959 -157 991 -126 q 887 -202 927 -188 q 726 -240 819 -225 q 534 -268 633 -256 q 341 -284 436 -279 q 175 -293 245 -290 q 143 -184 154 -244 q 136 -73 131 -123 q 249 -65 186 -69 q 377 -54 312 -61 q 504 -36 443 -47 q 615 -11 566 -26 q 638 32 627 0 q 655 111 648 65 q 370 111 512 104 q 105 148 229 118 q 64 228 79 175 q 45 350 50 281 q 47 494 41 418 q 67 642 52 570 q 104 777 81 713 q 156 879 127 840 q 279 922 206 904 q 437 952 352 940 q 613 970 522 963 q 793 976 704 976 q 962 971 882 976 q 1105 955 1043 966 m 686 738 q 600 725 641 733 q 518 701 559 716 q 491 609 504 657 q 471 517 477 562 q 469 431 465 472 q 494 361 473 391 q 568 345 519 350 q 677 343 618 341 q 684 541 683 441 q 686 738 686 640 m 991 1355 q 943 1274 969 1319 q 889 1182 916 1229 q 836 1088 862 1136 q 788 1002 809 1041 q 724 1002 766 1002 q 634 1002 682 1001 q 541 1004 586 1002 q 469 1009 497 1007 q 416 1100 443 1052 q 366 1195 390 1147 q 321 1288 341 1243 q 287 1373 301 1333 q 318 1377 295 1375 q 373 1382 341 1380 q 443 1383 405 1383 q 520 1380 481 1383 q 563 1298 537 1340 q 611 1220 588 1255 q 622 1205 613 1216 q 643 1194 630 1194 q 656 1203 651 1194 q 663 1216 661 1212 q 683 1244 670 1226 q 709 1285 695 1262 q 738 1332 723 1308 q 762 1375 752 1355 q 794 1375 769 1376 q 854 1369 819 1373 q 925 1361 888 1365 q 991 1355 962 1357 "},"Ë":{"x_min":48.609375,"x_max":1103.78125,"ha":1178,"o":"m 1100 937 q 889 937 994 934 q 679 929 784 940 q 660 884 668 915 q 650 819 652 854 q 652 750 648 784 q 665 694 655 716 q 694 693 669 693 q 756 693 719 693 q 836 695 793 694 q 921 695 880 695 q 998 694 962 695 q 1051 690 1033 693 q 1059 593 1057 645 q 1055 495 1062 541 q 958 491 1008 491 q 858 490 908 490 q 759 487 808 490 q 662 476 709 484 q 649 427 652 459 q 647 361 645 395 q 652 296 648 327 q 659 244 655 265 q 746 234 690 234 q 866 234 802 233 q 990 236 929 234 q 1090 233 1051 237 q 1101 113 1100 177 q 1086 -8 1102 48 q 863 -24 972 -18 q 642 -31 754 -30 q 413 -27 530 -31 q 169 -8 297 -22 q 156 212 159 95 q 152 450 152 329 q 153 693 151 570 q 158 927 155 815 q 103 928 134 927 q 48 929 72 929 q 59 1046 51 986 q 81 1158 68 1107 q 238 1180 154 1170 q 411 1194 322 1190 q 593 1198 501 1198 q 772 1197 684 1198 q 941 1193 861 1195 q 1088 1187 1022 1191 q 1100 1135 1097 1168 q 1103 1066 1102 1102 q 1102 995 1104 1029 q 1100 937 1101 961 m 990 1337 q 962 1305 983 1319 q 912 1281 941 1291 q 851 1266 883 1270 q 791 1263 819 1261 q 741 1272 762 1265 q 715 1294 720 1279 q 708 1336 709 1309 q 707 1391 707 1362 q 711 1449 708 1420 q 715 1494 713 1477 q 736 1542 719 1523 q 773 1574 752 1561 q 816 1595 794 1587 q 851 1608 837 1604 q 878 1609 862 1611 q 910 1600 894 1607 q 941 1586 926 1594 q 966 1569 957 1577 q 988 1457 982 1516 q 990 1337 995 1398 m 562 1326 q 506 1278 551 1298 q 411 1250 462 1258 q 316 1250 359 1243 q 262 1282 272 1257 q 254 1325 256 1298 q 253 1384 252 1352 q 256 1444 254 1415 q 262 1491 259 1473 q 284 1541 266 1520 q 325 1577 302 1562 q 372 1600 348 1591 q 409 1611 395 1608 q 439 1612 422 1615 q 474 1602 456 1609 q 508 1587 491 1595 q 536 1570 525 1579 q 559 1452 551 1515 q 562 1326 568 1390 "},"'":{"x_min":112.515625,"x_max":452.8125,"ha":511,"o":"m 452 1155 q 425 1022 438 1090 q 395 891 411 955 q 360 771 379 827 q 320 672 341 715 q 272 659 298 665 q 218 650 245 654 q 164 647 191 647 q 113 652 137 647 q 123 780 122 712 q 122 913 125 848 q 118 1036 120 979 q 112 1133 115 1094 q 286 1174 200 1169 q 452 1155 372 1179 "},"ª":{"x_min":69.453125,"x_max":809.25,"ha":875,"o":"m 805 429 q 752 416 794 423 q 662 402 711 408 q 570 393 613 395 q 511 393 526 391 q 510 427 511 406 q 508 461 509 448 q 423 461 472 461 q 322 464 375 461 q 215 475 269 468 q 115 495 161 481 q 88 611 95 531 q 83 784 80 691 q 100 963 86 876 q 136 1098 113 1050 q 213 1121 163 1109 q 322 1143 262 1133 q 450 1163 383 1154 q 579 1179 516 1173 q 694 1189 641 1186 q 780 1193 747 1193 q 797 995 791 1098 q 807 791 804 891 q 809 597 809 690 q 805 429 808 504 m 502 632 q 499 816 500 732 q 500 994 498 900 q 466 991 480 993 q 440 986 452 990 q 413 975 427 982 q 377 957 398 968 q 363 873 370 920 q 354 779 356 826 q 353 691 351 733 q 365 625 355 650 q 429 624 390 616 q 502 632 469 632 m 802 6 q 626 -1 716 1 q 445 -5 536 -4 q 263 -11 354 -6 q 88 -23 173 -15 q 72 62 76 16 q 70 152 68 108 q 79 233 72 195 q 94 294 86 270 q 186 297 130 295 q 309 301 243 300 q 446 303 375 302 q 583 303 518 304 q 704 301 648 302 q 793 295 759 300 q 801 234 797 273 q 807 152 805 194 q 809 69 809 109 q 802 6 808 29 "},"Œ":{"x_min":64.234375,"x_max":1831.625,"ha":1889,"o":"m 1827 1047 q 1617 1044 1722 1041 q 1407 1037 1512 1047 q 1386 987 1394 1020 q 1377 914 1379 954 q 1379 837 1375 875 q 1393 775 1383 800 q 1422 773 1397 773 q 1484 774 1447 773 q 1564 775 1520 775 q 1649 775 1608 775 q 1725 774 1690 775 q 1777 770 1759 773 q 1786 662 1783 720 q 1783 555 1790 604 q 1686 549 1736 550 q 1586 547 1636 548 q 1486 544 1536 547 q 1390 531 1437 541 q 1377 477 1380 512 q 1375 405 1373 443 q 1379 332 1376 368 q 1387 275 1383 297 q 1474 263 1418 265 q 1593 263 1530 262 q 1717 266 1657 265 q 1816 263 1777 268 q 1829 128 1827 200 q 1814 -6 1830 56 q 1648 -19 1729 -15 q 1485 -25 1566 -23 q 1321 -27 1404 -26 q 1152 -34 1238 -29 q 1027 -40 1098 -37 q 876 -47 957 -44 q 709 -50 795 -50 q 540 -50 623 -51 q 379 -45 456 -50 q 240 -33 302 -41 q 193 29 219 -9 q 143 111 168 68 q 97 199 118 155 q 66 276 77 243 q 64 462 65 359 q 64 668 63 565 q 66 868 65 772 q 72 1038 68 965 q 122 1099 91 1059 q 186 1178 152 1138 q 250 1252 219 1218 q 302 1298 281 1287 q 463 1309 370 1305 q 658 1315 556 1314 q 862 1316 759 1316 q 1051 1315 965 1316 q 1253 1313 1150 1314 q 1457 1312 1357 1312 q 1649 1311 1557 1312 q 1816 1307 1741 1309 q 1827 1250 1825 1284 q 1831 1179 1830 1216 q 1830 1107 1832 1143 q 1827 1047 1829 1072 m 866 318 q 870 463 868 387 q 873 621 873 538 q 870 790 873 704 q 857 963 866 876 q 776 961 813 962 q 703 957 738 959 q 634 944 668 954 q 563 916 600 934 q 552 853 556 900 q 545 744 547 807 q 543 610 543 682 q 543 473 543 538 q 544 356 543 408 q 545 279 545 304 q 624 256 579 262 q 715 257 669 251 q 801 279 761 263 q 866 318 841 295 "},"˛":{"x_min":69.796875,"x_max":1092.453125,"ha":1170,"o":"m 1091 -12 q 1043 -18 1075 -15 q 972 -25 1011 -22 q 891 -31 933 -29 q 813 -34 850 -33 q 748 -36 776 -34 q 709 -34 720 -37 q 707 40 708 -9 q 704 154 705 91 q 702 288 704 218 q 699 422 701 358 q 693 538 697 486 q 684 618 690 590 q 595 622 648 620 q 466 601 541 625 q 461 469 463 556 q 456 284 458 381 q 454 100 454 187 q 455 -31 454 12 q 368 -39 415 -40 q 274 -34 322 -38 q 178 -22 226 -29 q 86 -12 130 -15 q 75 134 79 34 q 70 362 70 234 q 70 630 69 490 q 72 899 70 770 q 77 1130 75 1027 q 81 1283 80 1233 q 139 1294 104 1290 q 216 1301 175 1298 q 301 1305 258 1304 q 380 1305 344 1307 q 441 1301 416 1304 q 470 1291 465 1298 q 460 1196 463 1250 q 456 1087 456 1143 q 455 977 455 1032 q 455 882 455 923 q 536 897 491 886 q 630 916 581 908 q 729 927 679 925 q 827 918 780 929 q 893 859 859 893 q 959 788 927 825 q 1018 718 991 752 q 1061 654 1045 683 q 1075 486 1069 586 q 1086 286 1082 386 q 1091 105 1090 187 q 1091 -12 1093 23 "},"T":{"x_min":38.71875,"x_max":1195.921875,"ha":1240,"o":"m 1193 1277 q 1195 1204 1195 1245 q 1193 1120 1195 1162 q 1185 1041 1190 1079 q 1176 979 1180 1004 q 1029 963 1101 969 q 882 954 957 957 q 868 853 875 919 q 854 703 861 787 q 843 524 848 619 q 835 336 838 429 q 830 161 832 244 q 830 15 829 77 q 619 -18 725 -2 q 409 -26 513 -34 q 391 231 397 115 q 384 456 386 348 q 384 675 383 565 q 387 912 386 786 q 303 914 348 915 q 212 911 258 913 q 122 904 166 909 q 40 895 77 898 q 43 1065 36 976 q 70 1237 50 1154 q 142 1253 88 1245 q 270 1266 195 1261 q 437 1276 345 1272 q 624 1283 529 1280 q 811 1287 719 1286 q 982 1288 904 1288 q 1115 1284 1059 1287 q 1193 1277 1170 1282 "},"j":{"x_min":-308.53125,"x_max":506.546875,"ha":599,"o":"m 494 1002 q 505 861 503 951 q 505 662 507 770 q 499 437 504 554 q 489 214 494 320 q 477 22 483 108 q 465 -108 471 -63 q 378 -181 439 -150 q 239 -235 317 -213 q 78 -269 162 -256 q -82 -286 -6 -281 q -216 -286 -157 -290 q -298 -270 -274 -281 q -307 -177 -302 -238 q -298 -38 -312 -116 q -198 -36 -246 -37 q -101 -30 -149 -36 q -5 -13 -53 -25 q 90 18 42 -2 q 105 119 100 51 q 114 274 111 187 q 117 459 117 361 q 114 654 117 558 q 108 835 112 750 q 97 983 104 920 q 177 1000 130 991 q 276 1012 224 1008 q 385 1014 329 1016 q 494 1002 442 1012 m 499 1180 q 460 1151 489 1163 q 391 1129 430 1138 q 308 1116 351 1120 q 224 1114 264 1112 q 157 1123 185 1116 q 121 1143 129 1129 q 110 1182 112 1158 q 110 1232 108 1205 q 114 1283 111 1258 q 121 1322 118 1308 q 148 1365 125 1347 q 200 1395 171 1383 q 258 1414 229 1408 q 305 1425 287 1420 q 344 1425 322 1427 q 387 1416 365 1422 q 430 1404 410 1411 q 467 1389 451 1397 q 496 1288 486 1341 q 499 1180 505 1234 "},"ş":{"x_min":48.453125,"x_max":985.875,"ha":1038,"o":"m 863 15 q 857 -163 861 -80 q 844 -300 852 -245 q 764 -336 818 -319 q 645 -367 711 -354 q 506 -390 579 -380 q 371 -402 434 -400 q 260 -402 308 -404 q 194 -387 212 -400 q 188 -294 191 -354 q 194 -158 184 -234 q 264 -154 233 -155 q 325 -147 295 -152 q 384 -131 354 -143 q 451 -101 415 -120 q 451 -22 452 -66 q 334 -41 393 -33 q 137 -65 234 -55 q 115 -23 125 -58 q 101 52 106 11 q 93 131 95 93 q 91 186 90 170 q 207 196 144 190 q 330 213 270 202 q 441 236 390 223 q 518 259 491 248 q 526 302 523 276 q 526 351 529 329 q 476 369 511 362 q 396 383 441 376 q 300 395 351 390 q 200 408 248 401 q 113 425 152 415 q 50 450 73 434 q 67 704 43 576 q 148 944 91 832 q 336 996 238 975 q 534 1030 434 1018 q 734 1048 634 1043 q 929 1050 833 1052 q 951 931 947 995 q 954 811 955 866 q 741 786 847 795 q 527 759 634 777 q 500 690 505 727 q 493 615 494 652 q 722 577 608 594 q 952 541 836 559 q 982 438 975 494 q 983 324 988 381 q 960 211 977 266 q 916 112 943 156 q 863 88 890 100 q 863 15 863 51 "},"1":{"x_min":52.78125,"x_max":580.609375,"ha":675,"o":"m 580 1286 q 577 979 580 1136 q 570 663 575 822 q 559 345 565 504 q 545 33 552 186 q 508 21 534 26 q 447 12 481 16 q 375 6 413 8 q 302 3 337 4 q 238 2 266 2 q 194 4 209 2 q 183 236 187 112 q 177 489 179 361 q 175 745 175 618 q 176 988 175 872 q 150 990 168 988 q 114 993 133 991 q 78 997 95 994 q 52 1002 61 1000 q 65 1122 54 1059 q 93 1229 77 1184 q 203 1249 138 1238 q 336 1268 268 1259 q 470 1281 405 1276 q 580 1286 536 1286 "},"›":{"x_min":66.671875,"x_max":726.453125,"ha":767,"o":"m 66 97 q 146 244 106 176 q 225 375 186 312 q 300 496 263 437 q 373 616 337 555 q 306 738 343 672 q 231 874 269 805 q 155 1007 193 943 q 87 1125 118 1072 q 181 1134 129 1127 q 281 1146 233 1141 q 366 1153 330 1151 q 412 1152 402 1155 q 579 892 501 1022 q 726 626 658 762 q 561 352 638 486 q 402 72 484 218 q 292 70 347 68 q 190 77 237 72 q 111 88 144 83 q 66 97 79 94 "},"ı":{"x_min":97.6875,"x_max":461.140625,"ha":547,"o":"m 461 1015 q 452 524 461 775 q 431 26 444 273 q 372 13 416 18 q 277 4 327 8 q 181 1 227 1 q 115 2 134 1 q 102 246 106 116 q 97 509 98 376 q 98 767 97 641 q 104 994 100 893 q 191 1007 145 1002 q 284 1013 237 1011 q 375 1015 330 1015 q 461 1015 420 1015 "},"ä":{"x_min":43.0625,"x_max":1095.359375,"ha":1158,"o":"m 1086 30 q 965 4 1037 16 q 809 -17 893 -8 q 636 -32 726 -26 q 464 -40 547 -38 q 311 -39 381 -43 q 195 -27 241 -36 q 154 28 177 -2 q 110 93 131 59 q 70 158 88 126 q 43 215 52 190 q 68 394 45 305 q 122 544 90 483 q 217 584 155 565 q 354 620 279 602 q 511 654 429 638 q 668 682 593 669 q 659 720 663 698 q 651 750 655 741 q 562 779 619 769 q 438 791 505 788 q 301 793 370 794 q 176 793 231 793 q 177 864 175 826 q 186 938 180 902 q 202 1000 193 973 q 223 1040 211 1027 q 417 1055 318 1050 q 616 1058 516 1061 q 813 1041 716 1055 q 1001 1002 911 1027 q 1045 902 1027 969 q 1073 747 1062 834 q 1089 559 1084 659 q 1095 363 1094 459 q 1093 179 1095 266 q 1086 30 1090 91 m 697 215 q 695 334 695 277 q 691 451 694 391 q 585 434 636 440 q 483 402 534 427 q 469 360 473 384 q 466 310 465 336 q 472 259 468 284 q 484 215 477 234 q 569 204 516 201 q 697 215 622 208 m 1008 1179 q 957 1133 998 1152 q 869 1107 917 1115 q 782 1106 822 1099 q 733 1137 741 1113 q 726 1179 728 1152 q 726 1233 725 1205 q 729 1290 726 1262 q 733 1336 732 1319 q 753 1384 737 1363 q 790 1417 769 1404 q 832 1438 811 1430 q 868 1449 854 1447 q 927 1442 892 1455 q 985 1412 962 1429 q 1007 1298 1000 1358 q 1008 1179 1014 1238 m 579 1169 q 548 1134 572 1149 q 494 1108 525 1119 q 428 1093 464 1098 q 362 1088 393 1087 q 309 1098 332 1090 q 280 1122 286 1106 q 273 1166 275 1138 q 271 1225 271 1194 q 275 1286 272 1256 q 280 1333 278 1315 q 302 1383 285 1362 q 342 1418 319 1404 q 389 1441 365 1433 q 428 1454 412 1449 q 457 1454 440 1456 q 492 1445 475 1452 q 526 1430 510 1438 q 554 1413 543 1422 q 578 1294 569 1356 q 579 1169 586 1231 "},"<":{"x_min":66.671875,"x_max":726.453125,"ha":767,"o":"m 726 1272 q 645 1090 684 1176 q 567 925 605 1004 q 491 774 529 847 q 418 627 454 701 q 486 473 448 558 q 561 303 523 388 q 637 136 600 218 q 705 -8 675 55 q 611 -21 663 -13 q 511 -35 559 -29 q 426 -45 462 -41 q 380 -45 390 -48 q 213 281 291 119 q 66 612 134 443 q 231 957 154 787 q 390 1305 308 1126 q 500 1309 445 1312 q 602 1299 555 1305 q 681 1285 648 1293 q 726 1272 713 1277 "},"£":{"x_min":68.515625,"x_max":1013.96875,"ha":1056,"o":"m 1013 1023 q 909 1008 958 1015 q 812 995 859 1001 q 716 982 765 990 q 611 965 668 975 q 588 891 588 930 q 601 830 588 852 q 681 809 647 816 q 747 796 715 801 q 816 787 780 791 q 902 773 852 783 q 909 665 908 725 q 902 556 909 605 q 868 550 886 555 q 825 538 850 544 q 766 528 800 533 q 686 523 733 523 q 609 411 647 469 q 513 281 570 352 q 622 281 566 280 q 733 282 677 281 q 843 281 788 283 q 950 272 898 280 q 973 147 969 209 q 975 16 977 84 q 865 8 929 15 q 726 -4 801 1 q 568 -13 651 -9 q 401 -16 486 -18 q 234 -6 316 -15 q 77 19 151 1 q 73 86 76 50 q 69 162 70 123 q 68 238 68 201 q 75 306 69 276 q 165 443 133 393 q 219 522 198 493 q 150 516 179 518 q 102 509 120 513 q 92 653 88 593 q 105 761 95 713 q 165 766 120 765 q 273 768 209 766 q 196 829 238 794 q 113 890 154 863 q 129 1026 120 950 q 162 1173 138 1102 q 570 1271 355 1243 q 987 1291 784 1300 q 1002 1227 997 1261 q 1011 1159 1008 1194 q 1013 1090 1013 1125 q 1013 1023 1013 1055 "},"t":{"x_min":23.328125,"x_max":1063.96875,"ha":1092,"o":"m 1061 937 q 1063 879 1063 912 q 1061 812 1063 845 q 1055 749 1059 779 q 1047 700 1051 719 q 972 693 1013 695 q 890 687 932 690 q 807 683 848 684 q 733 679 766 682 q 719 556 723 637 q 713 378 715 475 q 711 184 711 281 q 713 12 712 86 q 525 -14 619 0 q 336 -20 430 -29 q 320 172 325 93 q 313 324 315 252 q 313 470 312 395 q 315 645 315 544 q 168 646 244 652 q 25 633 91 640 q 27 768 20 695 q 52 907 33 840 q 327 937 95 925 q 328 1016 327 970 q 329 1107 329 1061 q 331 1198 330 1154 q 334 1270 333 1241 q 428 1283 375 1279 q 536 1289 481 1287 q 644 1291 591 1291 q 737 1291 697 1291 q 737 1212 737 1258 q 736 1118 737 1166 q 735 1024 736 1069 q 734 945 734 979 q 843 945 790 945 q 939 945 895 945 q 1015 943 983 944 q 1061 937 1047 941 "},"¬":{"x_min":76.390625,"x_max":1158.421875,"ha":1281,"o":"m 845 38 q 857 156 851 94 q 865 280 862 218 q 865 405 868 343 q 851 523 862 468 q 718 523 805 523 q 525 523 632 523 q 301 522 418 523 q 80 519 184 522 q 77 578 79 538 q 76 666 76 618 q 77 766 76 713 q 82 865 79 819 q 90 945 86 911 q 100 993 94 980 q 254 997 166 997 q 441 997 343 998 q 641 992 538 995 q 838 985 743 988 q 1015 979 933 982 q 1154 973 1097 976 q 1158 815 1158 902 q 1156 636 1158 727 q 1150 455 1154 545 q 1141 286 1145 365 q 1131 143 1136 206 q 1122 44 1126 80 q 984 29 1051 29 q 845 38 916 30 "},"ù":{"x_min":74.0625,"x_max":1141.765625,"ha":1206,"o":"m 1141 1007 q 1137 819 1140 920 q 1133 614 1134 718 q 1132 414 1132 511 q 1134 241 1132 318 q 1109 186 1126 216 q 1069 125 1091 156 q 1023 63 1047 93 q 979 9 1000 33 q 813 4 908 8 q 617 -3 719 0 q 414 -6 515 -6 q 229 0 313 -6 q 190 45 212 16 q 146 105 168 73 q 107 169 125 137 q 81 225 90 201 q 80 329 81 266 q 77 463 79 391 q 75 611 76 536 q 74 757 73 687 q 77 886 75 827 q 84 979 79 944 q 278 993 184 991 q 479 983 372 995 q 468 783 470 876 q 466 604 465 690 q 470 441 466 519 q 480 284 475 362 q 541 270 505 275 q 614 268 577 266 q 685 281 651 270 q 741 311 719 293 q 740 479 741 391 q 738 654 738 566 q 737 827 737 743 q 738 984 737 912 q 938 1004 838 1004 q 1141 1007 1037 1004 m 267 1244 q 421 1301 338 1281 q 598 1321 505 1321 q 619 1258 606 1296 q 648 1177 631 1219 q 685 1091 664 1135 q 730 1011 705 1047 q 682 995 708 1003 q 629 983 656 988 q 576 974 602 978 q 527 969 549 971 q 396 1091 462 1014 q 267 1244 330 1168 "},"W":{"x_min":54.171875,"x_max":1787.640625,"ha":1817,"o":"m 1787 1295 q 1771 1082 1783 1198 q 1743 842 1759 965 q 1707 596 1726 719 q 1670 363 1689 473 q 1634 160 1651 252 q 1605 6 1618 68 q 1462 -2 1530 1 q 1328 -9 1394 -6 q 1196 -13 1262 -12 q 1058 -13 1130 -13 q 1050 35 1055 0 q 1036 119 1044 70 q 1020 222 1029 168 q 1002 327 1011 277 q 986 418 994 377 q 975 477 979 459 q 959 514 969 502 q 937 525 948 526 q 916 512 926 525 q 900 477 907 500 q 877 389 891 444 q 845 267 862 334 q 809 125 827 200 q 775 -20 791 51 q 634 -29 698 -26 q 509 -31 569 -31 q 387 -27 448 -30 q 258 -20 326 -23 q 197 300 223 140 q 150 618 172 459 q 105 938 127 777 q 54 1258 83 1098 q 257 1284 154 1276 q 473 1270 361 1291 q 520 1001 498 1136 q 563 729 543 866 q 583 711 566 715 q 604 718 600 708 q 647 848 625 773 q 691 1001 669 923 q 734 1154 713 1079 q 770 1284 754 1229 q 966 1298 866 1293 q 1159 1284 1065 1302 q 1244 1018 1202 1150 q 1325 748 1286 886 q 1334 734 1327 741 q 1348 727 1340 726 q 1363 740 1355 727 q 1375 783 1370 752 q 1436 1295 1408 1036 q 1604 1308 1515 1312 q 1787 1295 1693 1304 "},"Ğ":{"x_min":65.875,"x_max":1245.9375,"ha":1320,"o":"m 1034 1536 q 986 1454 1012 1500 q 932 1363 959 1409 q 879 1269 905 1316 q 836 1190 855 1226 q 919 1197 877 1194 q 1102 1208 1025 1202 q 1138 1069 1126 1145 q 1145 933 1150 993 q 1020 920 1090 926 q 877 907 950 915 q 736 885 805 898 q 613 854 668 872 q 575 795 591 833 q 546 711 558 758 q 527 611 534 663 q 518 508 519 558 q 521 415 516 458 q 536 343 526 372 q 609 321 568 331 q 693 304 651 311 q 770 295 734 297 q 827 294 807 293 q 843 345 837 325 q 850 384 848 365 q 847 424 851 404 q 836 473 844 444 q 747 492 795 490 q 661 491 700 494 q 656 586 654 543 q 675 680 658 630 q 806 701 732 693 q 957 714 880 709 q 1103 722 1033 719 q 1222 725 1173 725 q 1232 527 1227 637 q 1239 305 1236 418 q 1244 86 1243 193 q 1245 -102 1245 -20 q 1163 -108 1212 -105 q 1059 -111 1113 -111 q 948 -106 1004 -111 q 847 -90 893 -102 l 847 -13 q 702 -2 783 -8 q 535 10 620 2 q 368 30 450 18 q 222 68 286 43 q 142 110 170 88 q 99 160 113 131 q 79 229 84 188 q 69 325 73 269 q 65 451 65 379 q 75 601 66 523 q 102 758 84 679 q 149 904 120 837 q 216 1022 177 972 q 311 1093 255 1070 q 488 1144 388 1123 q 702 1177 591 1163 q 750 1182 723 1180 q 677 1183 716 1183 q 585 1185 630 1183 q 512 1190 540 1187 q 459 1280 486 1233 q 409 1375 433 1327 q 364 1468 384 1423 q 330 1554 344 1514 q 361 1558 338 1555 q 416 1562 384 1561 q 486 1564 448 1564 q 563 1561 525 1564 q 606 1478 580 1520 q 654 1401 632 1436 q 665 1386 657 1397 q 686 1375 673 1375 q 699 1384 694 1375 q 707 1397 704 1393 q 726 1425 713 1407 q 752 1466 738 1443 q 781 1512 766 1489 q 805 1555 795 1536 q 837 1555 812 1557 q 897 1550 862 1554 q 968 1541 932 1545 q 1034 1536 1005 1537 "},"ï":{"x_min":-25.53125,"x_max":573.046875,"ha":547,"o":"m 571 1186 q 530 1150 562 1165 q 459 1128 497 1134 q 388 1127 421 1122 q 349 1151 355 1133 q 343 1184 344 1163 q 342 1229 342 1205 q 345 1275 343 1252 q 349 1311 347 1298 q 365 1349 351 1333 q 394 1375 378 1365 q 428 1393 411 1386 q 457 1402 446 1400 q 505 1396 476 1408 q 551 1372 535 1384 q 569 1282 564 1329 q 571 1186 575 1234 m 224 1177 q 199 1150 218 1162 q 155 1129 180 1137 q 101 1117 129 1122 q 47 1113 72 1112 q 4 1121 22 1115 q -19 1141 -13 1127 q -24 1177 -23 1155 q -25 1223 -26 1198 q -22 1271 -24 1248 q -19 1309 -20 1294 q 0 1348 -14 1332 q 32 1377 14 1365 q 69 1395 50 1389 q 100 1405 87 1402 q 124 1406 111 1408 q 152 1398 137 1404 q 180 1386 167 1393 q 203 1372 193 1379 q 222 1277 215 1327 q 224 1177 229 1227 m 461 1015 q 453 524 461 775 q 432 26 444 273 q 372 13 417 18 q 278 4 328 8 q 181 1 228 1 q 115 2 135 1 q 103 246 107 116 q 98 509 99 376 q 99 767 97 641 q 104 994 100 893 q 192 1007 146 1002 q 284 1013 237 1011 q 376 1015 330 1015 q 461 1015 421 1015 "},">":{"x_min":66.671875,"x_max":726.453125,"ha":767,"o":"m 66 -1 q 146 181 106 95 q 225 345 186 266 q 300 496 263 423 q 373 643 337 569 q 306 797 343 712 q 231 967 269 882 q 155 1134 193 1052 q 87 1279 118 1215 q 181 1292 129 1284 q 281 1306 233 1300 q 366 1316 330 1312 q 412 1316 402 1319 q 579 989 501 1151 q 726 658 658 827 q 561 313 638 481 q 402 -34 484 144 q 292 -38 347 -41 q 190 -28 237 -34 q 111 -14 144 -22 q 66 -1 79 -6 "},"v":{"x_min":41.671875,"x_max":1113.984375,"ha":1147,"o":"m 1113 993 q 1021 760 1070 883 q 920 509 972 637 q 818 253 869 381 q 722 2 768 125 q 625 -5 677 -1 q 520 -12 573 -9 q 414 -15 466 -15 q 316 -13 362 -15 q 235 218 277 84 q 154 494 193 352 q 86 768 116 636 q 41 993 55 900 q 145 1004 87 998 q 256 1017 204 1011 q 350 1025 309 1023 q 400 1023 390 1027 q 423 904 408 975 q 456 765 438 834 q 488 636 473 695 q 509 552 504 577 q 516 534 511 548 q 529 504 522 519 q 544 479 536 490 q 558 468 552 468 q 577 475 569 468 q 592 491 586 481 q 603 512 598 501 q 609 529 608 523 q 692 776 645 650 q 780 1020 738 902 q 896 1026 841 1027 q 995 1018 951 1025 q 1070 1005 1038 1012 q 1113 993 1101 998 "},"û":{"x_min":74.0625,"x_max":1141.765625,"ha":1206,"o":"m 1141 1007 q 1137 819 1140 920 q 1133 614 1134 718 q 1132 414 1132 511 q 1134 241 1132 318 q 1109 186 1126 216 q 1069 125 1091 156 q 1023 63 1047 93 q 979 9 1000 33 q 813 4 908 8 q 617 -3 719 0 q 414 -6 515 -6 q 229 0 313 -6 q 190 45 212 16 q 146 105 168 73 q 107 169 125 137 q 81 225 90 201 q 80 329 81 266 q 77 463 79 391 q 75 611 76 536 q 74 757 73 687 q 77 886 75 827 q 84 979 79 944 q 278 993 184 991 q 479 983 372 995 q 468 783 470 876 q 466 604 465 690 q 470 441 466 519 q 480 284 475 362 q 541 270 505 275 q 614 268 577 266 q 685 281 651 270 q 741 311 719 293 q 740 479 741 391 q 738 654 738 566 q 737 827 737 743 q 738 984 737 912 q 938 1004 838 1004 q 1141 1007 1037 1004 m 970 1031 q 904 1026 941 1030 q 833 1018 867 1022 q 773 1013 798 1015 q 741 1013 748 1012 q 717 1054 731 1031 q 688 1099 702 1077 q 662 1138 674 1120 q 642 1165 649 1155 q 635 1177 639 1169 q 621 1186 630 1186 q 601 1175 609 1186 q 589 1161 592 1165 q 542 1087 567 1127 q 499 1008 516 1047 q 422 1005 460 1005 q 352 1006 384 1005 q 297 1011 320 1008 q 266 1015 274 1013 q 300 1096 280 1052 q 344 1186 320 1140 q 395 1277 369 1231 q 448 1362 421 1322 q 520 1367 476 1365 q 612 1370 564 1369 q 703 1370 660 1370 q 767 1369 745 1369 q 814 1286 788 1331 q 868 1197 841 1241 q 921 1109 895 1152 q 970 1031 948 1066 "},"Ò":{"x_min":65.28125,"x_max":1357.90625,"ha":1431,"o":"m 1350 213 q 1257 89 1301 152 q 1161 -31 1213 26 q 1038 -45 1109 -40 q 886 -54 968 -51 q 718 -58 805 -58 q 547 -56 632 -58 q 384 -50 462 -55 q 241 -38 305 -44 q 195 18 220 -16 q 144 93 169 52 q 98 172 119 133 q 66 241 77 211 q 65 409 65 316 q 65 593 65 501 q 68 773 66 686 q 73 926 69 861 q 123 982 93 947 q 187 1052 154 1016 q 252 1119 220 1088 q 304 1159 283 1150 q 418 1170 354 1165 q 553 1180 481 1176 q 701 1188 625 1184 q 851 1192 777 1193 q 993 1187 925 1191 q 1118 1173 1062 1183 q 1179 1116 1148 1148 q 1238 1045 1209 1083 q 1293 970 1266 1008 q 1341 897 1319 932 q 1350 731 1345 830 q 1356 529 1354 632 q 1357 341 1358 427 q 1350 213 1357 255 m 868 277 q 872 407 869 338 q 875 550 875 476 q 871 703 875 625 q 858 859 868 782 q 777 857 815 858 q 704 853 740 857 q 635 842 669 850 q 565 818 601 834 q 552 760 556 802 q 546 661 548 718 q 543 541 544 605 q 543 418 543 476 q 545 312 544 359 q 547 243 547 265 q 625 223 580 227 q 716 225 670 219 q 802 244 762 230 q 868 277 843 258 m 427 1522 q 581 1578 498 1558 q 759 1598 665 1598 q 780 1535 768 1573 q 809 1454 793 1497 q 846 1368 826 1411 q 890 1288 866 1325 q 790 1259 847 1269 q 687 1247 733 1250 q 622 1300 655 1268 q 556 1368 588 1332 q 491 1444 523 1405 q 427 1522 459 1483 "},"&":{"x_min":50,"x_max":1044.25,"ha":1095,"o":"m 1041 377 q 1043 320 1045 351 q 1032 260 1040 290 q 1011 202 1023 230 q 988 155 1000 175 q 893 145 952 150 q 762 138 834 141 q 754 52 759 94 q 737 -31 748 11 q 672 -44 715 -38 q 581 -54 629 -50 q 490 -58 534 -58 q 422 -52 445 -58 q 419 53 420 6 q 415 140 418 100 q 282 152 343 144 q 186 175 222 161 q 95 333 131 243 q 50 501 58 423 q 167 597 104 555 q 316 666 230 640 q 252 690 286 675 q 189 725 219 705 q 136 768 159 744 q 101 818 112 793 q 116 877 104 844 q 145 943 129 911 q 179 1002 161 975 q 211 1043 197 1030 q 302 1068 258 1057 q 388 1090 347 1080 q 384 1223 387 1169 q 377 1333 381 1276 q 472 1362 422 1351 q 573 1379 522 1373 q 674 1384 625 1384 q 765 1380 723 1384 q 749 1249 754 1309 q 740 1134 744 1188 q 840 1138 788 1138 q 948 1138 891 1138 q 975 1109 961 1132 q 1000 1058 988 1086 q 1019 998 1012 1030 q 1025 940 1026 966 q 941 933 998 936 q 816 925 883 930 q 683 909 748 919 q 576 880 618 898 q 550 825 558 850 q 554 758 543 800 q 600 750 566 752 q 672 745 634 747 q 747 744 711 744 q 800 744 783 744 q 829 666 819 709 q 837 583 840 622 q 757 579 805 583 q 659 569 708 575 q 570 555 611 563 q 515 536 530 547 q 513 453 512 481 q 530 406 515 425 q 642 387 581 393 q 768 379 702 381 q 902 377 833 376 q 1041 377 972 377 "},"˝":{"x_min":79.859375,"x_max":981.09375,"ha":1014,"o":"m 980 1069 q 860 1056 925 1062 q 733 1041 795 1050 q 618 1018 670 1032 q 533 986 565 1005 q 512 904 520 963 q 498 763 504 845 q 592 755 537 757 q 705 754 647 754 q 818 754 763 754 q 907 752 872 755 q 918 688 915 716 q 920 633 920 661 q 913 577 919 605 q 900 515 908 550 q 798 506 850 508 q 694 501 747 504 q 590 494 641 498 q 488 480 538 490 q 487 342 487 411 q 487 211 487 273 q 488 99 487 150 q 490 15 488 48 q 393 0 445 5 q 286 -8 340 -5 q 184 -10 233 -11 q 97 -4 134 -9 q 90 105 94 37 q 84 259 87 173 q 80 440 81 344 q 80 632 79 536 q 86 821 81 729 q 100 989 91 913 q 122 1121 108 1065 q 155 1202 136 1177 q 343 1253 245 1236 q 540 1279 440 1270 q 739 1288 640 1287 q 933 1291 838 1290 q 954 1258 945 1283 q 970 1201 963 1233 q 979 1133 976 1169 q 980 1069 982 1097 "},"I":{"x_min":108.796875,"x_max":512.546875,"ha":608,"o":"m 512 1247 q 503 644 512 947 q 479 33 494 341 q 441 21 468 26 q 381 12 415 16 q 309 6 347 8 q 235 3 270 4 q 171 2 200 2 q 127 4 143 2 q 114 304 119 144 q 109 625 109 463 q 109 940 108 786 q 115 1222 111 1094 q 212 1238 161 1233 q 315 1245 263 1243 q 418 1247 368 1247 q 512 1247 468 1247 "},"G":{"x_min":65.875,"x_max":1245.9375,"ha":1320,"o":"m 1245 -101 q 1163 -108 1212 -105 q 1059 -111 1113 -111 q 948 -106 1004 -111 q 847 -88 893 -101 l 847 -5 q 702 6 783 0 q 535 20 620 12 q 368 43 450 29 q 222 83 286 56 q 142 129 170 105 q 99 184 113 152 q 79 259 84 215 q 69 362 73 302 q 65 499 65 420 q 75 662 66 577 q 102 833 84 747 q 149 992 120 919 q 217 1119 177 1065 q 311 1197 256 1173 q 489 1252 386 1230 q 703 1288 593 1273 q 918 1309 813 1302 q 1102 1322 1023 1316 q 1138 1171 1126 1254 q 1145 1023 1150 1088 q 1020 1010 1090 1016 q 877 995 950 1004 q 736 971 805 986 q 613 937 668 957 q 575 874 591 915 q 546 782 558 833 q 527 673 534 730 q 518 561 519 616 q 521 460 516 506 q 536 381 526 413 q 609 358 568 369 q 693 339 651 347 q 770 329 734 331 q 827 329 807 327 q 843 384 837 362 q 850 427 848 406 q 847 470 851 448 q 836 523 844 491 q 747 544 795 541 q 661 544 700 547 q 656 647 654 600 q 675 748 658 694 q 806 771 732 762 q 957 786 880 780 q 1103 794 1033 791 q 1222 797 1173 797 q 1232 583 1227 702 q 1239 341 1236 463 q 1244 103 1243 219 q 1245 -101 1245 -12 "},"`":{"x_min":34.71875,"x_max":497.265625,"ha":536,"o":"m 34 1038 q 188 1095 105 1075 q 365 1115 272 1115 q 386 1052 373 1090 q 415 971 398 1013 q 452 885 431 929 q 497 805 472 841 q 449 789 475 797 q 396 777 423 782 q 343 768 369 772 q 294 763 316 765 q 163 885 229 808 q 34 1038 97 962 "},"·":{"x_min":110.5625,"x_max":502.9375,"ha":614,"o":"m 500 427 q 461 398 491 411 q 392 377 431 386 q 309 363 352 368 q 225 360 265 359 q 158 368 186 361 q 122 390 130 376 q 111 427 113 402 q 111 477 109 451 q 115 527 112 502 q 122 568 119 552 q 149 610 126 593 q 201 640 172 627 q 259 659 230 652 q 306 669 288 666 q 345 670 323 673 q 388 663 366 668 q 432 650 411 658 q 468 636 454 643 q 497 534 487 587 q 500 427 506 481 "},"r":{"x_min":85.5625,"x_max":1162.59375,"ha":1220,"o":"m 1162 38 q 1098 15 1141 27 q 1002 -8 1054 2 q 895 -27 950 -19 q 798 -36 841 -34 q 745 24 769 -4 q 699 81 722 52 q 654 140 676 111 q 604 205 632 170 q 582 232 594 219 q 558 256 570 245 q 532 272 545 266 q 504 272 519 277 q 481 244 486 265 q 479 205 477 223 q 479 98 479 152 q 476 -9 479 44 q 411 -22 451 -16 q 322 -31 370 -27 q 217 -36 273 -36 q 104 -30 161 -36 q 96 103 100 15 q 90 299 93 191 q 86 523 87 406 q 86 742 84 640 q 93 921 88 844 q 106 1029 98 998 q 204 1044 141 1038 q 345 1052 268 1050 q 511 1052 423 1054 q 682 1045 598 1050 q 840 1036 766 1041 q 963 1022 913 1030 q 1037 944 1000 991 q 1103 837 1075 897 q 1147 708 1132 777 q 1155 565 1162 638 q 1078 481 1127 531 q 973 381 1029 430 q 1018 306 990 356 q 1077 201 1047 255 q 1131 100 1107 147 q 1162 38 1155 54 m 740 590 q 740 639 743 612 q 732 693 737 666 q 722 738 727 719 q 716 765 718 758 q 670 787 702 779 q 600 799 637 795 q 530 800 563 802 q 480 787 497 797 q 476 720 477 757 q 475 647 475 683 q 477 579 475 612 q 483 525 479 547 q 545 528 509 525 q 617 538 580 531 q 686 558 654 545 q 740 590 719 570 "},"¿":{"x_min":44.28125,"x_max":911.1875,"ha":983,"o":"m 52 455 q 111 506 77 477 q 181 562 145 534 q 252 613 218 590 q 313 651 287 636 q 341 755 336 705 q 358 863 345 805 q 436 877 384 872 q 547 887 488 883 q 658 894 605 891 q 738 897 711 897 q 747 832 745 869 q 750 756 750 794 q 747 681 750 718 q 741 616 744 644 q 697 577 723 600 q 638 532 670 555 q 568 487 605 509 q 494 444 531 465 q 489 376 487 411 q 500 315 491 341 q 552 300 518 302 q 628 297 587 297 q 713 303 669 298 q 797 316 758 308 q 868 329 837 323 q 911 341 898 336 q 895 259 902 298 q 877 181 887 219 q 857 103 868 143 q 829 18 845 63 q 720 -19 784 -5 q 584 -38 657 -33 q 436 -40 512 -43 q 293 -30 361 -38 q 170 -8 225 -22 q 86 22 116 5 q 68 111 77 55 q 52 229 58 166 q 44 352 45 291 q 52 455 43 413 m 333 1240 q 381 1271 350 1257 q 452 1296 412 1286 q 534 1312 491 1307 q 618 1318 577 1318 q 691 1313 658 1318 q 741 1297 723 1308 q 754 1263 750 1291 q 759 1202 758 1236 q 757 1140 759 1169 q 747 1102 754 1111 q 666 1045 716 1065 q 561 1020 616 1025 q 453 1025 506 1016 q 361 1051 400 1034 q 352 1075 359 1058 q 339 1118 345 1093 q 330 1175 333 1143 q 333 1240 327 1207 "},"ý":{"x_min":44.453125,"x_max":1170.921875,"ha":1206,"o":"m 1170 1015 q 1077 872 1126 952 q 975 708 1027 793 q 871 540 923 623 q 770 384 819 456 q 765 185 768 280 q 759 9 762 90 q 671 -1 718 1 q 578 -4 625 -4 q 486 -1 531 -4 q 398 1 440 1 q 395 199 398 101 q 390 397 393 297 q 329 477 362 429 q 260 582 295 526 q 190 701 225 638 q 125 822 155 763 q 75 930 95 880 q 44 1015 54 980 q 153 1023 93 1019 q 270 1031 213 1027 q 368 1036 326 1034 q 420 1034 411 1037 q 450 963 429 1005 q 493 879 470 920 q 536 802 516 837 q 562 752 555 768 q 569 740 563 748 q 582 722 575 732 q 598 707 590 713 q 613 701 607 701 q 648 716 634 701 q 666 738 662 730 q 741 886 705 809 q 819 1032 776 962 q 942 1036 884 1037 q 1045 1032 1000 1036 q 1124 1024 1091 1029 q 1170 1015 1157 1019 m 955 1218 q 826 1064 892 1141 q 695 943 760 987 q 592 956 649 945 q 492 984 535 966 q 536 1064 516 1020 q 573 1150 556 1108 q 602 1231 589 1193 q 623 1294 614 1269 q 801 1274 717 1294 q 955 1218 884 1254 "},"x":{"x_min":27.78125,"x_max":1162.59375,"ha":1170,"o":"m 1162 1020 q 1073 874 1116 943 q 986 743 1029 805 q 901 621 943 680 q 819 502 859 562 q 894 379 852 445 q 978 244 936 312 q 1062 111 1020 176 q 1138 -5 1104 45 q 1034 -15 1093 -9 q 922 -27 976 -22 q 827 -34 868 -31 q 777 -34 787 -37 q 739 27 761 -6 q 695 95 718 62 q 654 154 673 127 q 623 197 634 181 q 610 215 618 202 q 588 227 602 227 q 556 212 569 227 q 538 188 544 197 q 462 77 502 137 q 395 -40 422 18 q 274 -45 334 -45 q 163 -43 213 -45 q 77 -37 113 -40 q 27 -30 41 -34 q 81 90 50 23 q 152 226 113 156 q 231 365 190 295 q 316 495 273 434 q 252 597 290 529 q 177 743 215 665 q 109 895 140 820 q 66 1015 79 970 q 147 1025 101 1019 q 244 1035 194 1030 q 342 1043 294 1040 q 426 1043 390 1045 q 492 919 459 979 q 540 826 525 859 q 547 813 541 822 q 560 797 552 805 q 575 782 568 788 q 590 776 583 776 q 622 791 609 776 q 640 813 634 805 q 668 861 651 834 q 707 920 686 888 q 749 985 727 952 q 788 1045 770 1018 q 911 1049 850 1051 q 1023 1042 972 1047 q 1111 1030 1075 1037 q 1162 1020 1148 1023 "},"è":{"x_min":51,"x_max":1149.5,"ha":1201,"o":"m 1148 419 q 1025 404 1104 412 q 852 388 945 395 q 659 376 758 381 q 476 368 559 370 q 484 322 479 343 q 500 286 490 301 q 563 263 520 273 q 659 246 607 252 q 770 234 712 240 q 878 225 827 229 q 967 216 929 220 q 1019 206 1005 212 q 1018 139 1020 177 q 1009 66 1015 101 q 993 4 1002 31 q 972 -31 984 -23 q 763 -25 876 -31 q 537 -4 651 -18 q 313 33 423 9 q 112 87 204 56 q 71 181 86 119 q 52 323 56 244 q 54 491 48 402 q 74 661 59 579 q 111 815 88 744 q 162 929 133 886 q 270 966 198 948 q 429 998 341 984 q 613 1023 518 1012 q 793 1037 709 1033 q 941 1038 877 1041 q 1029 1026 1005 1036 q 1084 898 1061 970 q 1123 746 1108 826 q 1144 582 1137 666 q 1148 419 1151 498 m 741 611 q 741 693 744 650 q 719 769 737 736 q 674 767 695 768 q 629 763 652 766 q 581 755 607 761 q 523 736 555 750 q 500 664 511 695 q 481 579 488 633 q 625 587 558 576 q 741 611 693 598 m 269 1285 q 423 1342 340 1322 q 600 1362 507 1362 q 621 1299 608 1337 q 650 1218 633 1260 q 687 1132 666 1176 q 732 1052 707 1088 q 684 1036 710 1044 q 631 1024 658 1029 q 578 1015 604 1019 q 529 1010 551 1012 q 398 1132 464 1055 q 269 1285 332 1209 "},"º":{"x_min":69.453125,"x_max":809.25,"ha":875,"o":"m 802 6 q 626 -1 716 1 q 445 -5 536 -4 q 263 -11 354 -6 q 88 -23 173 -15 q 72 62 76 16 q 70 152 68 108 q 79 233 72 195 q 94 294 86 270 q 186 297 130 295 q 309 301 243 300 q 446 303 375 302 q 583 303 518 304 q 704 301 648 302 q 793 295 759 300 q 801 234 797 273 q 807 152 805 194 q 809 69 809 109 q 802 6 808 29 m 797 520 q 713 456 769 483 q 588 415 658 429 q 443 401 519 401 q 297 414 366 401 q 172 455 227 427 q 90 525 116 483 q 81 651 84 575 q 79 809 79 727 q 80 963 79 890 q 84 1079 81 1036 q 174 1140 116 1115 q 300 1178 231 1165 q 443 1192 369 1191 q 585 1180 518 1193 q 705 1142 652 1168 q 784 1075 758 1116 q 791 1000 788 1048 q 797 897 794 952 q 800 782 800 841 q 801 670 801 723 q 800 577 801 618 q 797 520 800 537 m 530 661 q 533 797 530 734 q 522 932 536 861 q 484 934 505 932 q 439 936 462 936 q 393 936 416 937 q 351 926 370 934 q 341 853 344 886 q 338 790 338 820 q 341 726 338 759 q 344 651 343 693 q 391 645 365 648 q 443 641 416 641 q 492 646 469 641 q 530 661 515 651 "}}}
